<?xml version="1.0" encoding="utf-8"?>
<!-- Generator: Adobe Illustrator 15.0.2, SVG Export Plug-In . SVG Version: 6.00 Build 0)  -->
<!DOCTYPE svg PUBLIC "-//W3C//DTD SVG 1.1//EN" "http://www.w3.org/Graphics/SVG/1.1/DTD/svg11.dtd">
<svg version="1.1" id="Layer_1" xmlns="http://www.w3.org/2000/svg" xmlns:xlink="http://www.w3.org/1999/xlink" x="0px" y="0px"
	 width="416px" height="287px" viewBox="0 0 416 287" enable-background="new 0 0 416 287" xml:space="preserve">
<path d="M0,0h416v287H0V0z"/>
<path fill="#FDFEFD" d="M50.97,46.96c3.07-2.69,7.56-2.13,11.23-1.26c10.06,3.2,18.85,9.98,24.85,18.63
	c-6.29,3.67-12.09,8.51-15.8,14.86c-5.12,8.76-10.66,17.43-13.74,27.17c-2.47-0.06-4.86,0.55-7.21,1.26
	c3.51-4.16,7.39-8.84,7.25-14.61c0.09-4.13-2.68-7.42-4.88-10.63c-4.71-6.79-7.72-15.01-7.21-23.36
	C45.77,54.55,47.3,49.8,50.97,46.96z"/>
<path fill="#FDFEFD" d="M149.81,48.99c4.84-2.61,10.38-4.86,15.96-3.66c4.72,1.57,7.4,6.41,8.19,11.07
	c1.49,9.08-1.68,18.32-6.77,25.78c-2.18,3.28-5.12,6.56-4.9,10.78c-0.43,5.82,3.8,10.33,6.94,14.74c-1.95-0.62-3.91-1.38-5.99-1.34
	c-0.29-0.02-0.87-0.05-1.17-0.06c-2.9-9.96-8.74-18.66-13.86-27.57c-3.61-6.25-9.43-10.78-15.54-14.41
	C137.13,58,142.95,52.61,149.81,48.99z"/>
<path fill="#E3001B" d="M87.05,64.33c13.82-7.81,31.79-7.8,45.62-0.01c6.11,3.63,11.93,8.16,15.54,14.41
	c5.12,8.91,10.96,17.61,13.86,27.57c0.3,0.01,0.88,0.04,1.17,0.06c0.03,2.42,0.07,4.84,0.12,7.26c-1.6-0.77-3.21-1.54-4.8-2.3
	c-0.38,2.34-0.79,4.68-1.29,7c0.32,0.28,0.97,0.84,1.3,1.12c-1.49,0.02-3.16-0.44-4.31,0.79c-0.14,0.35-0.41,1.04-0.54,1.39
	c4.14,4.66,9.12,8.56,12.83,13.61c3.22,4.42,6.42,8.9,8.75,13.86c1.81,3.891,4.36,7.561,4.71,11.96c-4.31-1.5-8.4-3.75-12.95-4.489
	c-14.95-2.891-31.13,5.209-38.02,18.75c-0.57,0.109-1.71,0.34-2.28,0.449c-0.42-0.67-0.84-1.33-1.26-1.99
	c-0.67,3.051-0.94,6.16-0.97,9.28c-0.1,5.39-1.51,10.63-2.01,15.979c0.42,2.701,1.74,5.191,1.95,7.951
	c0.71,6.439,4.91,11.68,7.8,17.279c-5.68-0.789-12.27-0.859-16.55,3.631c4.11-0.611,8.15-2.07,12.36-1.75
	c4.61,0.17,8.74,2.52,12.63,4.779c-5.93-5.73-10.49-12.82-13.76-20.359c-1.85-3.931-1.45-8.391-2.33-12.561
	c0.21-3.96,1.01-7.88,1.46-11.82c3.43-11.14,11.26-21.57,22.45-25.75c5.9-2.529,12.52-2.529,18.79-1.77
	c14.87,2.96,26.32,16.54,28.4,31.29c0.13,5.05,0.13,10.11,0,15.159c-1.85,14.291-12.69,27.141-26.75,30.791
	c-4.89,1.149-9.96,1.02-14.95,1.06c-13.34-0.09-26.68,0.16-40.01-0.29c-9.52,0.49-19.07,0.27-28.6,0.1
	c-0.14-3.479,0.42-7.52,3.75-9.43c5.46-3.67,12.41-2.15,18.07,0.2c3.73-15.24,3.64-31.011,5.14-46.521c0.15-4.1,0-8.209,0.01-12.31
	c0.35-0.479,1.06-1.44,1.42-1.92c-1.07-0.069-2.13-0.13-3.19-0.2c0.02,6.801-0.16,13.61-0.14,20.42c0.06,2.75-0.42,5.48-1.26,8.1
	c-0.91-1.25-2.73-2.209-2.65-3.979c-0.6-18.06-4.24-35.87-5.22-53.89c6.34,2.15,13.6,2.03,19.5-1.35c4.26-2.21,7.64-6.29,8.42-11.11
	c0.35-2.97-0.8-5.84-1.81-8.57c0.97-0.48,1.94-0.96,2.91-1.44c4.16-2.06,9.02-1.68,13.3-0.2c-0.1,1.51,0.07,3.09-0.42,4.55
	c-2.29,1.99-5.41,2.6-7.81,4.42c-2.05,1.63-0.8,4.52-0.96,6.69c5.73-3.76,10.53-9.41,17.65-10.45c1.54-3.63-1.04-7-3.59-9.34
	c-4.77-4.59-11.4-6.19-17.57-7.99c1.83-0.84,3.65-1.67,5.48-2.51c-2.75-0.47-5.53-0.74-8.31-0.82c0.2-0.35,0.61-1.03,0.82-1.38
	c2.46-0.36,4.91-0.71,7.37-1.07c-3.62-2.06-7.92-3.96-12.12-2.53c-5.62,1.48-9.04,6.54-11.92,11.19c-1.71-0.05-3.42-0.09-5.13-0.13
	c-2.56-4.96-6.46-9.89-12.15-11.24c-4.37-1.19-8.58,1.05-12.29,3.08c3.35-0.14,6.73,0.27,9.68,1.96c-2.93,0.16-5.87,0.38-8.77,0.89
	c1.66,0.89,3.34,1.77,5.01,2.64c-8.52,2.06-18.31,5.42-21.87,14.28c-0.86,1.65-2.76,2.22-4.23,3.19c0.04-2.97-0.02-5.96-0.84-8.84
	c-1.8,0.56-3.61,1.13-5.42,1.66c0.32-2.17,0.63-4.35,1.24-6.46c3.08-9.74,8.62-18.41,13.74-27.17C74.96,72.84,80.76,68,87.05,64.33z
	"/>
<path fill="#613626" d="M56.53,69.94c-0.04-3.03,1.83-7.04,5.39-6.8c4.3,0.19,7.75,3.06,10.98,5.6c-1.32,1.32-2.63,2.65-3.92,4
	c-2-0.5-4.86-2.56-6.36-0.07c-1.97,3.84,2.56,7.58,0.25,11.35C59.81,79.88,56.37,75.37,56.53,69.94z"/>
<path fill="#613626" d="M147.4,68.48c2.86-2.76,6.56-5.18,10.64-5.32c3.24-0.16,4.86,3.34,5.19,6.07
	c0.44,5.73-3.27,10.53-6.36,14.97c-0.28-0.83-0.83-2.48-1.11-3.3c1.48-2.75,3.22-6.87,0.33-9.29c-1.89-0.5-3.61,0.59-5.31,1.21
	C149.76,71.39,147.41,70.25,147.4,68.48z"/>
<path fill="#FDFEFD" d="M82.71,97.04c3.71-2.03,7.92-4.27,12.29-3.08c5.69,1.35,9.59,6.28,12.15,11.24
	c1.71,0.04,3.42,0.08,5.13,0.13c2.88-4.65,6.3-9.71,11.92-11.19c4.2-1.43,8.5,0.47,12.12,2.53c-2.46,0.36-4.91,0.71-7.37,1.07
	c-0.21,0.35-0.62,1.03-0.82,1.38c2.78,0.08,5.56,0.35,8.31,0.82c-1.83,0.84-3.65,1.67-5.48,2.51c6.17,1.8,12.8,3.4,17.57,7.99
	c2.55,2.34,5.13,5.71,3.59,9.34c-7.12,1.04-11.92,6.69-17.65,10.45c0.16-2.17-1.09-5.06,0.96-6.69c2.4-1.82,5.52-2.43,7.81-4.42
	c0.49-1.46,0.32-3.04,0.42-4.55c-4.28-1.48-9.14-1.86-13.3,0.2c3.92-3.26,1.45-10.2-3.57-10.37c-2.76-0.49-4.66,1.82-6.49,3.45
	c1.31,1.33,2.63,2.65,3.93,4c0.6-1.3,1.18-2.6,1.76-3.9c1.53,0.52,2.81,1.52,3.11,3.2c-1.31,0.5-2.61,1.02-3.91,1.55
	c0.56,0.88,1.69,2.63,2.26,3.51c1.01,2.73,2.16,5.6,1.81,8.57c-0.78,4.82-4.16,8.9-8.42,11.11c-5.9,3.38-13.16,3.5-19.5,1.35
	c-1.22-0.34-2.37-0.84-3.44-1.5c-3.27-2.21-6.34-5.2-7.32-9.15c-0.66-3.35-0.13-6.85,1.24-9.95c0.88-1.38,1.89-2.67,2.88-3.97
	c-1.19-0.47-2.4-0.92-3.6-1.35c0.09-0.95,0.19-1.9,0.29-2.85c0.57-0.03,1.71-0.09,2.28-0.11c0.73,1.1,1.47,2.21,2.21,3.32
	c1.11-1.3,2.25-2.57,3.4-3.84c-2.09-2.32-5.19-4.63-8.39-2.93c-3.92,1.61-4.22,6.77-1.82,9.81c-3.69-1.05-7.95-2.03-11.54-0.16
	c-1.67,0.75-1.47,3.15-0.74,4.51c2.62,1.96,5.88,2.84,8.51,4.8c0.88,2.17,0.28,4.48-0.02,6.69c-6.2-3.21-10.87-11-18.67-9.77
	c0.01-1.33,0.06-2.65,0.15-3.98c3.56-8.86,13.35-12.22,21.87-14.28c-1.67-0.87-3.35-1.75-5.01-2.64c2.9-0.51,5.84-0.73,8.77-0.89
	C89.44,97.31,86.06,96.9,82.71,97.04z"/>
<path fill="#613626" d="M90.89,104.91c3.2-1.7,6.3,0.61,8.39,2.93c-1.15,1.27-2.29,2.54-3.4,3.84c-0.74-1.11-1.48-2.22-2.21-3.32
	c-0.57,0.02-1.71,0.08-2.28,0.11c-0.1,0.95-0.2,1.9-0.29,2.85c1.2,0.43,2.41,0.88,3.6,1.35c-0.99,1.3-2,2.59-2.88,3.97
	c-0.91-0.65-1.83-1.28-2.75-1.92C86.67,111.68,86.97,106.52,90.89,104.91z"/>
<path fill="#613626" d="M120.3,107.85c1.83-1.63,3.73-3.94,6.49-3.45c5.02,0.17,7.49,7.11,3.57,10.37
	c-0.97,0.48-1.94,0.96-2.91,1.44c-0.57-0.88-1.7-2.63-2.26-3.51c1.3-0.53,2.6-1.05,3.91-1.55c-0.3-1.68-1.58-2.68-3.11-3.2
	c-0.58,1.3-1.16,2.6-1.76,3.9C122.93,110.5,121.61,109.18,120.3,107.85z"/>
<path fill="#E3001B" d="M77.53,114.56c3.59-1.87,7.85-0.89,11.54,0.16c0.92,0.64,1.84,1.27,2.75,1.92c-1.37,3.1-1.9,6.6-1.24,9.95
	c0.98,3.95,4.05,6.94,7.32,9.15c-3.93-1.51-8.01-2.66-11.75-4.62c0.11-2.15,0.2-4.29,0.31-6.44l-1.16-0.81
	c-2.63-1.96-5.89-2.84-8.51-4.8C76.06,117.71,75.86,115.31,77.53,114.56z"/>
<path fill="#E3001B" d="M385.12,118.91c4.271-1.48,8.13-4.03,12.63-4.93c-13.54,21.82-28.971,42.76-47.891,60.27
	c-0.299-0.49-0.899-1.46-1.209-1.939c-0.07,0.449-0.211,1.34-0.291,1.789c-0.25-0.649-0.77-1.949-1.029-2.6
	c-0.51-0.061-1.54-0.17-2.051-0.221c0.031-0.639,0.101-1.909,0.131-2.549c-0.68-0.11-2.03-0.33-2.7-0.451
	c-0.03-0.639-0.09-1.93-0.11-2.569c-0.58-0.021-1.74-0.04-2.32-0.06c-0.01-0.68-0.029-2.041-0.039-2.721
	c-0.7-0.06-2.12-0.18-2.82-0.24c0.1-0.449,0.32-1.359,0.42-1.819c-1.47-0.7-2.609-1.771-3.08-3.37c-0.52-0.07-1.57-0.2-2.09-0.27
	c-0.02-0.701-0.05-2.09-0.061-2.791c-0.549,0.021-1.649,0.051-2.199,0.061c-0.03-0.68-0.1-2.04-0.141-2.73
	c-0.67-0.109-2.01-0.34-2.68-0.459c0.051-0.641,0.16-1.931,0.221-2.58c-0.681-0.021-2.041-0.07-2.721-0.09
	c0.051-0.591,0.15-1.761,0.2-2.341c-0.71-0.18-2.149-0.54-2.86-0.72c0.041-0.41,0.141-1.23,0.18-1.64
	c-1.379-0.74-2.319-1.92-2.869-3.37c-0.561-0.07-1.67-0.22-2.23-0.29c0.051-0.7,0.16-2.09,0.211-2.79c-0.601,0-1.791,0-2.391,0
	c-0.03-0.7-0.1-2.09-0.141-2.78c-0.629-0.06-1.899-0.19-2.529-0.26c-0.04-0.67-0.12-2.02-0.16-2.69c-0.609-0.02-1.82-0.07-2.42-0.09
	c0.05-0.55,0.141-1.66,0.18-2.22l-1.58-0.5c-0.17-0.61-0.51-1.83-0.68-2.44c3.87-1.6,8.18-0.81,12.26-1.12
	c11.62-0.03,23.221-0.62,34.83-1.01C365.23,123.49,375.46,122.31,385.12,118.91z"/>
<path fill="#613626" d="M105.24,122.11c3.75-0.72,7.57-0.17,11.25,0.67c-0.54,2.34-1.24,4.99-3.7,6.01
	c-4.04,2.73-10.08-1.6-9.13-6.25c1.53-0.36,2.69,0.18,3.45,1.63c2.15-0.04,4.89,0.86,6.36-1.26
	C110.72,122.79,107.89,123.01,105.24,122.11z"/>
<path fill="#FDFEFD" d="M286.04,128.9c7.12-1.54,14.36-2.72,21.67-2.75c-0.08,0.61-0.239,1.82-0.319,2.42
	c0.319,0.1,0.959,0.29,1.289,0.38l1.58,0.5c-0.039,0.56-0.13,1.67-0.18,2.22c0.6,0.02,1.811,0.07,2.42,0.09
	c0.04,0.67,0.12,2.02,0.16,2.69c0.63,0.07,1.9,0.2,2.529,0.26c0.041,0.69,0.11,2.08,0.141,2.78c0.6,0,1.79,0,2.391,0
	c-0.051,0.7-0.16,2.09-0.211,2.79c0.561,0.07,1.67,0.22,2.23,0.29c0.55,1.45,1.49,2.63,2.869,3.37c-0.039,0.41-0.139,1.23-0.18,1.64
	c0.711,0.18,2.15,0.54,2.86,0.72c-0.05,0.58-0.149,1.75-0.2,2.341c0.68,0.02,2.04,0.069,2.721,0.09
	c-0.061,0.649-0.17,1.939-0.221,2.58c0.67,0.119,2.01,0.35,2.68,0.459c0.041,0.69,0.11,2.051,0.141,2.73
	c0.55-0.01,1.65-0.04,2.199-0.061c0.011,0.701,0.041,2.09,0.061,2.791c0.52,0.069,1.57,0.199,2.09,0.27
	c0.471,1.6,1.61,2.67,3.08,3.37c-0.1,0.46-0.32,1.37-0.42,1.819c0.7,0.061,2.12,0.181,2.82,0.24c0.01,0.68,0.029,2.041,0.039,2.721
	c0.58,0.02,1.74,0.039,2.32,0.06c0.021,0.64,0.08,1.931,0.11,2.569c0.67,0.121,2.021,0.341,2.7,0.451
	c-0.03,0.64-0.1,1.91-0.131,2.549c0.511,0.051,1.541,0.16,2.051,0.221c0.26,0.65,0.779,1.95,1.029,2.6
	c0.391,0.18,1.15,0.551,1.531,0.74c-4.74,3.641-8.82,8.12-13.82,11.43c-0.32-0.14-0.961-0.439-1.28-0.59
	c-1.36-1.55-2.03-3.76-3.979-4.709c-0.721-1.111-1.391-2.261-2.011-3.421c-0.569-0.069-1.69-0.21-2.26-0.28
	c0.04-0.649,0.11-1.949,0.14-2.6c-0.66-0.08-2-0.25-2.67-0.33c0.08-0.6,0.23-1.811,0.311-2.42c-0.561-0.07-1.67-0.21-2.221-0.29
	c-0.55-1.28-1.18-2.53-2.26-3.44c-1.47-1.379-2.699-2.989-3.811-4.67c-0.449-0.069-1.35-0.209-1.799-0.289
	c0.01-0.681,0.02-2.061,0.029-2.74c-0.65-0.051-1.93-0.141-2.57-0.19c-0.08-0.521-0.25-1.56-0.33-2.069
	c-1.35-0.771-2.33-1.91-3.01-3.271c-0.369-0.08-1.1-0.25-1.47-0.33c-0.351-1.479-1.31-2.56-2.56-3.351
	c-1.291-1.459-2.26-3.17-3.37-4.76c-0.41-0.049-1.25-0.14-1.66-0.18c-0.03-0.699-0.08-2.08-0.101-2.77
	c-0.709-0.06-2.129-0.16-2.83-0.21c0.021-0.51,0.051-1.53,0.07-2.04c-1.63-1.38-3.22-2.82-4.91-4.13c-0.01-0.45-0.02-1.35-0.02-1.79
	c-0.689-0.21-2.05-0.63-2.74-0.83c-0.01-0.41-0.039-1.22-0.06-1.63c-0.49-0.35-1.479-1.05-1.97-1.4
	C286.55,130.88,286.21,129.56,286.04,128.9z"/>
<path fill="#E3001B" d="M270.359,134.71c4.721-2.31,9.611-4.3,14.761-5.42c0.399,0.56,1.2,1.69,1.61,2.25
	c0.49,0.35,1.479,1.05,1.97,1.4c0.021,0.41,0.05,1.22,0.06,1.63c0.69,0.2,2.051,0.62,2.74,0.83c0,0.44,0.01,1.34,0.02,1.79
	c1.69,1.31,3.28,2.75,4.91,4.13c-0.02,0.51-0.05,1.53-0.07,2.04c0.701,0.05,2.121,0.15,2.83,0.21c0.021,0.69,0.07,2.071,0.101,2.77
	c0.41,0.04,1.25,0.131,1.66,0.18c1.11,1.59,2.079,3.301,3.37,4.76c1.25,0.791,2.209,1.871,2.56,3.351
	c0.37,0.08,1.101,0.25,1.47,0.33c0.68,1.36,1.66,2.5,3.01,3.271c0.08,0.51,0.25,1.549,0.33,2.069c0.641,0.05,1.92,0.14,2.57,0.19
	c-0.01,0.68-0.02,2.06-0.029,2.74c0.449,0.08,1.35,0.22,1.799,0.289c1.111,1.681,2.341,3.291,3.811,4.67
	c1.08,0.91,1.71,2.16,2.26,3.44c0.551,0.08,1.66,0.22,2.221,0.29c-0.08,0.609-0.23,1.82-0.311,2.42c0.67,0.08,2.01,0.25,2.67,0.33
	c-0.029,0.65-0.1,1.95-0.14,2.6c0.569,0.07,1.69,0.211,2.26,0.28c0.62,1.16,1.29,2.31,2.011,3.421
	c1.949,0.949,2.619,3.159,3.979,4.709c0.319,0.15,0.96,0.45,1.28,0.59c-3.68,3.59-8.08,6.271-12.16,9.36
	c-1.67-0.59-3.34-1.271-3.52-3.31c-0.461-0.051-1.371-0.15-1.83-0.2c0.01-0.5,0.029-1.5,0.039-2c-1.689-0.56-2.58-1.899-2.97-3.55
	c-0.521-0.021-1.55-0.07-2.06-0.09c-0.021-0.701-0.07-2.101-0.09-2.801c-0.66-0.09-1.971-0.26-2.631-0.34
	c-0.039-0.64-0.129-1.92-0.17-2.55c-0.55-0.021-1.65-0.05-2.199-0.069c0.029-0.65,0.069-1.951,0.09-2.601l-2.42-0.05
	c0.039-0.65,0.119-1.961,0.16-2.61c-0.66-0.09-1.98-0.25-2.65-0.34c-0.07-0.47-0.2-1.431-0.27-1.91
	c-1.41-0.91-2.42-2.229-3.201-3.681c-0.439,0.021-1.319,0.061-1.76,0.08c0.01-0.739,0.03-2.229,0.041-2.979
	c-0.691-0.04-2.061-0.12-2.74-0.159c0-0.65,0.01-1.951,0.01-2.611c-0.45-0.039-1.34-0.139-1.79-0.18
	c-0.32-1.76-1.62-2.74-3.14-3.439c0.02-0.461,0.039-1.381,0.049-1.84c-0.609-0.051-1.84-0.15-2.459-0.2
	c0.029-0.511,0.08-1.54,0.109-2.06c-1.689-0.621-2.859-1.791-3.22-3.591c-0.47-0.01-1.41-0.01-1.87-0.01
	c-0.02-0.71-0.061-2.12-0.08-2.819c-0.64-0.08-1.93-0.23-2.58-0.311c-0.029-0.631-0.1-1.9-0.13-2.54
	c-0.569-0.03-1.72-0.08-2.29-0.101c0.061-0.64,0.18-1.92,0.24-2.56c-0.71-0.04-2.141-0.13-2.85-0.181
	c0.029-0.659,0.09-1.989,0.119-2.649c-0.6-0.03-1.81-0.07-2.41-0.1c-0.029-0.66-0.09-1.98-0.119-2.64
	c-0.61-0.07-1.85-0.23-2.461-0.3c-0.109-0.82-0.34-2.45-0.449-3.27L270.359,134.71z"/>
<path fill="#FDFEFD" d="M254.15,146.971c4.869-4.641,10.42-8.571,16.26-11.901c0.109,0.82,0.34,2.45,0.449,3.27
	c0.611,0.07,1.851,0.23,2.461,0.3c0.029,0.66,0.09,1.98,0.119,2.64c0.601,0.03,1.811,0.07,2.41,0.1
	c-0.029,0.66-0.09,1.99-0.119,2.649c0.709,0.051,2.14,0.141,2.85,0.181c-0.061,0.64-0.18,1.92-0.24,2.56
	c0.57,0.021,1.721,0.07,2.29,0.101c0.03,0.64,0.101,1.909,0.13,2.54c0.65,0.08,1.94,0.23,2.58,0.311
	c0.02,0.699,0.061,2.109,0.08,2.819c0.46,0,1.4,0,1.87,0.01c0.36,1.8,1.53,2.97,3.22,3.591c-0.029,0.52-0.08,1.549-0.109,2.06
	c0.619,0.05,1.85,0.149,2.459,0.2c-0.01,0.459-0.029,1.379-0.049,1.84c1.52,0.699,2.819,1.68,3.14,3.439
	c0.45,0.041,1.34,0.141,1.79,0.18c0,0.66-0.01,1.961-0.01,2.611c0.68,0.039,2.049,0.119,2.74,0.159
	c-0.011,0.75-0.031,2.24-0.041,2.979c0.44-0.02,1.32-0.06,1.76-0.08c0.781,1.451,1.791,2.771,3.201,3.681
	c0.069,0.479,0.199,1.44,0.27,1.91c0.67,0.09,1.99,0.25,2.65,0.34c-0.041,0.649-0.121,1.96-0.16,2.61l2.42,0.05
	c-0.021,0.649-0.061,1.95-0.09,2.601c0.549,0.02,1.649,0.049,2.199,0.069c0.041,0.63,0.131,1.91,0.17,2.55
	c0.66,0.08,1.971,0.25,2.631,0.34c0.02,0.7,0.069,2.1,0.09,2.801c0.51,0.02,1.539,0.069,2.06,0.09c0.39,1.65,1.28,2.99,2.97,3.55
	c-0.01,0.5-0.029,1.5-0.039,2c0.459,0.05,1.369,0.149,1.83,0.2c0.18,2.039,1.85,2.72,3.52,3.31c-5.29,3.8-10.79,7.31-16.35,10.7
	c-0.041-0.45-0.121-1.359-0.16-1.82c-1.73-1.34-3.34-2.82-4.98-4.26c-0.01-0.33-0.01-1.01-0.02-1.35c-1.28-0.75-2.26-1.82-2.82-3.2
	c-0.52-0.16-1.54-0.49-2.051-0.66c-0.029-0.63-0.079-1.91-0.1-2.55c-0.689-0.02-2.06-0.061-2.75-0.08
	c0.061-0.65,0.18-1.971,0.25-2.631c-0.529-0.069-1.58-0.199-2.109-0.27c-1.01-1.869-2.34-3.539-3.62-5.22
	c-0.44-0.05-1.32-0.149-1.761-0.2c0.021-0.67,0.07-2.01,0.09-2.68c-0.719-0.051-2.149-0.16-2.869-0.221
	c0.04-0.68,0.13-2.049,0.17-2.729c-0.62-0.04-1.87-0.11-2.49-0.14c-0.02-0.7-0.04-2.1-0.05-2.801c-0.649-0.01-1.94-0.039-2.58-0.06
	c0.011-0.681,0.03-2.05,0.04-2.739c-0.5-0.011-1.5-0.051-2.01-0.061c-0.11-1.95-1.631-2.84-3.211-3.57
	c0.101-0.439,0.281-1.32,0.381-1.76c-0.62-0.04-1.86-0.109-2.48-0.141c-0.029-0.68-0.09-2.049-0.119-2.729
	c-0.381-0.05-1.15-0.16-1.541-0.22c-0.85-1.461-1.92-2.77-3.459-3.54c0.029-0.521,0.08-1.56,0.1-2.08c-0.73-0.05-2.2-0.17-2.93-0.22
	c0.069-0.641,0.209-1.93,0.279-2.57c-0.49-0.051-1.46-0.16-1.949-0.21c-0.541-1.53-1.641-2.67-2.971-3.53
	c-0.05-0.449-0.16-1.33-0.21-1.779c-0.54-0.021-1.61-0.061-2.149-0.08c-0.08-0.69-0.24-2.051-0.32-2.73
	C256.41,147.37,254.91,147.1,254.15,146.971z"/>
<path fill="#E3001B" d="M243.43,156.33c4.391-3.13,7.6-9.561,13.73-8.83c0.08,0.68,0.24,2.04,0.32,2.73
	c0.539,0.02,1.609,0.06,2.149,0.08c0.05,0.449,0.16,1.33,0.21,1.779c1.33,0.86,2.43,2,2.971,3.53c0.489,0.05,1.459,0.159,1.949,0.21
	c-0.07,0.641-0.21,1.93-0.279,2.57c0.729,0.05,2.199,0.17,2.93,0.22c-0.02,0.521-0.07,1.56-0.1,2.08
	c1.539,0.771,2.609,2.079,3.459,3.54c0.391,0.06,1.16,0.17,1.541,0.22c0.029,0.681,0.09,2.05,0.119,2.729
	c0.62,0.031,1.86,0.101,2.48,0.141c-0.1,0.439-0.28,1.32-0.381,1.76c1.58,0.73,3.101,1.62,3.211,3.57
	c0.51,0.01,1.51,0.05,2.01,0.061c-0.01,0.689-0.029,2.059-0.04,2.739c0.64,0.021,1.931,0.05,2.58,0.06
	c0.01,0.701,0.03,2.101,0.05,2.801c0.62,0.029,1.87,0.1,2.49,0.14c-0.04,0.681-0.13,2.05-0.17,2.729
	c0.72,0.061,2.15,0.17,2.869,0.221c-0.02,0.67-0.069,2.01-0.09,2.68c0.44,0.051,1.32,0.15,1.761,0.2
	c1.28,1.681,2.61,3.351,3.62,5.22c0.529,0.07,1.58,0.2,2.109,0.27c-0.07,0.66-0.189,1.98-0.25,2.631
	c0.69,0.02,2.061,0.061,2.75,0.08c0.021,0.64,0.07,1.92,0.1,2.55c0.511,0.17,1.531,0.5,2.051,0.66c0.561,1.38,1.54,2.45,2.82,3.2
	c0.01,0.34,0.01,1.02,0.02,1.35c1.641,1.439,3.25,2.92,4.98,4.26c0.039,0.461,0.119,1.37,0.16,1.82l0.02,0.279
	c-4.25,2.141-8.38,4.5-12.471,6.931l-0.399-0.13c-0.69-0.221-2.069-0.67-2.76-0.891c-1.181-1.789-2.5-3.479-3.761-5.209
	c-0.41-0.031-1.229-0.09-1.64-0.121c0-0.68,0-2.039,0-2.719c-0.46-0.051-1.38-0.16-1.84-0.211c-0.681-1.52-1.5-2.99-3.271-3.38
	c-0.01-0.55-0.039-1.63-0.06-2.17c-0.67-0.08-2.021-0.239-2.69-0.319c0.021-0.611,0.061-1.841,0.08-2.451
	c-0.479-0.049-1.43-0.149-1.91-0.199c-0.27-1.78-1.609-2.77-3.08-3.551c-0.01-0.31-0.029-0.93-0.039-1.239c-1.02-0.99-1.99-2-3-2.99
	c-0.29-0.229-0.87-0.7-1.17-0.931c0.029-0.43,0.09-1.279,0.119-1.709l-0.779-0.291c-0.67-0.219-2.01-0.67-2.68-0.889
	c0.049-0.611,0.16-1.83,0.22-2.44c-0.72-0.05-2.15-0.15-2.86-0.2c0.051-0.641,0.141-1.92,0.18-2.55
	c-0.59-0.06-1.779-0.171-2.369-0.229c0-0.441,0-1.32,0-1.771c-1.43-0.851-2.621-1.96-3.16-3.57c-0.461-0.03-1.37-0.101-1.82-0.13
	c-0.02-0.68-0.05-2.04-0.07-2.721c-0.66-0.059-1.979-0.199-2.64-0.26c0-0.699-0.01-2.1-0.021-2.789
	c-0.6-0.021-1.799-0.041-2.399-0.061c0-0.66,0.021-1.99,0.021-2.65c-0.69-0.069-2.09-0.209-2.781-0.289
	c0.041-0.44,0.121-1.34,0.16-1.78c-1.33-0.671-2.42-1.601-2.719-3.11c-0.73-0.38-1.451-0.75-2.16-1.14
	c-0.08-0.47-0.25-1.4-0.34-1.87L243.43,156.33z"/>
<path fill="#FDFEFD" d="M232.23,169.13c3.729-4.2,7.229-8.61,11.24-12.55c0.09,0.47,0.26,1.4,0.34,1.87
	c0.709,0.39,1.43,0.76,2.16,1.14c0.299,1.51,1.389,2.439,2.719,3.11c-0.039,0.44-0.119,1.34-0.16,1.78
	c0.691,0.08,2.091,0.22,2.781,0.289c0,0.66-0.021,1.99-0.021,2.65c0.601,0.02,1.8,0.04,2.399,0.061
	c0.011,0.689,0.021,2.09,0.021,2.789c0.66,0.061,1.979,0.201,2.64,0.26c0.021,0.681,0.051,2.041,0.07,2.721
	c0.45,0.029,1.359,0.1,1.82,0.13c0.539,1.61,1.73,2.72,3.16,3.57c0,0.45,0,1.329,0,1.771c0.59,0.059,1.779,0.17,2.369,0.229
	c-0.039,0.63-0.129,1.909-0.18,2.55c0.71,0.05,2.141,0.15,2.86,0.2c-0.06,0.61-0.171,1.829-0.22,2.44
	c0.67,0.219,2.01,0.67,2.68,0.889c0.17,0.5,0.5,1.5,0.66,2c0.3,0.23,0.88,0.701,1.17,0.931c1.01,0.99,1.98,2,3,2.99
	c0.01,0.31,0.029,0.93,0.039,1.239c1.471,0.781,2.811,1.771,3.08,3.551c0.48,0.05,1.431,0.15,1.91,0.199
	c-0.02,0.61-0.06,1.84-0.08,2.451c0.67,0.08,2.021,0.239,2.69,0.319c0.021,0.54,0.05,1.62,0.06,2.17
	c1.771,0.39,2.59,1.86,3.271,3.38c0.46,0.051,1.38,0.16,1.84,0.211c0,0.68,0,2.039,0,2.719c0.41,0.031,1.229,0.09,1.64,0.121
	c1.261,1.729,2.58,3.42,3.761,5.209c0.69,0.221,2.069,0.67,2.76,0.891c-4.91,3.76-11.42,4.54-16.38,8.119
	c-1.311,0.201-2.641,0.261-3.95,0.23c0.42-0.8,0.86-1.6,1.32-2.38c-1.54-0.69-2.58-1.87-2.94-3.5c-0.619-0.11-1.85-0.33-2.47-0.44
	c0.11-0.64,0.34-1.92,0.45-2.56c-0.52-0.01-1.57-0.021-2.09-0.03c-0.461-1.68-1.51-2.93-3.09-3.64
	c-0.011-0.45-0.021-1.351-0.031-1.8c-0.569-0.02-1.719-0.051-2.299-0.061c0.01-0.699,0.039-2.1,0.049-2.8
	c-0.709-0.05-2.119-0.159-2.829-0.21c0-0.68,0-2.04,0-2.72c-0.57-0.04-1.7-0.14-2.271-0.19c-0.15-0.709-0.449-2.13-0.6-2.84
	c-0.53,0.02-1.6,0.051-2.13,0.07c0.021-0.68,0.06-2.03,0.079-2.71c-0.689-0.06-2.079-0.171-2.77-0.229
	c0.01-0.471,0.051-1.421,0.061-1.891c-1.32-0.801-2.471-1.811-2.971-3.311c-0.51-0.08-1.52-0.229-2.029-0.31
	c-0.03-0.7-0.08-2.11-0.11-2.81c-0.54,0.029-1.64,0.08-2.181,0.1c-0.01-0.689-0.029-2.09-0.039-2.79
	c-0.711-0.101-2.12-0.3-2.82-0.399c0.051-0.631,0.15-1.9,0.2-2.541c-0.64-0.02-1.931-0.06-2.57-0.08c0-0.67,0-2.029,0-2.699
	c-0.659-0.08-1.96-0.24-2.61-0.311c0.021-0.59,0.08-1.77,0.11-2.359c-0.61-0.041-1.819-0.12-2.42-0.16
	c0.04-0.6,0.13-1.801,0.181-2.4c-0.69-0.22-2.07-0.65-2.761-0.859C232.62,171.641,232.43,170.38,232.23,169.13z"/>
<path fill="#E3001B" d="M230.189,172.061c0.86,0.279,1.73,0.56,2.61,0.84c0.69,0.209,2.07,0.64,2.761,0.859
	c-0.051,0.6-0.141,1.801-0.181,2.4c0.601,0.04,1.81,0.119,2.42,0.16c-0.03,0.59-0.09,1.77-0.11,2.359
	c0.65,0.07,1.951,0.23,2.61,0.311c0,0.67,0,2.029,0,2.699c0.64,0.021,1.931,0.061,2.57,0.08c-0.05,0.641-0.149,1.91-0.2,2.541
	c0.7,0.1,2.109,0.299,2.82,0.399c0.01,0.7,0.029,2.101,0.039,2.79c0.541-0.02,1.641-0.07,2.181-0.1c0.03,0.699,0.08,2.109,0.11,2.81
	c0.51,0.08,1.52,0.229,2.029,0.31c0.5,1.5,1.65,2.51,2.971,3.311c-0.01,0.47-0.051,1.42-0.061,1.891
	c0.69,0.059,2.08,0.17,2.77,0.229c-0.02,0.68-0.059,2.03-0.079,2.71c0.53-0.02,1.6-0.051,2.13-0.07c0.15,0.71,0.449,2.131,0.6,2.84
	c0.57,0.051,1.7,0.15,2.271,0.19c0,0.68,0,2.04,0,2.72c0.71,0.051,2.12,0.16,2.829,0.21c-0.01,0.7-0.039,2.101-0.049,2.8
	c0.58,0.01,1.729,0.041,2.299,0.061c0.011,0.449,0.021,1.35,0.031,1.8c1.58,0.71,2.629,1.96,3.09,3.64
	c0.52,0.01,1.57,0.021,2.09,0.03c-0.11,0.64-0.34,1.92-0.45,2.56c0.62,0.11,1.851,0.33,2.47,0.44c0.36,1.63,1.4,2.81,2.94,3.5
	c-0.46,0.78-0.9,1.58-1.32,2.38l-0.2,0.37c-18.24,6.63-37.459,10.181-56.67,12.66c-14.4,1.76-28.94,2.53-43.44,1.96
	c4.6-2.439,9.2-5.04,12.9-8.76c2.31-2.09,3.8-4.87,5.96-7.08c2.41-1.96,5.38-3.189,7.52-5.5c7.26-7.71,11.989-17.28,17.81-26.04
	C221.891,183.37,225.891,177.6,230.189,172.061z"/>
<path fill="#613626" d="M268.91,185.029l0.779,0.291c-0.029,0.43-0.09,1.279-0.119,1.709
	C269.41,186.529,269.08,185.529,268.91,185.029z"/>
<g>
	<g>
		<defs>
			<rect id="SVGID_1_" x="-39.743" y="-10.509" width="298.678" height="195.621"/>
		</defs>
		<clipPath id="SVGID_2_">
			<use xlink:href="#SVGID_1_"  overflow="visible"/>
		</clipPath>
		<g clip-path="url(#SVGID_2_)">
			<defs>
				<rect id="SVGID_3_" x="-39.743" y="-10.509" width="298.678" height="195.621"/>
			</defs>
			<clipPath id="SVGID_4_">
				<use xlink:href="#SVGID_3_"  overflow="visible"/>
			</clipPath>
			<g clip-path="url(#SVGID_4_)">
				<defs>
					<rect id="SVGID_5_" x="-39.743" y="-10.509" width="298.678" height="195.621"/>
				</defs>
				<clipPath id="SVGID_6_">
					<use xlink:href="#SVGID_5_"  overflow="visible"/>
				</clipPath>
				<path clip-path="url(#SVGID_6_)" fill="#003E60" d="M159.717,30.14c0,0-3.814,7.983-10.736,7.344
					c-6.922-0.639-14.505-6.599-38.543-6.599s-35.199,8.256-40.991,7.374c-5.792-0.881-10.454-6.416-10.454-6.416
					s14.993-14.47,51.445-14.476C146.89,17.361,159.717,30.14,159.717,30.14"/>
				<g opacity="0.8" clip-path="url(#SVGID_6_)">
					<g>
						<defs>
							<rect id="SVGID_7_" x="46.729" y="7.126" width="125.425" height="41.451"/>
						</defs>
						<clipPath id="SVGID_8_">
							<use xlink:href="#SVGID_7_"  overflow="visible"/>
						</clipPath>
						<g clip-path="url(#SVGID_8_)">
							<defs>
								<rect id="SVGID_9_" x="46.729" y="7.126" width="125.425" height="41.451"/>
							</defs>
							<clipPath id="SVGID_10_">
								<use xlink:href="#SVGID_9_"  overflow="visible"/>
							</clipPath>
							<g transform="matrix(1 0 0 1 0 0)" clip-path="url(#SVGID_10_)">
								
									<image overflow="visible" width="257" height="114" xlink:href="95FACAE.png"  transform="matrix(-0.488 0 0 0.3636 172.1543 7.126)">
								</image>
							</g>
						</g>
					</g>
				</g>
			</g>
			<g clip-path="url(#SVGID_4_)">
				<defs>
					<path id="SVGID_11_" d="M185.768,65.462h-4.078c0,0,1.374-44.872-71.613-47c0,0-67.219-0.604-71.778,46.265l-3.906,0.734
						c0,0-1.901-53.279,79.79-53.279C114.182,12.183,185.768,13.472,185.768,65.462"/>
				</defs>
				<clipPath id="SVGID_12_">
					<use xlink:href="#SVGID_11_"  overflow="visible"/>
				</clipPath>
				
					<linearGradient id="SVGID_13_" gradientUnits="userSpaceOnUse" x1="-191.6338" y1="-158.9292" x2="-191.1458" y2="-158.9292" gradientTransform="matrix(-310.1807 0 0 -310.1807 -59255.3516 -49258.0156)">
					<stop  offset="0" style="stop-color:#808285"/>
					<stop  offset="0.4847" style="stop-color:#D1D3D4"/>
					<stop  offset="1" style="stop-color:#808285"/>
				</linearGradient>
				<rect x="32.491" y="12.183" clip-path="url(#SVGID_12_)" fill="url(#SVGID_13_)" width="153.276" height="53.279"/>
			</g>
			<g clip-path="url(#SVGID_4_)">
				<defs>
					<rect id="SVGID_14_" x="-39.743" y="-10.509" width="298.678" height="195.621"/>
				</defs>
				<clipPath id="SVGID_15_">
					<use xlink:href="#SVGID_14_"  overflow="visible"/>
				</clipPath>
				<path clip-path="url(#SVGID_15_)" fill="#6D6E71" d="M182.65,65.432c0,0,0.987-46.006-72.212-48.561
					c0,0-67.92-0.599-72.14,47.856c0,0,1.475-43.925,71.056-46.016c0,0,68.21-1.935,72.166,46.72H182.65z"/>
			</g>
			<g clip-path="url(#SVGID_4_)">
				<defs>
					<path id="SVGID_16_" d="M185.346,64.209l-1.936-0.524c0,0-3.061-23.346-22.893-34.19
						C160.518,29.494,180.65,39.367,185.346,64.209"/>
				</defs>
				<clipPath id="SVGID_17_">
					<use xlink:href="#SVGID_16_"  overflow="visible"/>
				</clipPath>
				
					<linearGradient id="SVGID_18_" gradientUnits="userSpaceOnUse" x1="-187.2139" y1="-168.4746" x2="-186.7261" y2="-168.4746" gradientTransform="matrix(-50.873 0 0 -50.873 -9338.8047 -8523.9492)">
					<stop  offset="0" style="stop-color:#BCBEC0"/>
					<stop  offset="1" style="stop-color:#FFFFFF"/>
				</linearGradient>
				<rect x="160.518" y="29.494" clip-path="url(#SVGID_17_)" fill="url(#SVGID_18_)" width="24.828" height="34.715"/>
			</g>
			<g clip-path="url(#SVGID_4_)">
				<defs>
					<path id="SVGID_19_" d="M113.936,11.993c0,0,26.075,0.508,43.856,11.129c0,0-46.12-21.998-97.753,1.336
						c0,0,18.277-12.466,53.161-12.467C113.445,11.991,113.688,11.992,113.936,11.993"/>
				</defs>
				<clipPath id="SVGID_20_">
					<use xlink:href="#SVGID_19_"  overflow="visible"/>
				</clipPath>
				
					<linearGradient id="SVGID_21_" gradientUnits="userSpaceOnUse" x1="-192.2725" y1="-160.1357" x2="-191.7769" y2="-160.1357" gradientTransform="matrix(200.2983 0 0 -200.2983 38571.875 -32062.3047)">
					<stop  offset="0" style="stop-color:#BCBEC0"/>
					<stop  offset="0.4847" style="stop-color:#FFFFFF"/>
					<stop  offset="1" style="stop-color:#BCBEC0"/>
				</linearGradient>
				<polygon clip-path="url(#SVGID_20_)" fill="url(#SVGID_21_)" points="61.49,1.125 159.243,1.125 60.039,24.458 157.792,24.458 
									"/>
			</g>
			<g clip-path="url(#SVGID_4_)">
				<defs>
					<path id="SVGID_22_" d="M183.531,72.964c2.571,0.426,3.047,0.922,3.047,0.922s-16.286,60.457-16.286,63.011
						c0,0-7.716-0.21-7.43-3.12c0.285-2.91,14.477-57.834,15.524-59.395c0.764-1.138,1.781-1.597,3.273-1.597
						C182.216,72.785,182.836,72.849,183.531,72.964"/>
				</defs>
				<clipPath id="SVGID_23_">
					<use xlink:href="#SVGID_22_"  overflow="visible"/>
				</clipPath>
				
					<linearGradient id="SVGID_24_" gradientUnits="userSpaceOnUse" x1="-195.1494" y1="-157.2676" x2="-194.5076" y2="-157.2676" gradientTransform="matrix(-57.5073 -167.0133 167.0133 -57.5073 15159.6406 -41473.5547)">
					<stop  offset="0" style="stop-color:#414042"/>
					<stop  offset="0.1227" style="stop-color:#FFFFFF"/>
					<stop  offset="0.3313" style="stop-color:#939598"/>
					<stop  offset="0.3461" style="stop-color:#A9ABAD"/>
					<stop  offset="0.3688" style="stop-color:#C4C5C6"/>
					<stop  offset="0.3949" style="stop-color:#DADADB"/>
					<stop  offset="0.4254" style="stop-color:#EBEBEB"/>
					<stop  offset="0.463" style="stop-color:#F6F6F7"/>
					<stop  offset="0.5159" style="stop-color:#FDFDFD"/>
					<stop  offset="0.6626" style="stop-color:#FFFFFF"/>
					<stop  offset="0.7304" style="stop-color:#FCFCFC"/>
					<stop  offset="0.7763" style="stop-color:#F3F3F4"/>
					<stop  offset="0.8157" style="stop-color:#E4E5E5"/>
					<stop  offset="0.8514" style="stop-color:#CFCFD1"/>
					<stop  offset="0.8844" style="stop-color:#B3B4B7"/>
					<stop  offset="0.9141" style="stop-color:#939598"/>
					<stop  offset="0.9507" style="stop-color:#919396"/>
					<stop  offset="0.9638" style="stop-color:#8B8C8F"/>
					<stop  offset="0.9732" style="stop-color:#7F8184"/>
					<stop  offset="0.9808" style="stop-color:#6F7073"/>
					<stop  offset="0.9872" style="stop-color:#5A5B5D"/>
					<stop  offset="0.9877" style="stop-color:#58595B"/>
					<stop  offset="1" style="stop-color:#58595B"/>
				</linearGradient>
				<polygon clip-path="url(#SVGID_23_)" fill="url(#SVGID_24_)" points="136.088,130.101 165.121,67.28 6.214,79.581 
					184.035,142.402 				"/>
			</g>
			<g clip-path="url(#SVGID_4_)">
				<defs>
					<path id="SVGID_25_" d="M191.434,108.018c0,0-6.284,20.79-21.141,28.879c0,0,15.236-60.313,16.286-63.011
						C186.579,73.886,197.34,84.602,191.434,108.018"/>
				</defs>
				<clipPath id="SVGID_26_">
					<use xlink:href="#SVGID_25_"  overflow="visible"/>
				</clipPath>
				
					<linearGradient id="SVGID_27_" gradientUnits="userSpaceOnUse" x1="-197.8848" y1="-167.2598" x2="-197.3968" y2="-167.2598" gradientTransform="matrix(46.9502 0 0 -46.9502 9460.9941 -7747.4551)">
					<stop  offset="0" style="stop-color:#BCBEC0"/>
					<stop  offset="0.4847" style="stop-color:#FFFFFF"/>
					<stop  offset="1" style="stop-color:#6D6E71"/>
				</linearGradient>
				<rect x="170.293" y="73.886" clip-path="url(#SVGID_26_)" fill="url(#SVGID_27_)" width="27.047" height="63.011"/>
			</g>
			<g clip-path="url(#SVGID_4_)">
				<defs>
					<rect id="SVGID_28_" x="-39.743" y="-10.509" width="298.678" height="195.621"/>
				</defs>
				<clipPath id="SVGID_29_">
					<use xlink:href="#SVGID_28_"  overflow="visible"/>
				</clipPath>
				<path clip-path="url(#SVGID_29_)" fill="#D1D3D4" d="M187.774,103.865c0,0-1.104-12.735-4.817-16.568l-11.408,44.636
					c0,0,10.475-6.593,13.182-11.777C184.73,120.155,187.258,105.902,187.774,103.865"/>
				<path clip-path="url(#SVGID_29_)" fill="#FFFFFF" d="M181.747,120.151l-7.552,6.458c0,0-3.015,4.03-1.602,4.64
					c0,0,11.127-8.971,12.27-12.02l0.287-2.199L181.747,120.151z"/>
				<path clip-path="url(#SVGID_29_)" fill="#003E60" d="M185.913,75.243l-11.954-3.414c0,0-7.714-2.131-9.143,3.121
					c-1.43,5.252-13.24,49.812-13.24,49.812s-2.001,7.664,8,8.019c10,0.355,10.716,4.115,10.716,4.115L185.913,75.243z"/>
				<g opacity="0.3" clip-path="url(#SVGID_29_)">
					<g>
						<defs>
							<rect id="SVGID_30_" x="137.504" y="60.212" width="55.637" height="44.361"/>
						</defs>
						<clipPath id="SVGID_31_">
							<use xlink:href="#SVGID_30_"  overflow="visible"/>
						</clipPath>
						<g clip-path="url(#SVGID_31_)">
							<defs>
								<rect id="SVGID_32_" x="137.504" y="60.212" width="55.637" height="44.361"/>
							</defs>
							<clipPath id="SVGID_33_">
								<use xlink:href="#SVGID_32_"  overflow="visible"/>
							</clipPath>
						</g>
					</g>
				</g>
				<g opacity="0.3" clip-path="url(#SVGID_29_)">
					<g>
						<defs>
							<rect id="SVGID_34_" x="127.743" y="107.481" width="52.708" height="36.725"/>
						</defs>
						<clipPath id="SVGID_35_">
							<use xlink:href="#SVGID_34_"  overflow="visible"/>
						</clipPath>
						<g clip-path="url(#SVGID_35_)">
							<defs>
								<rect id="SVGID_36_" x="127.743" y="107.481" width="52.708" height="36.725"/>
							</defs>
							<clipPath id="SVGID_37_">
								<use xlink:href="#SVGID_36_"  overflow="visible"/>
							</clipPath>
						</g>
					</g>
				</g>
				<path clip-path="url(#SVGID_29_)" fill="#E85605" d="M191.436,108.018c2.057-8.166,2.07-14.751,1.238-19.912
					c-1.955,4.962-3.891,11.263-5.475,18.191c-1.383,6.046-2.302,11.706-2.755,16.483
					C189.256,115.21,191.436,108.018,191.436,108.018"/>
			</g>
			<g clip-path="url(#SVGID_4_)">
				<defs>
					<path id="SVGID_38_" d="M185.15,119.441c0,0,0.57-2.501,0.643-3.034l3.721-3.301
						C189.514,113.106,186.885,117.538,185.15,119.441"/>
				</defs>
				<clipPath id="SVGID_39_">
					<use xlink:href="#SVGID_38_"  overflow="visible"/>
				</clipPath>
				
					<linearGradient id="SVGID_40_" gradientUnits="userSpaceOnUse" x1="-222.5225" y1="-208.7451" x2="-222.0347" y2="-208.7451" gradientTransform="matrix(8.9424 0 0 -8.9424 2175.04 -1750.4104)">
					<stop  offset="0" style="stop-color:#FFFFFF"/>
					<stop  offset="0.1767" style="stop-color:#F1C4DF"/>
					<stop  offset="0.4009" style="stop-color:#E17FBA"/>
					<stop  offset="0.6035" style="stop-color:#D5489C"/>
					<stop  offset="0.7772" style="stop-color:#CC2187"/>
					<stop  offset="0.9151" style="stop-color:#C6097A"/>
					<stop  offset="1" style="stop-color:#C40075"/>
				</linearGradient>
				<rect x="185.15" y="113.106" clip-path="url(#SVGID_39_)" fill="url(#SVGID_40_)" width="4.364" height="6.335"/>
			</g>
			<g clip-path="url(#SVGID_4_)">
				<defs>
					<rect id="SVGID_41_" x="-39.743" y="-10.509" width="298.678" height="195.621"/>
				</defs>
				<clipPath id="SVGID_42_">
					<use xlink:href="#SVGID_41_"  overflow="visible"/>
				</clipPath>
				<path clip-path="url(#SVGID_42_)" fill="#CC6600" d="M186.374,74.146c0,0,1.523-6.565,0.475-8.694
					c-1.045-2.129-6.495-3.05-6.534-0.354c-0.037,2.696,0,8.617,0,8.617S182.945,73.333,186.374,74.146"/>
			</g>
			<g clip-path="url(#SVGID_4_)">
				<defs>
					<path id="SVGID_43_" d="M37.119,64.069l-1.934,0.523c4.695-24.842,24.828-34.715,24.828-34.715
						C40.181,40.722,37.119,64.069,37.119,64.069"/>
				</defs>
				<clipPath id="SVGID_44_">
					<use xlink:href="#SVGID_43_"  overflow="visible"/>
				</clipPath>
				
					<linearGradient id="SVGID_45_" gradientUnits="userSpaceOnUse" x1="-194.6729" y1="-168.4604" x2="-194.1846" y2="-168.4604" gradientTransform="matrix(50.873 0 0 -50.873 9938.8047 -8522.8555)">
					<stop  offset="0" style="stop-color:#BCBEC0"/>
					<stop  offset="1" style="stop-color:#FFFFFF"/>
				</linearGradient>
				<rect x="35.185" y="29.877" clip-path="url(#SVGID_44_)" fill="url(#SVGID_45_)" width="24.828" height="34.715"/>
			</g>
			<g clip-path="url(#SVGID_4_)">
				<defs>
					<path id="SVGID_46_" d="M40.894,75.394c1.047,1.561,15.239,56.482,15.526,59.393c0.285,2.91-7.429,3.121-7.429,3.121
						c0-2.553-16.287-63.01-16.287-63.01s0.476-0.498,3.047-0.924c0.696-0.115,1.315-0.178,1.87-0.178
						C39.113,73.796,40.13,74.255,40.894,75.394"/>
				</defs>
				<clipPath id="SVGID_47_">
					<use xlink:href="#SVGID_46_"  overflow="visible"/>
				</clipPath>
				
					<linearGradient id="SVGID_48_" gradientUnits="userSpaceOnUse" x1="-195.1519" y1="-157.2197" x2="-194.51" y2="-157.2197" gradientTransform="matrix(57.5071 -167.0128 -167.0128 -57.5071 -14932.3906 -41470.0469)">
					<stop  offset="0" style="stop-color:#414042"/>
					<stop  offset="0.1227" style="stop-color:#FFFFFF"/>
					<stop  offset="0.3313" style="stop-color:#939598"/>
					<stop  offset="0.3461" style="stop-color:#A9ABAD"/>
					<stop  offset="0.3688" style="stop-color:#C4C5C6"/>
					<stop  offset="0.3949" style="stop-color:#DADADB"/>
					<stop  offset="0.4254" style="stop-color:#EBEBEB"/>
					<stop  offset="0.463" style="stop-color:#F6F6F7"/>
					<stop  offset="0.5159" style="stop-color:#FDFDFD"/>
					<stop  offset="0.6626" style="stop-color:#FFFFFF"/>
					<stop  offset="0.7304" style="stop-color:#FCFCFC"/>
					<stop  offset="0.7763" style="stop-color:#F3F3F4"/>
					<stop  offset="0.8157" style="stop-color:#E4E5E5"/>
					<stop  offset="0.8514" style="stop-color:#CFCFD1"/>
					<stop  offset="0.8844" style="stop-color:#B3B4B7"/>
					<stop  offset="0.9141" style="stop-color:#939598"/>
					<stop  offset="0.9507" style="stop-color:#919396"/>
					<stop  offset="0.9638" style="stop-color:#8B8C8F"/>
					<stop  offset="0.9732" style="stop-color:#7F8184"/>
					<stop  offset="0.9808" style="stop-color:#6F7073"/>
					<stop  offset="0.9872" style="stop-color:#5A5B5D"/>
					<stop  offset="0.9877" style="stop-color:#58595B"/>
					<stop  offset="1" style="stop-color:#58595B"/>
				</linearGradient>
				<polygon clip-path="url(#SVGID_47_)" fill="url(#SVGID_48_)" points="83.194,131.113 54.161,68.292 213.066,80.591 
					35.248,143.413 				"/>
			</g>
			<g clip-path="url(#SVGID_4_)">
				<defs>
					<path id="SVGID_49_" d="M48.991,137.907c-14.857-8.088-21.144-28.879-21.144-28.879c-5.904-23.416,4.857-34.131,4.857-34.131
						C33.753,77.593,48.991,137.907,48.991,137.907"/>
				</defs>
				<clipPath id="SVGID_50_">
					<use xlink:href="#SVGID_49_"  overflow="visible"/>
				</clipPath>
				
					<linearGradient id="SVGID_51_" gradientUnits="userSpaceOnUse" x1="-189.8281" y1="-167.2217" x2="-189.3399" y2="-167.2217" gradientTransform="matrix(-46.9502 0 0 -46.9502 -8863.4316 -7744.6738)">
					<stop  offset="0" style="stop-color:#BCBEC0"/>
					<stop  offset="0.4847" style="stop-color:#FFFFFF"/>
					<stop  offset="1" style="stop-color:#6D6E71"/>
				</linearGradient>
				<rect x="21.942" y="74.897" clip-path="url(#SVGID_50_)" fill="url(#SVGID_51_)" width="27.048" height="63.01"/>
			</g>
			<g clip-path="url(#SVGID_4_)">
				<defs>
					<rect id="SVGID_52_" x="-39.743" y="-10.509" width="298.678" height="195.621"/>
				</defs>
				<clipPath id="SVGID_53_">
					<use xlink:href="#SVGID_52_"  overflow="visible"/>
				</clipPath>
				<path clip-path="url(#SVGID_53_)" fill="#D1D3D4" d="M31.508,104.876c0,0,1.105-12.736,4.816-16.568l11.41,44.636
					c0,0-10.477-6.593-13.182-11.776C34.552,121.167,32.024,106.913,31.508,104.876"/>
				<path clip-path="url(#SVGID_53_)" fill="#FFFFFF" d="M37.535,121.163l7.552,6.457c0,0,3.016,4.031,1.603,4.64
					c0,0-11.127-8.97-12.271-12.02l-0.285-2.198L37.535,121.163z"/>
				<path clip-path="url(#SVGID_53_)" fill="#003E60" d="M33.37,76.255l11.953-3.416c0,0,7.715-2.129,9.144,3.123
					c1.428,5.25,13.239,49.813,13.239,49.813s2,7.661-8,8.017c-10,0.355-10.715,4.115-10.715,4.115L33.37,76.255z"/>
				<g opacity="0.3" clip-path="url(#SVGID_53_)">
					<g>
						<defs>
							<rect id="SVGID_54_" x="26.231" y="61.304" width="55.148" height="44.36"/>
						</defs>
						<clipPath id="SVGID_55_">
							<use xlink:href="#SVGID_54_"  overflow="visible"/>
						</clipPath>
						<g clip-path="url(#SVGID_55_)">
							<defs>
								<rect id="SVGID_56_" x="26.231" y="61.304" width="55.148" height="44.36"/>
							</defs>
							<clipPath id="SVGID_57_">
								<use xlink:href="#SVGID_56_"  overflow="visible"/>
							</clipPath>
						</g>
					</g>
				</g>
				<g opacity="0.3" clip-path="url(#SVGID_53_)">
					<g>
						<defs>
							<rect id="SVGID_58_" x="38.432" y="108.573" width="53.197" height="36.361"/>
						</defs>
						<clipPath id="SVGID_59_">
							<use xlink:href="#SVGID_58_"  overflow="visible"/>
						</clipPath>
						<g clip-path="url(#SVGID_59_)">
							<defs>
								<rect id="SVGID_60_" x="38.432" y="108.573" width="53.197" height="36.361"/>
							</defs>
							<clipPath id="SVGID_61_">
								<use xlink:href="#SVGID_60_"  overflow="visible"/>
							</clipPath>
						</g>
					</g>
				</g>
				<path clip-path="url(#SVGID_53_)" fill="#E85605" d="M27.847,109.028c-2.058-8.166-2.071-14.751-1.239-19.912
					c1.956,4.963,3.89,11.262,5.476,18.191c1.382,6.045,2.301,11.707,2.754,16.483C30.026,116.222,27.847,109.028,27.847,109.028"/>
			</g>
			<g clip-path="url(#SVGID_4_)">
				<defs>
					<path id="SVGID_62_" d="M33.49,117.419c0.071,0.533,0.644,3.033,0.644,3.033c-1.734-1.902-4.365-6.334-4.365-6.334
						L33.49,117.419z"/>
				</defs>
				<clipPath id="SVGID_63_">
					<use xlink:href="#SVGID_62_"  overflow="visible"/>
				</clipPath>
				
					<linearGradient id="SVGID_64_" gradientUnits="userSpaceOnUse" x1="-180.2231" y1="-208.5469" x2="-179.7349" y2="-208.5469" gradientTransform="matrix(-8.9424 0 0 -8.9424 -1577.493 -1747.6292)">
					<stop  offset="0" style="stop-color:#FFFFFF"/>
					<stop  offset="0.1767" style="stop-color:#F1C4DF"/>
					<stop  offset="0.4009" style="stop-color:#E17FBA"/>
					<stop  offset="0.6035" style="stop-color:#D5489C"/>
					<stop  offset="0.7772" style="stop-color:#CC2187"/>
					<stop  offset="0.9151" style="stop-color:#C6097A"/>
					<stop  offset="1" style="stop-color:#C40075"/>
				</linearGradient>
				<rect x="29.769" y="114.118" clip-path="url(#SVGID_63_)" fill="url(#SVGID_64_)" width="4.365" height="6.334"/>
			</g>
			<g clip-path="url(#SVGID_4_)">
				<defs>
					<rect id="SVGID_65_" x="-39.743" y="-10.509" width="298.678" height="195.621"/>
				</defs>
				<clipPath id="SVGID_66_">
					<use xlink:href="#SVGID_65_"  overflow="visible"/>
				</clipPath>
				<path clip-path="url(#SVGID_66_)" fill="#CC6600" d="M33.561,74.651c0,0-1.522-6.566-0.475-8.695
					c1.047-2.129,6.496-3.051,6.534-0.354c0.038,2.695,0,8.615,0,8.615S36.99,73.837,33.561,74.651"/>
			</g>
			<g clip-path="url(#SVGID_4_)">
				<defs>
					<path id="SVGID_67_" d="M36.31,67.164c-0.666,1.239,0.142,5.249,0.142,5.249s-1.555,1.109-2.471,0c0,0-1.547-6.039,1.204-6.832
						c0.634-0.184,1.071-0.264,1.36-0.264C37.508,65.317,36.822,66.21,36.31,67.164"/>
				</defs>
				<clipPath id="SVGID_68_">
					<use xlink:href="#SVGID_67_"  overflow="visible"/>
				</clipPath>
				<rect x="32.434" y="65.317" clip-path="url(#SVGID_68_)" fill="#D87203" width="5.075" height="8.205"/>
			</g>
			<g clip-path="url(#SVGID_4_)">
				<defs>
					<path id="SVGID_69_" d="M184.547,65.581c2.75,0.793,1.203,6.832,1.203,6.832c-0.915,1.109-2.47,0-2.47,0
						s0.808-4.01,0.142-5.249c-0.512-0.954-1.197-1.847-0.235-1.847C183.475,65.317,183.912,65.397,184.547,65.581"/>
				</defs>
				<clipPath id="SVGID_70_">
					<use xlink:href="#SVGID_69_"  overflow="visible"/>
				</clipPath>
				<rect x="182.225" y="65.317" clip-path="url(#SVGID_70_)" fill="#D87203" width="5.073" height="8.205"/>
			</g>
		</g>
	</g>
</g>
</svg>
