<?xml version="1.0" encoding="utf-8"?>
<!-- Generator: Adobe Illustrator 15.0.2, SVG Export Plug-In . SVG Version: 6.00 Build 0)  -->
<!DOCTYPE svg PUBLIC "-//W3C//DTD SVG 1.1//EN" "http://www.w3.org/Graphics/SVG/1.1/DTD/svg11.dtd">
<svg version="1.1" id="Layer_1" xmlns="http://www.w3.org/2000/svg" xmlns:xlink="http://www.w3.org/1999/xlink" x="0px" y="0px"
	 width="233.834px" height="233.83px" viewBox="0 -0.248 233.834 233.83" enable-background="new 0 -0.248 233.834 233.83"
	 xml:space="preserve">
<path d="M0,0h233.834v233.582H0V0z"/>
<path fill="#FDFEFD" d="M56.637,91.293c3.07-2.69,7.56-2.13,11.23-1.26c10.06,3.2,18.85,9.98,24.85,18.63
	c-6.29,3.67-12.09,8.51-15.8,14.86c-5.12,8.76-10.66,17.43-13.74,27.17c-2.47-0.061-4.86,0.551-7.21,1.26
	c3.51-4.16,7.39-8.84,7.25-14.61c0.09-4.13-2.68-7.42-4.88-10.63c-4.71-6.79-7.72-15.01-7.21-23.36
	C51.437,98.883,52.967,94.133,56.637,91.293z"/>
<path fill="#FDFEFD" d="M155.477,93.324c4.84-2.61,10.38-4.86,15.96-3.66c4.72,1.57,7.4,6.41,8.19,11.07
	c1.49,9.08-1.68,18.32-6.77,25.78c-2.18,3.28-5.12,6.56-4.9,10.78c-0.43,5.82,3.8,10.33,6.94,14.74c-1.95-0.619-3.91-1.38-5.99-1.34
	c-0.29-0.02-0.87-0.05-1.17-0.061c-2.9-9.959-8.74-18.659-13.86-27.569c-3.61-6.25-9.43-10.78-15.54-14.41
	C142.797,102.333,148.617,96.943,155.477,93.324z"/>
<path fill="#E3001B" d="M119.53,204.05"/>
<path fill="#E3001B" d="M124.04,196.311"/>
<path fill="#E3001B" d="M108.789,189.6c-0.6-18.061-0.802,9.994-1.782-8.023c6.34,2.149,13.6,2.029,19.5-1.351
	c4.26-2.21,7.64-6.29,8.42-11.11c0.35-2.97-0.8-5.84-1.81-8.57c0.97-0.479,1.94-0.959,2.91-1.439c4.16-2.061,9.02-1.68,13.3-0.2
	c-0.1,1.511,0.07,3.091-0.42,4.55c-2.29,1.99-5.41,2.601-7.81,4.42c-2.05,1.631-0.8,4.521-0.96,6.69
	c5.73-3.76,10.53-9.41,17.65-10.45c1.54-3.63-1.04-7-3.59-9.34c-4.77-4.59-11.4-6.189-17.57-7.99c1.83-0.84,3.65-1.67,5.48-2.51
	c-2.75-0.47-5.53-0.74-8.31-0.82c0.2-0.35,0.61-1.03,0.82-1.379c2.46-0.36,4.91-0.71,7.37-1.07c-3.62-2.06-7.92-3.96-12.12-2.53
	c-5.62,1.48-9.04,6.54-11.92,11.19c-1.71-0.051-3.42-0.09-5.13-0.131c-2.56-4.959-6.46-9.89-12.15-11.24
	c-4.37-1.19-8.58,1.05-12.29,3.08c3.35-0.14,6.73,0.27,9.68,1.96c-2.93,0.16-5.87,0.379-8.77,0.89c1.66,0.89,3.34,1.771,5.01,2.64
	c-8.52,2.061-18.31,5.42-21.87,14.28c-0.86,1.649-2.76,2.22-4.23,3.19c0.04-2.971-0.02-5.961-0.84-8.84
	c-1.8,0.56-3.61,1.129-5.42,1.66c0.32-2.171,0.63-4.351,1.24-6.461c3.08-9.74,8.62-18.41,13.74-27.17
	c3.71-6.35,9.51-11.19,15.8-14.86c13.82-7.81,31.79-7.8,45.62-0.01c6.11,3.63,11.93,8.16,15.54,14.41
	c5.12,8.91,10.96,17.61,13.86,27.57c0.3,0.01,0.88,0.04,1.17,0.06c0.03,2.42,0.07,4.84,0.12,7.26c-1.6-0.77-3.21-1.539-4.8-2.299
	c-0.38,2.34-0.79,4.68-1.29,7c0.32,0.279,0.97,0.84,1.3,1.119c-1.49,0.02-3.16-0.439-4.31,0.79c-0.14,0.351-0.41,1.04-0.54,1.39
	c4.14,4.66,9.12,17.537,12.83,22.586L108.789,189.6z"/>
<path fill="#E3001B" d="M128.08,226.141"/>
<path fill="#613626" d="M62.197,114.273c-0.04-3.03,1.83-7.04,5.39-6.8c4.3,0.19,7.75,3.06,10.98,5.6c-1.32,1.32-2.63,2.65-3.92,4
	c-2-0.5-4.86-2.56-6.36-0.07c-1.97,3.84,2.56,7.58,0.25,11.35C65.477,124.213,62.037,119.704,62.197,114.273z"/>
<path fill="#613626" d="M153.067,112.813c2.86-2.76,6.56-5.18,10.64-5.32c3.24-0.16,4.86,3.34,5.19,6.07
	c0.44,5.73-3.27,10.53-6.36,14.97c-0.28-0.83-0.83-2.48-1.11-3.3c1.48-2.75,3.22-6.87,0.33-9.29c-1.89-0.5-3.61,0.59-5.31,1.21
	C155.427,115.724,153.077,114.583,153.067,112.813z"/>
<path fill="#FDFEFD" d="M88.377,141.374c3.71-2.03,7.92-4.27,12.29-3.08c5.69,1.35,9.59,6.281,12.15,11.24
	c1.71,0.041,3.42,0.08,5.13,0.131c2.88-4.65,6.3-9.71,11.92-11.19c4.2-1.43,8.5,0.47,12.12,2.53c-2.46,0.36-4.91,0.71-7.37,1.07
	c-0.21,0.35-0.62,1.03-0.82,1.379c2.78,0.08,5.56,0.35,8.31,0.82c-1.83,0.84-3.65,1.67-5.48,2.51c6.17,1.801,12.8,3.4,17.57,7.99
	c2.55,2.34,5.13,5.71,3.59,9.34c-7.12,1.04-11.92,6.689-17.65,10.45c0.16-2.17-1.09-5.06,0.96-6.69c2.4-1.82,5.52-2.43,7.81-4.42
	c0.49-1.459,0.32-3.039,0.42-4.55c-4.28-1.479-9.14-1.86-13.3,0.2c3.92-3.26,1.45-10.2-3.57-10.37c-2.76-0.489-4.66,1.819-6.49,3.45
	c1.31,1.33,2.63,2.65,3.93,4c0.6-1.301,1.18-2.6,1.76-3.9c1.53,0.52,2.81,1.52,3.11,3.2c-1.31,0.5-2.61,1.021-3.91,1.55
	c0.56,0.881,1.69,2.631,2.26,3.51c1.01,2.73,2.16,5.601,1.81,8.57c-0.78,4.82-4.16,8.9-8.42,11.11c-5.9,3.38-13.16,3.5-19.5,1.351
	c-1.22-0.341-2.37-0.841-3.44-1.5c-3.27-2.211-6.34-5.201-7.32-9.15c-0.66-3.35-0.13-6.85,1.24-9.95c0.88-1.38,1.89-2.671,2.88-3.97
	c-1.19-0.471-2.4-0.92-3.6-1.351c0.09-0.95,0.19-1.899,0.29-2.851c0.57-0.029,1.71-0.09,2.28-0.109c0.73,1.1,1.47,2.21,2.21,3.32
	c1.11-1.301,2.25-2.57,3.4-3.84c-2.09-2.32-5.19-4.631-8.39-2.93c-3.92,1.609-4.22,6.77-1.82,9.809
	c-3.69-1.049-7.95-2.029-11.54-0.159c-1.67,0.75-1.47,3.149-0.74,4.51c2.62,1.96,5.88,2.841,8.51,4.8c0.88,2.17,0.28,4.48-0.02,6.69
	c-6.2-3.21-10.87-11-18.67-9.771c0.01-1.33,0.06-2.649,0.15-3.979c3.56-8.86,13.35-12.22,21.87-14.28
	c-1.67-0.869-3.35-1.75-5.01-2.64c2.9-0.511,5.84-0.729,8.77-0.89C95.107,141.644,91.727,141.233,88.377,141.374z"/>
<path fill="#613626" d="M96.557,149.244c3.2-1.701,6.3,0.609,8.39,2.93c-1.15,1.27-2.29,2.539-3.4,3.84
	c-0.74-1.11-1.48-2.221-2.21-3.32c-0.57,0.02-1.71,0.08-2.28,0.11c-0.1,0.95-0.2,1.899-0.29,2.85c1.2,0.431,2.41,0.88,3.6,1.351
	c-0.99,1.3-2,2.59-2.88,3.97c-0.91-0.649-1.83-1.28-2.75-1.92C92.337,156.014,92.637,150.854,96.557,149.244z"/>
<path fill="#613626" d="M125.967,152.184c1.83-1.63,3.73-3.939,6.49-3.45c5.02,0.17,7.49,7.11,3.57,10.37
	c-0.97,0.48-1.94,0.96-2.91,1.439c-0.57-0.879-1.7-2.629-2.26-3.51c1.3-0.529,2.6-1.05,3.91-1.55c-0.3-1.68-1.58-2.68-3.11-3.2
	c-0.58,1.301-1.16,2.6-1.76,3.9C128.597,154.834,127.277,153.514,125.967,152.184z"/>
<path fill="#E3001B" d="M72.53,135.56c3.59-1.87,7.85-0.89,11.54,0.16c0.92,0.64,1.84,1.27,2.75,1.92c-1.37,3.1-1.9,6.6-1.24,9.95
	c0.98,3.95,4.05,6.939,7.32,9.15c-3.93-1.51-8.01-2.66-11.75-4.62c0.11-2.149,0.2-4.29,0.31-6.44l-1.16-0.81
	c-2.63-1.96-5.89-2.84-8.51-4.8C71.06,138.71,70.86,136.31,72.53,135.56z"/>
<path fill="#613626" d="M110.907,166.443c3.75-0.72,7.57-0.17,11.25,0.67c-0.54,2.34-1.24,4.99-3.7,6.01
	c-4.04,2.73-10.08-1.6-9.13-6.25c1.53-0.359,2.69,0.181,3.45,1.631c2.15-0.041,4.89,0.859,6.36-1.26
	C116.387,167.123,113.557,167.344,110.907,166.443z"/>
<path fill="#613626" d="M263.91,206.029l0.779,0.291c-0.029,0.43-0.09,1.279-0.119,1.709
	C264.41,207.529,264.08,206.529,263.91,206.029z"/>
<rect x="-44.743" y="10.491" fill="none" width="298.679" height="195.62"/>
<g>
	<g>
		<defs>
			<rect id="SVGID_1_" x="-47.5" y="16.333" width="322.077" height="166.499"/>
		</defs>
		<clipPath id="SVGID_2_">
			<use xlink:href="#SVGID_1_"  overflow="visible"/>
		</clipPath>
		<g clip-path="url(#SVGID_2_)">
			<defs>
				<rect id="SVGID_3_" x="-47.5" y="16.333" width="322.077" height="166.499"/>
			</defs>
			<clipPath id="SVGID_4_">
				<use xlink:href="#SVGID_3_"  overflow="visible"/>
			</clipPath>
			<g clip-path="url(#SVGID_4_)">
				<defs>
					<rect id="SVGID_5_" x="-47.5" y="16.333" width="322.077" height="166.499"/>
				</defs>
				<clipPath id="SVGID_6_">
					<use xlink:href="#SVGID_5_"  overflow="visible"/>
				</clipPath>
				<path clip-path="url(#SVGID_6_)" fill="#003E60" d="M167.585,50.931c0,0-4.112,6.795-11.577,6.251
					c-7.464-0.543-15.641-5.617-41.562-5.617c-25.922,0-37.957,7.027-44.204,6.276c-6.244-0.75-11.272-5.461-11.272-5.461
					s16.168-12.315,55.476-12.32S167.585,50.931,167.585,50.931"/>
				<g opacity="0.8" clip-path="url(#SVGID_6_)">
					<g>
						<defs>
							<rect id="SVGID_7_" x="45.746" y="31.343" width="135.251" height="35.28"/>
						</defs>
						<clipPath id="SVGID_8_">
							<use xlink:href="#SVGID_7_"  overflow="visible"/>
						</clipPath>
						<g clip-path="url(#SVGID_8_)">
							<defs>
								<rect id="SVGID_9_" x="45.746" y="31.343" width="135.251" height="35.28"/>
							</defs>
							<clipPath id="SVGID_10_">
								<use xlink:href="#SVGID_9_"  overflow="visible"/>
							</clipPath>
							<g transform="matrix(1 0 0 1 1.525879e-05 0)" clip-path="url(#SVGID_10_)">
								
									<image overflow="visible" width="257" height="114" xlink:href="C3202971.png"  transform="matrix(-0.5263 0 0 0.3095 180.9971 31.3433)">
								</image>
							</g>
						</g>
					</g>
				</g>
			</g>
			<g clip-path="url(#SVGID_4_)">
				<defs>
					<path id="SVGID_11_" d="M195.677,80.994h-4.398c0,0,1.482-38.19-77.223-40.001c0,0-72.484-0.514-77.4,39.377l-4.212,0.625
						c0,0-2.05-45.347,86.04-45.347C118.483,35.647,195.677,36.745,195.677,80.994"/>
				</defs>
				<clipPath id="SVGID_12_">
					<use xlink:href="#SVGID_11_"  overflow="visible"/>
				</clipPath>
				
					<linearGradient id="SVGID_13_" gradientUnits="userSpaceOnUse" x1="-191.666" y1="-158.9922" x2="-191.14" y2="-158.9922" gradientTransform="matrix(-310.1807 0 0 -310.1807 -59255.3516 -49258.0156)">
					<stop  offset="0" style="stop-color:#808285"/>
					<stop  offset="0.4847" style="stop-color:#D1D3D4"/>
					<stop  offset="1" style="stop-color:#808285"/>
				</linearGradient>
				<rect x="30.393" y="35.647" clip-path="url(#SVGID_12_)" fill="url(#SVGID_13_)" width="165.284" height="45.347"/>
			</g>
			<g clip-path="url(#SVGID_4_)">
				<defs>
					<rect id="SVGID_14_" x="-47.5" y="16.333" width="322.077" height="166.499"/>
				</defs>
				<clipPath id="SVGID_15_">
					<use xlink:href="#SVGID_14_"  overflow="visible"/>
				</clipPath>
				<path clip-path="url(#SVGID_15_)" fill="#6D6E71" d="M192.314,80.969c0,0,1.065-39.157-77.868-41.331
					c0,0-73.241-0.511-77.791,40.731c0,0,1.59-37.385,76.622-39.165c0,0,73.553-1.647,77.818,39.764H192.314z"/>
			</g>
			<g clip-path="url(#SVGID_4_)">
				<defs>
					<path id="SVGID_16_" d="M195.222,79.928l-2.087-0.445c0,0-3.3-19.871-24.686-29.101
						C168.45,50.381,190.158,58.785,195.222,79.928"/>
				</defs>
				<clipPath id="SVGID_17_">
					<use xlink:href="#SVGID_16_"  overflow="visible"/>
				</clipPath>
				
					<linearGradient id="SVGID_18_" gradientUnits="userSpaceOnUse" x1="-187.4082" y1="-168.834" x2="-186.8818" y2="-168.834" gradientTransform="matrix(-50.873 0 0 -50.873 -9338.8047 -8523.9492)">
					<stop  offset="0" style="stop-color:#BCBEC0"/>
					<stop  offset="1" style="stop-color:#FFFFFF"/>
				</linearGradient>
				<rect x="168.45" y="50.381" clip-path="url(#SVGID_17_)" fill="url(#SVGID_18_)" width="26.772" height="29.546"/>
			</g>
			<g clip-path="url(#SVGID_4_)">
				<defs>
					<path id="SVGID_19_" d="M118.217,35.486c0,0,28.119,0.433,47.293,9.472c0,0-49.732-18.723-105.411,1.138
						c0,0,19.708-10.61,57.325-10.611C117.688,35.484,117.951,35.485,118.217,35.486"/>
				</defs>
				<clipPath id="SVGID_20_">
					<use xlink:href="#SVGID_19_"  overflow="visible"/>
				</clipPath>
				
					<linearGradient id="SVGID_21_" gradientUnits="userSpaceOnUse" x1="-192.272" y1="-160.2529" x2="-191.7378" y2="-160.2529" gradientTransform="matrix(200.2983 0 0 -200.2983 38571.875 -32062.3047)">
					<stop  offset="0" style="stop-color:#BCBEC0"/>
					<stop  offset="0.4847" style="stop-color:#FFFFFF"/>
					<stop  offset="1" style="stop-color:#BCBEC0"/>
				</linearGradient>
				<polygon clip-path="url(#SVGID_20_)" fill="url(#SVGID_21_)" points="61.663,26.235 167.074,26.235 60.099,46.095 
					165.51,46.095 				"/>
			</g>
			<g clip-path="url(#SVGID_4_)">
				<defs>
					<path id="SVGID_22_" d="M193.266,87.379c2.773,0.362,3.285,0.785,3.285,0.785s-17.562,51.457-17.562,53.63
						c0,0-8.318-0.18-8.011-2.656c0.309-2.478,15.613-49.223,16.741-50.551c0.824-0.969,1.922-1.36,3.53-1.36
						C191.847,87.227,192.514,87.281,193.266,87.379"/>
				</defs>
				<clipPath id="SVGID_23_">
					<use xlink:href="#SVGID_22_"  overflow="visible"/>
				</clipPath>
				
					<linearGradient id="SVGID_24_" gradientUnits="userSpaceOnUse" x1="-195.1899" y1="-157.2827" x2="-194.5717" y2="-157.2827" gradientTransform="matrix(-57.5073 -167.0133 167.0133 -57.5073 15159.6406 -41473.5547)">
					<stop  offset="0" style="stop-color:#414042"/>
					<stop  offset="0.1227" style="stop-color:#FFFFFF"/>
					<stop  offset="0.3313" style="stop-color:#939598"/>
					<stop  offset="0.3461" style="stop-color:#A9ABAD"/>
					<stop  offset="0.3688" style="stop-color:#C4C5C6"/>
					<stop  offset="0.3949" style="stop-color:#DADADB"/>
					<stop  offset="0.4254" style="stop-color:#EBEBEB"/>
					<stop  offset="0.463" style="stop-color:#F6F6F7"/>
					<stop  offset="0.5159" style="stop-color:#FDFDFD"/>
					<stop  offset="0.6626" style="stop-color:#FFFFFF"/>
					<stop  offset="0.7304" style="stop-color:#FCFCFC"/>
					<stop  offset="0.7763" style="stop-color:#F3F3F4"/>
					<stop  offset="0.8157" style="stop-color:#E4E5E5"/>
					<stop  offset="0.8514" style="stop-color:#CFCFD1"/>
					<stop  offset="0.8844" style="stop-color:#B3B4B7"/>
					<stop  offset="0.9141" style="stop-color:#939598"/>
					<stop  offset="0.9507" style="stop-color:#919396"/>
					<stop  offset="0.9638" style="stop-color:#8B8C8F"/>
					<stop  offset="0.9732" style="stop-color:#7F8184"/>
					<stop  offset="0.9808" style="stop-color:#6F7073"/>
					<stop  offset="0.9872" style="stop-color:#5A5B5D"/>
					<stop  offset="0.9877" style="stop-color:#58595B"/>
					<stop  offset="1" style="stop-color:#58595B"/>
				</linearGradient>
				<polygon clip-path="url(#SVGID_23_)" fill="url(#SVGID_24_)" points="142.105,136.011 173.413,82.542 2.058,93.011 
					193.808,146.48 				"/>
			</g>
			<g clip-path="url(#SVGID_4_)">
				<defs>
					<path id="SVGID_25_" d="M201.788,117.214c0,0-6.778,17.695-22.799,24.58c0,0,16.431-51.335,17.562-53.63
						C196.551,88.164,208.155,97.284,201.788,117.214"/>
				</defs>
				<clipPath id="SVGID_26_">
					<use xlink:href="#SVGID_25_"  overflow="visible"/>
				</clipPath>
				
					<linearGradient id="SVGID_27_" gradientUnits="userSpaceOnUse" x1="-197.6997" y1="-167.4639" x2="-197.1732" y2="-167.4639" gradientTransform="matrix(46.9502 0 0 -46.9502 9460.9941 -7747.4551)">
					<stop  offset="0" style="stop-color:#BCBEC0"/>
					<stop  offset="0.4847" style="stop-color:#FFFFFF"/>
					<stop  offset="1" style="stop-color:#6D6E71"/>
				</linearGradient>
				<rect x="178.989" y="88.164" clip-path="url(#SVGID_26_)" fill="url(#SVGID_27_)" width="29.167" height="53.63"/>
			</g>
			<g clip-path="url(#SVGID_4_)">
				<defs>
					<rect id="SVGID_28_" x="-47.5" y="16.333" width="322.077" height="166.499"/>
				</defs>
				<clipPath id="SVGID_29_">
					<use xlink:href="#SVGID_28_"  overflow="visible"/>
				</clipPath>
				<path clip-path="url(#SVGID_29_)" fill="#D1D3D4" d="M197.841,113.68c0,0-1.192-10.84-5.195-14.101l-12.304,37.99
					c0,0,11.298-5.612,14.214-10.024C194.557,127.545,197.285,115.414,197.841,113.68"/>
				<path clip-path="url(#SVGID_29_)" fill="#FFFFFF" d="M191.342,127.542l-8.144,5.497c0,0-3.251,3.43-1.727,3.949
					c0,0,11.999-7.635,13.23-10.23l0.309-1.872L191.342,127.542z"/>
				<path clip-path="url(#SVGID_29_)" fill="#003E60" d="M187.208,89.32l-12.89-2.907c0,0-8.318-1.812-9.86,2.657
					c-1.542,4.47-14.276,42.397-14.276,42.397s-2.157,6.522,8.626,6.825c10.785,0.303,12.01,0.242,12.01,0.242L187.208,89.32z"/>
				<g opacity="0.3" clip-path="url(#SVGID_29_)">
					<g>
						<defs>
							<rect id="SVGID_30_" x="143.632" y="76.526" width="59.995" height="37.756"/>
						</defs>
						<clipPath id="SVGID_31_">
							<use xlink:href="#SVGID_30_"  overflow="visible"/>
						</clipPath>
						<g clip-path="url(#SVGID_31_)">
							<defs>
								<rect id="SVGID_32_" x="143.632" y="76.526" width="59.995" height="37.756"/>
							</defs>
							<clipPath id="SVGID_33_">
								<use xlink:href="#SVGID_32_"  overflow="visible"/>
							</clipPath>
							<g clip-path="url(#SVGID_33_)">
								
									<image overflow="visible" width="114" height="122" xlink:href="C3202973.png"  transform="matrix(-0.5263 0 0 0.3095 203.627 76.5264)">
								</image>
							</g>
						</g>
					</g>
				</g>
				<g opacity="0.3" clip-path="url(#SVGID_29_)">
					<g>
						<defs>
							<rect id="SVGID_34_" x="133.108" y="116.759" width="56.836" height="31.257"/>
						</defs>
						<clipPath id="SVGID_35_">
							<use xlink:href="#SVGID_34_"  overflow="visible"/>
						</clipPath>
						<g clip-path="url(#SVGID_35_)">
							<defs>
								<rect id="SVGID_36_" x="133.108" y="116.759" width="56.836" height="31.257"/>
							</defs>
							<clipPath id="SVGID_37_">
								<use xlink:href="#SVGID_36_"  overflow="visible"/>
							</clipPath>
							<g clip-path="url(#SVGID_37_)">
								
									<image overflow="visible" width="108" height="101" xlink:href="C3202976.png"  transform="matrix(-0.5263 0 0 0.3095 189.9443 116.7588)">
								</image>
							</g>
						</g>
					</g>
				</g>
				<path clip-path="url(#SVGID_29_)" fill="#B10069" d="M201.789,117.214c2.219-6.95,2.234-12.555,1.336-16.948
					c-2.11,4.224-4.197,9.586-5.906,15.483c-1.49,5.146-2.481,9.964-2.969,14.029C199.438,123.336,201.789,117.214,201.789,117.214"
					/>
			</g>
			<g clip-path="url(#SVGID_4_)">
				<defs>
					<path id="SVGID_38_" d="M195.01,126.938c0,0,0.617-2.128,0.693-2.582l4.014-2.81
						C199.717,121.546,196.88,125.318,195.01,126.938"/>
				</defs>
				<clipPath id="SVGID_39_">
					<use xlink:href="#SVGID_38_"  overflow="visible"/>
				</clipPath>
				
					<linearGradient id="SVGID_40_" gradientUnits="userSpaceOnUse" x1="-221.4199" y1="-209.6367" x2="-220.8936" y2="-209.6367" gradientTransform="matrix(8.9424 0 0 -8.9424 2175.04 -1750.4104)">
					<stop  offset="0" style="stop-color:#FFFFFF"/>
					<stop  offset="0.1767" style="stop-color:#F1C4DF"/>
					<stop  offset="0.4009" style="stop-color:#E17FBA"/>
					<stop  offset="0.6035" style="stop-color:#D5489C"/>
					<stop  offset="0.7772" style="stop-color:#CC2187"/>
					<stop  offset="0.9151" style="stop-color:#C6097A"/>
					<stop  offset="1" style="stop-color:#C40075"/>
				</linearGradient>
				<rect x="195.01" y="121.546" clip-path="url(#SVGID_39_)" fill="url(#SVGID_40_)" width="4.707" height="5.392"/>
			</g>
			<g clip-path="url(#SVGID_4_)">
				<defs>
					<rect id="SVGID_41_" x="-47.5" y="16.333" width="322.077" height="166.499"/>
				</defs>
				<clipPath id="SVGID_42_">
					<use xlink:href="#SVGID_41_"  overflow="visible"/>
				</clipPath>
				<path clip-path="url(#SVGID_42_)" fill="#B10069" d="M196.331,88.386c0,0,1.642-5.588,0.513-7.4
					c-1.128-1.812-7.004-2.596-7.045-0.302c-0.041,2.295,0,7.334,0,7.334S192.632,87.693,196.331,88.386"/>
			</g>
			<g clip-path="url(#SVGID_4_)">
				<defs>
					<path id="SVGID_43_" d="M35.382,79.809l-2.085,0.446C38.359,59.112,60.07,50.708,60.07,50.708
						C38.685,59.938,35.382,79.809,35.382,79.809"/>
				</defs>
				<clipPath id="SVGID_44_">
					<use xlink:href="#SVGID_43_"  overflow="visible"/>
				</clipPath>
				
					<linearGradient id="SVGID_45_" gradientUnits="userSpaceOnUse" x1="-194.71" y1="-168.8193" x2="-194.1836" y2="-168.8193" gradientTransform="matrix(50.873 0 0 -50.873 9938.8047 -8522.8555)">
					<stop  offset="0" style="stop-color:#BCBEC0"/>
					<stop  offset="1" style="stop-color:#FFFFFF"/>
				</linearGradient>
				<rect x="33.297" y="50.708" clip-path="url(#SVGID_44_)" fill="url(#SVGID_45_)" width="26.772" height="29.546"/>
			</g>
			<g clip-path="url(#SVGID_4_)">
				<defs>
					<path id="SVGID_46_" d="M39.454,89.447c1.129,1.329,16.433,48.074,16.742,50.551c0.308,2.478-8.011,2.657-8.011,2.657
						c0-2.175-17.562-53.631-17.562-53.631s0.513-0.422,3.287-0.785c0.75-0.098,1.418-0.152,2.016-0.152
						C37.533,88.087,38.631,88.479,39.454,89.447"/>
				</defs>
				<clipPath id="SVGID_47_">
					<use xlink:href="#SVGID_46_"  overflow="visible"/>
				</clipPath>
				
					<linearGradient id="SVGID_48_" gradientUnits="userSpaceOnUse" x1="-195.1772" y1="-157.2773" x2="-194.559" y2="-157.2773" gradientTransform="matrix(57.5071 -167.0128 -167.0128 -57.5071 -14932.3906 -41470.0469)">
					<stop  offset="0" style="stop-color:#414042"/>
					<stop  offset="0.1227" style="stop-color:#FFFFFF"/>
					<stop  offset="0.3313" style="stop-color:#939598"/>
					<stop  offset="0.3461" style="stop-color:#A9ABAD"/>
					<stop  offset="0.3688" style="stop-color:#C4C5C6"/>
					<stop  offset="0.3949" style="stop-color:#DADADB"/>
					<stop  offset="0.4254" style="stop-color:#EBEBEB"/>
					<stop  offset="0.463" style="stop-color:#F6F6F7"/>
					<stop  offset="0.5159" style="stop-color:#FDFDFD"/>
					<stop  offset="0.6626" style="stop-color:#FFFFFF"/>
					<stop  offset="0.7304" style="stop-color:#FCFCFC"/>
					<stop  offset="0.7763" style="stop-color:#F3F3F4"/>
					<stop  offset="0.8157" style="stop-color:#E4E5E5"/>
					<stop  offset="0.8514" style="stop-color:#CFCFD1"/>
					<stop  offset="0.8844" style="stop-color:#B3B4B7"/>
					<stop  offset="0.9141" style="stop-color:#939598"/>
					<stop  offset="0.9507" style="stop-color:#919396"/>
					<stop  offset="0.9638" style="stop-color:#8B8C8F"/>
					<stop  offset="0.9732" style="stop-color:#7F8184"/>
					<stop  offset="0.9808" style="stop-color:#6F7073"/>
					<stop  offset="0.9872" style="stop-color:#5A5B5D"/>
					<stop  offset="0.9877" style="stop-color:#58595B"/>
					<stop  offset="1" style="stop-color:#58595B"/>
				</linearGradient>
				<polygon clip-path="url(#SVGID_47_)" fill="url(#SVGID_48_)" points="85.068,136.871 53.76,83.402 225.114,93.872 
					33.367,147.34 				"/>
			</g>
			<g clip-path="url(#SVGID_4_)">
				<defs>
					<path id="SVGID_49_" d="M48.185,142.656c-16.022-6.885-22.801-24.581-22.801-24.581c-6.366-19.93,5.238-29.05,5.238-29.05
						C31.754,91.319,48.185,142.656,48.185,142.656"/>
				</defs>
				<clipPath id="SVGID_50_">
					<use xlink:href="#SVGID_49_"  overflow="visible"/>
				</clipPath>
				
					<linearGradient id="SVGID_51_" gradientUnits="userSpaceOnUse" x1="-189.811" y1="-167.4229" x2="-189.2843" y2="-167.4229" gradientTransform="matrix(-46.9502 0 0 -46.9502 -8863.4316 -7744.6738)">
					<stop  offset="0" style="stop-color:#BCBEC0"/>
					<stop  offset="0.4847" style="stop-color:#FFFFFF"/>
					<stop  offset="1" style="stop-color:#6D6E71"/>
				</linearGradient>
				<rect x="19.018" y="89.025" clip-path="url(#SVGID_50_)" fill="url(#SVGID_51_)" width="29.167" height="53.631"/>
			</g>
			<g clip-path="url(#SVGID_4_)">
				<defs>
					<rect id="SVGID_52_" x="-47.5" y="16.333" width="322.077" height="166.499"/>
				</defs>
				<clipPath id="SVGID_53_">
					<use xlink:href="#SVGID_52_"  overflow="visible"/>
				</clipPath>
				<path clip-path="url(#SVGID_53_)" fill="#D1D3D4" d="M29.332,114.541c0,0,1.192-10.84,5.195-14.102l12.304,37.991
					c0,0-11.298-5.612-14.215-10.024C32.616,128.406,29.889,116.274,29.332,114.541"/>
				<path clip-path="url(#SVGID_53_)" fill="#FFFFFF" d="M35.832,128.402l8.144,5.497c0,0,3.252,3.43,1.729,3.949
					c0,0-12-7.635-13.232-10.23l-0.309-1.872L35.832,128.402z"/>
				<path clip-path="url(#SVGID_53_)" fill="#003E60" d="M39.967,90.181l12.889-2.907c0,0,8.32-1.812,9.861,2.657
					c1.539,4.469,14.276,42.397,14.276,42.397s2.157,6.521-8.626,6.824c-10.785,0.303-12.01,0.242-12.01,0.242L39.967,90.181z"/>
				<g opacity="0.3" clip-path="url(#SVGID_53_)">
					<g>
						<defs>
							<rect id="SVGID_54_" x="23.643" y="77.455" width="59.468" height="37.756"/>
						</defs>
						<clipPath id="SVGID_55_">
							<use xlink:href="#SVGID_54_"  overflow="visible"/>
						</clipPath>
						<g clip-path="url(#SVGID_55_)">
							<defs>
								<rect id="SVGID_56_" x="23.643" y="77.455" width="59.468" height="37.756"/>
							</defs>
							<clipPath id="SVGID_57_">
								<use xlink:href="#SVGID_56_"  overflow="visible"/>
							</clipPath>
							<g clip-path="url(#SVGID_57_)">
								
									<image overflow="visible" width="113" height="122" xlink:href="C3202977.png"  transform="matrix(-0.5263 0 0 0.3095 83.1113 77.4551)">
								</image>
							</g>
						</g>
					</g>
				</g>
				<g opacity="0.3" clip-path="url(#SVGID_53_)">
					<g>
						<defs>
							<rect id="SVGID_58_" x="36.799" y="117.687" width="57.364" height="30.948"/>
						</defs>
						<clipPath id="SVGID_59_">
							<use xlink:href="#SVGID_58_"  overflow="visible"/>
						</clipPath>
						<g clip-path="url(#SVGID_59_)">
							<defs>
								<rect id="SVGID_60_" x="36.799" y="117.687" width="57.364" height="30.948"/>
							</defs>
							<clipPath id="SVGID_61_">
								<use xlink:href="#SVGID_60_"  overflow="visible"/>
							</clipPath>
							<g clip-path="url(#SVGID_61_)">
								
									<image overflow="visible" width="109" height="100" xlink:href="C3202972.png"  transform="matrix(-0.5263 0 0 0.3095 94.1626 117.6865)">
								</image>
							</g>
						</g>
					</g>
				</g>
				<path clip-path="url(#SVGID_53_)" fill="#B10069" d="M25.384,118.075c-2.219-6.95-2.233-12.555-1.335-16.948
					c2.109,4.224,4.195,9.586,5.905,15.483c1.49,5.145,2.48,9.964,2.97,14.029C27.734,124.197,25.384,118.075,25.384,118.075"/>
			</g>
			<g clip-path="url(#SVGID_4_)">
				<defs>
					<path id="SVGID_62_" d="M31.469,125.217c0.078,0.453,0.694,2.581,0.694,2.581c-1.87-1.619-4.706-5.391-4.706-5.391
						L31.469,125.217z"/>
				</defs>
				<clipPath id="SVGID_63_">
					<use xlink:href="#SVGID_62_"  overflow="visible"/>
				</clipPath>
				
					<linearGradient id="SVGID_64_" gradientUnits="userSpaceOnUse" x1="-180.0029" y1="-209.4209" x2="-179.4766" y2="-209.4209" gradientTransform="matrix(-8.9424 0 0 -8.9424 -1577.493 -1747.6292)">
					<stop  offset="0" style="stop-color:#FFFFFF"/>
					<stop  offset="0.1767" style="stop-color:#F1C4DF"/>
					<stop  offset="0.4009" style="stop-color:#E17FBA"/>
					<stop  offset="0.6035" style="stop-color:#D5489C"/>
					<stop  offset="0.7772" style="stop-color:#CC2187"/>
					<stop  offset="0.9151" style="stop-color:#C6097A"/>
					<stop  offset="1" style="stop-color:#C40075"/>
				</linearGradient>
				<rect x="27.457" y="122.407" clip-path="url(#SVGID_63_)" fill="url(#SVGID_64_)" width="4.706" height="5.391"/>
			</g>
			<g clip-path="url(#SVGID_4_)">
				<defs>
					<rect id="SVGID_65_" x="-47.5" y="16.333" width="322.077" height="166.499"/>
				</defs>
				<clipPath id="SVGID_66_">
					<use xlink:href="#SVGID_65_"  overflow="visible"/>
				</clipPath>
				<path clip-path="url(#SVGID_66_)" fill="#B10069" d="M31.546,88.815c0,0-1.641-5.589-0.512-7.401
					c1.129-1.812,7.005-2.596,7.046-0.301c0.042,2.294,0,7.333,0,7.333S35.244,88.123,31.546,88.815"/>
			</g>
			<g clip-path="url(#SVGID_4_)">
				<defs>
					<path id="SVGID_67_" d="M34.51,82.443c-0.718,1.055,0.152,4.468,0.152,4.468s-1.676,0.944-2.664,0c0,0-1.668-5.14,1.298-5.815
						c0.683-0.156,1.155-0.224,1.467-0.224C35.803,80.872,35.063,81.631,34.51,82.443"/>
				</defs>
				<clipPath id="SVGID_68_">
					<use xlink:href="#SVGID_67_"  overflow="visible"/>
				</clipPath>
				
					<linearGradient id="SVGID_69_" gradientUnits="userSpaceOnUse" x1="-176.4336" y1="-235.5664" x2="-175.9073" y2="-235.5664" gradientTransform="matrix(-7.1338 0 0 -7.1338 -1223.3531 -1596.1201)">
					<stop  offset="0" style="stop-color:#EC008C"/>
					<stop  offset="1" style="stop-color:#B10069"/>
				</linearGradient>
				<rect x="30.331" y="80.872" clip-path="url(#SVGID_68_)" fill="url(#SVGID_69_)" width="5.472" height="6.983"/>
			</g>
			<g clip-path="url(#SVGID_4_)">
				<defs>
					<path id="SVGID_70_" d="M194.36,81.096c2.966,0.675,1.299,5.815,1.299,5.815c-0.988,0.944-2.665,0-2.665,0
						s0.872-3.413,0.155-4.468c-0.552-0.812-1.293-1.571-0.255-1.571C193.205,80.872,193.678,80.94,194.36,81.096"/>
				</defs>
				<clipPath id="SVGID_71_">
					<use xlink:href="#SVGID_70_"  overflow="visible"/>
				</clipPath>
				
					<linearGradient id="SVGID_72_" gradientUnits="userSpaceOnUse" x1="-228.4219" y1="-235.5732" x2="-227.8957" y2="-235.5732" gradientTransform="matrix(7.1343 0 0 -7.1343 1822.0035 -1596.2888)">
					<stop  offset="0" style="stop-color:#EC008C"/>
					<stop  offset="1" style="stop-color:#B10069"/>
				</linearGradient>
				<rect x="191.855" y="80.872" clip-path="url(#SVGID_71_)" fill="url(#SVGID_72_)" width="5.471" height="6.983"/>
			</g>
		</g>
	</g>
</g>
</svg>
