<?xml version="1.0" encoding="utf-8"?>
<!-- Generator: Adobe Illustrator 15.0.2, SVG Export Plug-In . SVG Version: 6.00 Build 0)  -->
<!DOCTYPE svg PUBLIC "-//W3C//DTD SVG 1.1//EN" "http://www.w3.org/Graphics/SVG/1.1/DTD/svg11.dtd">
<svg version="1.1" id="Layer_1" xmlns="http://www.w3.org/2000/svg" xmlns:xlink="http://www.w3.org/1999/xlink" x="0px" y="0px"
	 width="416px" height="287px" viewBox="0 0 416 287" enable-background="new 0 0 416 287" xml:space="preserve">
<path d="M0,0h416v287H0V0z"/>
<path fill="#FDFEFD" d="M61.545,67.279c3.07-2.69,7.56-2.13,11.23-1.26c10.06,3.2,18.85,9.98,24.85,18.63
	c-6.29,3.67-12.09,8.51-15.8,14.86c-5.12,8.76-10.66,17.43-13.74,27.17c-2.47-0.06-4.86,0.55-7.21,1.26
	c3.51-4.16,7.39-8.84,7.25-14.61c0.09-4.13-2.68-7.42-4.88-10.63c-4.71-6.79-7.72-15.01-7.21-23.36
	C56.345,74.869,57.875,70.119,61.545,67.279z"/>
<path fill="#FDFEFD" d="M160.385,69.309c4.84-2.61,10.38-4.86,15.96-3.66c4.72,1.57,7.4,6.41,8.19,11.07
	c1.49,9.08-1.68,18.32-6.77,25.78c-2.18,3.28-5.12,6.56-4.9,10.78c-0.43,5.82,3.8,10.33,6.94,14.74c-1.95-0.62-3.91-1.38-5.99-1.34
	c-0.29-0.02-0.87-0.05-1.17-0.06c-2.9-9.96-8.74-18.66-13.86-27.57c-3.61-6.25-9.43-10.78-15.54-14.41
	C147.705,78.319,153.525,72.929,160.385,69.309z"/>
<path fill="#E3001B" d="M97.625,84.649c13.82-7.81,31.79-7.8,45.62-0.01c6.11,3.63,11.93,8.16,15.54,14.41
	c5.12,8.91,10.96,17.61,13.86,27.57c0.3,0.01,0.88,0.04,1.17,0.06c0.03,2.42,0.07,4.84,0.12,7.26c-1.6-0.77-3.21-1.54-4.8-2.3
	c-0.38,2.34-0.79,4.68-1.29,7c0.32,0.28,0.97,0.84,1.3,1.12c-1.49,0.02-3.16-0.44-4.31,0.79c-0.14,0.35-0.41,1.04-0.54,1.39
	c4.14,4.659,9.12,8.56,12.83,13.61c3.22,4.42,6.42,8.899,8.75,13.859c1.81,3.891,4.36,7.561,4.71,11.96
	c-4.31-1.5-8.4-3.75-12.95-4.489c-14.95-2.891-31.13,5.209-38.02,18.75c-0.57,0.109-1.71,0.34-2.28,0.449
	c-0.42-0.67-0.84-1.33-1.26-1.99c-0.67,3.051-0.94,6.16-0.97,9.28c-0.1,5.39-1.51,10.63-2.01,15.979
	c0.42,2.701,1.74,5.191,1.95,7.951c0.71,6.438,4.91,11.68,7.8,17.278c-5.68-0.788-12.27-0.858-16.55,3.632
	c4.11-0.611,8.15-2.07,12.36-1.75c4.61,0.17,8.74,2.52,12.63,4.778c-5.93-5.729-10.49-12.819-13.76-20.358
	c-1.85-3.932-1.45-8.392-2.33-12.562c0.21-3.96,1.01-7.88,1.46-11.819c3.43-11.141,11.26-21.57,22.45-25.75
	c5.9-2.529,12.52-2.529,18.79-1.771c14.87,2.96,26.32,16.54,28.4,31.29c0.13,5.05,0.13,10.109,0,15.158
	c-1.85,14.291-12.69,27.142-26.75,30.791c-4.89,1.149-9.96,1.021-14.95,1.061c-13.34-0.09-26.68,0.16-40.01-0.29
	c-9.52,0.49-19.07,0.271-28.6,0.101c-0.14-3.479,0.42-7.521,3.75-9.431c5.46-3.67,12.41-2.149,18.07,0.2
	c3.73-15.24,3.64-31.012,5.14-46.521c0.15-4.1,0-8.209,0.01-12.31c0.35-0.479,1.06-1.44,1.42-1.92c-1.07-0.069-2.13-0.13-3.19-0.2
	c0.02,6.801-0.16,13.61-0.14,20.42c0.06,2.75-0.42,5.48-1.26,8.1c-0.91-1.25-2.73-2.209-2.65-3.979
	c-0.6-18.061-4.24-35.87-5.22-53.89c6.34,2.149,13.6,2.03,19.5-1.351c4.26-2.209,7.64-6.289,8.42-11.109
	c0.35-2.97-0.8-5.84-1.81-8.57c0.97-0.48,1.94-0.96,2.91-1.44c4.16-2.06,9.02-1.68,13.3-0.2c-0.1,1.51,0.07,3.09-0.42,4.55
	c-2.29,1.99-5.41,2.6-7.81,4.42c-2.05,1.63-0.8,4.52-0.96,6.689c5.73-3.76,10.53-9.41,17.65-10.45c1.54-3.63-1.04-7-3.59-9.34
	c-4.77-4.59-11.4-6.19-17.57-7.99c1.83-0.84,3.65-1.67,5.48-2.51c-2.75-0.47-5.53-0.74-8.31-0.82c0.2-0.35,0.61-1.03,0.82-1.38
	c2.46-0.36,4.91-0.71,7.37-1.07c-3.62-2.06-7.92-3.96-12.12-2.53c-5.62,1.48-9.04,6.54-11.92,11.19c-1.71-0.05-3.42-0.09-5.13-0.13
	c-2.56-4.96-6.46-9.89-12.15-11.24c-4.37-1.19-8.58,1.05-12.29,3.08c3.35-0.14,6.73,0.27,9.68,1.96c-2.93,0.16-5.87,0.38-8.77,0.89
	c1.66,0.89,3.34,1.77,5.01,2.64c-8.52,2.06-18.31,5.42-21.87,14.28c-0.86,1.65-2.76,2.22-4.23,3.19c0.04-2.97-0.02-5.96-0.84-8.84
	c-1.8,0.56-3.61,1.13-5.42,1.66c0.32-2.17,0.63-4.35,1.24-6.46c3.08-9.74,8.62-18.41,13.74-27.17
	C85.535,93.159,91.334,88.319,97.625,84.649z"/>
<path fill="#613626" d="M67.104,90.259c-0.04-3.03,1.83-7.04,5.39-6.8c4.3,0.19,7.75,3.06,10.98,5.6c-1.32,1.32-2.63,2.65-3.92,4
	c-2-0.5-4.86-2.56-6.36-0.07c-1.97,3.84,2.56,7.58,0.25,11.35C70.385,100.199,66.945,95.689,67.104,90.259z"/>
<path fill="#613626" d="M157.975,88.799c2.86-2.76,6.56-5.18,10.64-5.32c3.24-0.16,4.86,3.34,5.19,6.07
	c0.44,5.73-3.27,10.53-6.36,14.97c-0.28-0.83-0.83-2.48-1.11-3.3c1.48-2.75,3.22-6.87,0.33-9.29c-1.89-0.5-3.61,0.59-5.31,1.21
	C160.334,91.709,157.985,90.569,157.975,88.799z"/>
<path fill="#FDFEFD" d="M93.285,117.359c3.71-2.03,7.92-4.27,12.29-3.08c5.69,1.35,9.59,6.28,12.15,11.24
	c1.71,0.04,3.42,0.08,5.13,0.13c2.88-4.65,6.3-9.71,11.92-11.19c4.2-1.43,8.5,0.47,12.12,2.53c-2.46,0.36-4.91,0.71-7.37,1.07
	c-0.21,0.35-0.62,1.03-0.82,1.38c2.78,0.08,5.56,0.35,8.31,0.82c-1.83,0.84-3.65,1.67-5.48,2.51c6.17,1.8,12.8,3.4,17.57,7.99
	c2.55,2.34,5.13,5.71,3.59,9.34c-7.12,1.04-11.92,6.69-17.65,10.451c0.16-2.17-1.09-5.061,0.96-6.69c2.4-1.82,5.52-2.43,7.81-4.42
	c0.49-1.46,0.32-3.04,0.42-4.55c-4.28-1.48-9.14-1.86-13.3,0.2c3.92-3.26,1.45-10.2-3.57-10.37c-2.76-0.49-4.66,1.82-6.49,3.45
	c1.31,1.33,2.63,2.65,3.93,4c0.6-1.3,1.18-2.6,1.76-3.9c1.53,0.52,2.81,1.52,3.11,3.2c-1.31,0.5-2.61,1.02-3.91,1.55
	c0.56,0.88,1.69,2.63,2.26,3.51c1.01,2.73,2.16,5.6,1.81,8.569c-0.78,4.82-4.16,8.9-8.42,11.111c-5.9,3.379-13.16,3.5-19.5,1.35
	c-1.22-0.34-2.37-0.84-3.44-1.5c-3.27-2.211-6.34-5.2-7.32-9.15c-0.66-3.35-0.13-6.85,1.24-9.95c0.88-1.38,1.89-2.67,2.88-3.97
	c-1.19-0.47-2.4-0.92-3.6-1.35c0.09-0.95,0.19-1.9,0.29-2.85c0.57-0.03,1.71-0.09,2.28-0.11c0.73,1.1,1.47,2.21,2.21,3.32
	c1.11-1.3,2.25-2.57,3.4-3.84c-2.09-2.32-5.19-4.63-8.39-2.93c-3.92,1.61-4.22,6.77-1.82,9.81c-3.69-1.05-7.95-2.03-11.54-0.16
	c-1.67,0.75-1.47,3.15-0.74,4.51c2.62,1.96,5.88,2.84,8.51,4.8c0.88,2.17,0.28,4.479-0.02,6.69c-6.2-3.211-10.87-11-18.67-9.771
	c0.01-1.33,0.06-2.65,0.15-3.98c3.56-8.86,13.35-12.22,21.87-14.28c-1.67-0.87-3.35-1.75-5.01-2.64c2.9-0.51,5.84-0.73,8.77-0.89
	C100.015,117.629,96.635,117.219,93.285,117.359z"/>
<path fill="#613626" d="M101.465,125.229c3.2-1.7,6.3,0.61,8.39,2.93c-1.15,1.27-2.29,2.54-3.4,3.84c-0.74-1.11-1.48-2.22-2.21-3.32
	c-0.57,0.02-1.71,0.08-2.28,0.11c-0.1,0.95-0.2,1.9-0.29,2.85c1.2,0.43,2.41,0.88,3.6,1.35c-0.99,1.3-2,2.59-2.88,3.97
	c-0.91-0.65-1.83-1.28-2.75-1.92C97.245,131.999,97.545,126.839,101.465,125.229z"/>
<path fill="#613626" d="M130.875,128.169c1.83-1.63,3.73-3.94,6.49-3.45c5.02,0.17,7.49,7.11,3.57,10.37
	c-0.97,0.48-1.94,0.96-2.91,1.44c-0.57-0.88-1.7-2.63-2.26-3.51c1.3-0.53,2.6-1.05,3.91-1.55c-0.3-1.68-1.58-2.68-3.11-3.2
	c-0.58,1.3-1.16,2.6-1.76,3.9C133.505,130.819,132.185,129.499,130.875,128.169z"/>
<path fill="#E3001B" d="M88.104,134.879c3.59-1.87,7.85-0.89,11.54,0.16c0.92,0.64,1.84,1.27,2.75,1.92c-1.37,3.1-1.9,6.6-1.24,9.95
	c0.98,3.95,4.05,6.939,7.32,9.15c-3.93-1.51-8.01-2.66-11.75-4.62c0.11-2.149,0.2-4.29,0.31-6.44l-1.16-0.81
	c-2.63-1.96-5.89-2.84-8.51-4.8C86.635,138.029,86.435,135.629,88.104,134.879z"/>
<path fill="#E3001B" d="M395.695,139.229c4.271-1.48,8.13-4.03,12.63-4.93c-13.54,21.82-28.971,42.76-47.891,60.27
	c-0.299-0.49-0.899-1.46-1.209-1.939c-0.07,0.449-0.211,1.34-0.291,1.789c-0.25-0.648-0.771-1.949-1.029-2.6
	c-0.51-0.061-1.54-0.17-2.051-0.221c0.031-0.639,0.101-1.909,0.131-2.549c-0.68-0.11-2.03-0.33-2.7-0.451
	c-0.03-0.639-0.09-1.93-0.11-2.569c-0.58-0.021-1.74-0.04-2.319-0.06c-0.011-0.68-0.029-2.041-0.039-2.721
	c-0.7-0.061-2.12-0.181-2.82-0.24c0.101-0.449,0.32-1.359,0.42-1.819c-1.47-0.7-2.608-1.771-3.079-3.37
	c-0.521-0.07-1.57-0.2-2.091-0.27c-0.021-0.701-0.05-2.09-0.062-2.791c-0.549,0.021-1.648,0.051-2.198,0.061
	c-0.03-0.68-0.101-2.04-0.142-2.73c-0.67-0.108-2.01-0.34-2.68-0.459c0.051-0.641,0.16-1.931,0.221-2.58
	c-0.681-0.021-2.041-0.069-2.721-0.09c0.051-0.591,0.15-1.761,0.2-2.341c-0.71-0.18-2.149-0.54-2.86-0.72
	c0.041-0.41,0.142-1.23,0.18-1.641c-1.379-0.739-2.318-1.92-2.868-3.369c-0.562-0.07-1.67-0.221-2.229-0.29
	c0.051-0.7,0.159-2.091,0.211-2.79c-0.602,0-1.791,0-2.392,0c-0.03-0.7-0.101-2.09-0.142-2.78c-0.629-0.06-1.898-0.19-2.528-0.26
	c-0.04-0.67-0.12-2.021-0.16-2.69c-0.608-0.02-1.819-0.07-2.42-0.09c0.05-0.55,0.142-1.66,0.181-2.22l-1.58-0.5
	c-0.17-0.61-0.511-1.83-0.681-2.44c3.87-1.6,8.181-0.81,12.261-1.119c11.619-0.031,23.221-0.621,34.83-1.011
	C375.805,143.809,386.035,142.629,395.695,139.229z"/>
<path fill="#613626" d="M115.815,142.429c3.75-0.72,7.57-0.17,11.25,0.67c-0.54,2.34-1.24,4.99-3.7,6.01
	c-4.04,2.729-10.08-1.601-9.13-6.25c1.53-0.36,2.69,0.18,3.45,1.63c2.15-0.04,4.89,0.859,6.36-1.26
	C121.295,143.109,118.465,143.329,115.815,142.429z"/>
<path fill="#FDFEFD" d="M296.615,149.219c7.12-1.541,14.36-2.721,21.67-2.75c-0.08,0.609-0.239,1.82-0.319,2.42
	c0.319,0.1,0.959,0.289,1.289,0.38l1.58,0.5c-0.039,0.56-0.13,1.67-0.18,2.22c0.6,0.02,1.811,0.07,2.42,0.09
	c0.04,0.67,0.12,2.02,0.16,2.69c0.63,0.069,1.9,0.2,2.529,0.26c0.041,0.69,0.109,2.08,0.141,2.78c0.6,0,1.79,0,2.391,0
	c-0.051,0.699-0.16,2.09-0.211,2.789c0.561,0.07,1.67,0.221,2.23,0.291c0.55,1.449,1.49,2.63,2.869,3.369
	c-0.039,0.41-0.139,1.23-0.18,1.641c0.711,0.18,2.149,0.54,2.859,0.72c-0.05,0.58-0.148,1.75-0.2,2.341
	c0.681,0.021,2.04,0.069,2.722,0.09c-0.062,0.649-0.17,1.939-0.222,2.58c0.67,0.119,2.011,0.351,2.681,0.459
	c0.041,0.69,0.109,2.051,0.141,2.73c0.55-0.01,1.65-0.04,2.199-0.061c0.011,0.701,0.041,2.09,0.061,2.791
	c0.52,0.068,1.57,0.198,2.09,0.27c0.471,1.6,1.61,2.67,3.08,3.37c-0.1,0.46-0.32,1.37-0.42,1.819c0.7,0.061,2.12,0.181,2.82,0.239
	c0.01,0.681,0.029,2.041,0.039,2.722c0.58,0.02,1.74,0.039,2.32,0.06c0.021,0.64,0.079,1.931,0.109,2.569
	c0.67,0.121,2.021,0.341,2.7,0.451c-0.03,0.64-0.101,1.91-0.132,2.549c0.512,0.051,1.541,0.16,2.052,0.221
	c0.26,0.65,0.778,1.95,1.028,2.6c0.392,0.18,1.15,0.551,1.531,0.74c-4.74,3.641-8.82,8.12-13.82,11.43
	c-0.319-0.14-0.961-0.438-1.279-0.59c-1.36-1.55-2.03-3.76-3.979-4.709c-0.722-1.111-1.392-2.261-2.012-3.421
	c-0.568-0.069-1.689-0.21-2.26-0.28c0.04-0.648,0.109-1.949,0.14-2.6c-0.659-0.08-2-0.25-2.67-0.33c0.08-0.6,0.229-1.811,0.312-2.42
	c-0.562-0.07-1.67-0.21-2.221-0.29c-0.551-1.28-1.181-2.53-2.261-3.44c-1.47-1.379-2.698-2.988-3.812-4.67
	c-0.448-0.068-1.35-0.209-1.799-0.289c0.01-0.681,0.021-2.061,0.029-2.739c-0.65-0.052-1.93-0.142-2.57-0.19
	c-0.08-0.521-0.25-1.56-0.33-2.068c-1.35-0.771-2.33-1.91-3.01-3.271c-0.369-0.08-1.1-0.25-1.47-0.33
	c-0.351-1.479-1.31-2.561-2.56-3.352c-1.291-1.459-2.26-3.17-3.371-4.76c-0.409-0.049-1.25-0.14-1.659-0.18
	c-0.03-0.699-0.08-2.08-0.101-2.77c-0.709-0.061-2.129-0.16-2.83-0.211c0.021-0.51,0.051-1.529,0.069-2.039
	c-1.63-1.381-3.22-2.82-4.909-4.131c-0.011-0.449-0.021-1.35-0.021-1.789c-0.688-0.211-2.05-0.631-2.74-0.83
	c-0.01-0.41-0.039-1.221-0.06-1.631c-0.49-0.35-1.479-1.049-1.971-1.399C297.125,151.199,296.785,149.879,296.615,149.219z"/>
<path fill="#E3001B" d="M280.934,155.029c4.721-2.31,9.611-4.3,14.761-5.42c0.399,0.56,1.2,1.69,1.61,2.25
	c0.489,0.351,1.479,1.05,1.97,1.399c0.021,0.41,0.05,1.221,0.06,1.631c0.69,0.199,2.051,0.619,2.74,0.83
	c0,0.439,0.01,1.34,0.02,1.789c1.69,1.311,3.28,2.75,4.91,4.131c-0.02,0.51-0.05,1.529-0.07,2.039
	c0.701,0.051,2.121,0.15,2.83,0.211c0.021,0.689,0.07,2.07,0.102,2.77c0.41,0.04,1.25,0.131,1.66,0.18
	c1.109,1.59,2.078,3.301,3.369,4.76c1.25,0.791,2.209,1.871,2.561,3.352c0.37,0.08,1.102,0.25,1.471,0.33
	c0.68,1.359,1.659,2.5,3.01,3.271c0.08,0.51,0.25,1.549,0.33,2.068c0.641,0.051,1.92,0.141,2.569,0.19
	c-0.01,0.68-0.02,2.06-0.028,2.739c0.449,0.08,1.35,0.221,1.799,0.289c1.111,1.682,2.341,3.291,3.811,4.67
	c1.08,0.91,1.71,2.16,2.26,3.44c0.551,0.08,1.66,0.22,2.222,0.29c-0.08,0.609-0.23,1.82-0.312,2.42c0.67,0.08,2.01,0.25,2.67,0.33
	c-0.029,0.65-0.1,1.95-0.14,2.6c0.569,0.07,1.69,0.211,2.26,0.28c0.62,1.16,1.29,2.31,2.011,3.421
	c1.949,0.949,2.619,3.159,3.979,4.709c0.319,0.15,0.96,0.45,1.28,0.59c-3.68,3.59-8.08,6.271-12.16,9.36
	c-1.67-0.59-3.34-1.271-3.52-3.31c-0.461-0.051-1.371-0.15-1.83-0.2c0.01-0.5,0.028-1.5,0.039-2c-1.689-0.56-2.58-1.899-2.971-3.55
	c-0.521-0.021-1.55-0.07-2.061-0.09c-0.021-0.701-0.069-2.102-0.09-2.801c-0.66-0.091-1.971-0.261-2.631-0.341
	c-0.039-0.64-0.129-1.92-0.17-2.55c-0.55-0.021-1.65-0.05-2.199-0.068c0.029-0.65,0.069-1.951,0.09-2.602l-2.42-0.051
	c0.039-0.649,0.119-1.961,0.16-2.609c-0.66-0.09-1.979-0.25-2.649-0.34c-0.07-0.471-0.2-1.432-0.271-1.91
	c-1.41-0.91-2.42-2.229-3.201-3.682c-0.438,0.021-1.318,0.062-1.76,0.08c0.01-0.738,0.03-2.229,0.041-2.979
	c-0.691-0.04-2.061-0.12-2.74-0.158c0-0.65,0.011-1.951,0.011-2.611c-0.45-0.039-1.341-0.139-1.79-0.18
	c-0.32-1.761-1.62-2.74-3.141-3.439c0.021-0.461,0.039-1.381,0.049-1.84c-0.608-0.051-1.84-0.15-2.459-0.2
	c0.029-0.511,0.08-1.54,0.109-2.06c-1.689-0.621-2.859-1.791-3.22-3.592c-0.47-0.01-1.41-0.01-1.87-0.01
	c-0.02-0.71-0.061-2.12-0.08-2.818c-0.64-0.08-1.93-0.23-2.58-0.312c-0.029-0.632-0.1-1.9-0.13-2.54
	c-0.569-0.03-1.72-0.08-2.29-0.102c0.061-0.64,0.18-1.92,0.24-2.56c-0.71-0.04-2.141-0.13-2.85-0.181
	c0.028-0.659,0.09-1.989,0.119-2.649c-0.601-0.03-1.811-0.069-2.41-0.101c-0.029-0.659-0.09-1.979-0.119-2.639
	c-0.61-0.07-1.851-0.23-2.461-0.301c-0.109-0.82-0.34-2.449-0.449-3.27L280.934,155.029z"/>
<path fill="#FDFEFD" d="M264.725,167.29c4.869-4.641,10.42-8.57,16.26-11.9c0.109,0.82,0.34,2.449,0.449,3.27
	c0.611,0.07,1.851,0.23,2.461,0.301c0.029,0.659,0.09,1.979,0.119,2.639c0.601,0.031,1.811,0.07,2.41,0.101
	c-0.029,0.66-0.091,1.99-0.119,2.649c0.709,0.051,2.14,0.141,2.85,0.181c-0.061,0.64-0.18,1.92-0.24,2.56
	c0.57,0.021,1.721,0.07,2.29,0.102c0.03,0.64,0.101,1.908,0.13,2.54c0.65,0.08,1.94,0.229,2.58,0.312
	c0.02,0.698,0.061,2.108,0.08,2.818c0.46,0,1.4,0,1.87,0.01c0.36,1.801,1.53,2.971,3.22,3.592c-0.029,0.52-0.08,1.549-0.109,2.06
	c0.619,0.05,1.851,0.149,2.459,0.2c-0.01,0.459-0.028,1.379-0.049,1.84c1.521,0.699,2.819,1.68,3.141,3.439
	c0.449,0.041,1.34,0.141,1.79,0.18c0,0.66-0.011,1.961-0.011,2.611c0.681,0.038,2.05,0.118,2.74,0.158
	c-0.011,0.75-0.031,2.24-0.041,2.979c0.44-0.02,1.32-0.06,1.76-0.08c0.781,1.451,1.791,2.771,3.201,3.682
	c0.069,0.479,0.199,1.439,0.271,1.91c0.67,0.09,1.989,0.25,2.649,0.34c-0.041,0.648-0.121,1.96-0.16,2.609l2.42,0.051
	c-0.021,0.648-0.061,1.949-0.09,2.602c0.55,0.02,1.649,0.049,2.199,0.068c0.041,0.63,0.131,1.91,0.17,2.55
	c0.66,0.08,1.972,0.25,2.631,0.341c0.021,0.699,0.069,2.1,0.091,2.801c0.51,0.02,1.538,0.068,2.06,0.09
	c0.391,1.65,1.28,2.99,2.971,3.55c-0.011,0.5-0.029,1.5-0.039,2c0.459,0.05,1.369,0.149,1.83,0.2c0.18,2.039,1.85,2.72,3.52,3.31
	c-5.29,3.8-10.79,7.31-16.35,10.7c-0.041-0.45-0.121-1.359-0.16-1.82c-1.73-1.34-3.34-2.82-4.98-4.26
	c-0.01-0.33-0.01-1.01-0.02-1.35c-1.28-0.75-2.26-1.82-2.82-3.2c-0.52-0.16-1.54-0.49-2.051-0.66c-0.029-0.63-0.079-1.91-0.1-2.55
	c-0.689-0.02-2.061-0.061-2.75-0.08c0.061-0.65,0.18-1.971,0.25-2.631c-0.529-0.069-1.58-0.199-2.109-0.271
	c-1.01-1.868-2.34-3.538-3.62-5.22c-0.44-0.05-1.32-0.148-1.761-0.2c0.021-0.67,0.07-2.01,0.09-2.68
	c-0.719-0.052-2.149-0.16-2.869-0.222c0.04-0.68,0.13-2.049,0.17-2.729c-0.62-0.04-1.87-0.109-2.49-0.141
	c-0.02-0.699-0.039-2.1-0.05-2.801c-0.649-0.01-1.94-0.039-2.58-0.06c0.011-0.681,0.03-2.05,0.04-2.739
	c-0.5-0.011-1.5-0.051-2.01-0.061c-0.11-1.95-1.631-2.84-3.211-3.57c0.101-0.439,0.281-1.32,0.381-1.76
	c-0.62-0.04-1.859-0.109-2.48-0.141c-0.028-0.681-0.09-2.049-0.119-2.729c-0.381-0.05-1.149-0.16-1.541-0.22
	c-0.85-1.461-1.92-2.771-3.459-3.54c0.029-0.521,0.08-1.56,0.101-2.08c-0.729-0.05-2.2-0.17-2.931-0.22
	c0.07-0.642,0.209-1.931,0.279-2.57c-0.49-0.051-1.459-0.16-1.949-0.21c-0.541-1.53-1.641-2.67-2.971-3.53
	c-0.05-0.449-0.16-1.33-0.21-1.779c-0.54-0.021-1.61-0.061-2.149-0.08c-0.079-0.689-0.239-2.051-0.319-2.729
	C266.985,167.689,265.485,167.418,264.725,167.29z"/>
<path fill="#E3001B" d="M254.004,176.649c4.391-3.13,7.6-9.561,13.73-8.83c0.08,0.68,0.24,2.04,0.32,2.73
	c0.539,0.02,1.608,0.06,2.148,0.08c0.051,0.448,0.16,1.33,0.21,1.778c1.33,0.86,2.431,2,2.972,3.53
	c0.488,0.05,1.459,0.158,1.948,0.21c-0.069,0.642-0.21,1.93-0.278,2.569c0.729,0.051,2.199,0.17,2.93,0.221
	c-0.02,0.521-0.07,1.561-0.1,2.08c1.539,0.771,2.608,2.078,3.459,3.54c0.391,0.06,1.16,0.17,1.541,0.22
	c0.028,0.682,0.09,2.05,0.119,2.729c0.619,0.031,1.859,0.102,2.479,0.142c-0.101,0.438-0.28,1.319-0.382,1.76
	c1.58,0.729,3.102,1.62,3.211,3.57c0.511,0.01,1.511,0.05,2.011,0.062c-0.011,0.688-0.028,2.059-0.04,2.738
	c0.641,0.021,1.932,0.05,2.58,0.061c0.01,0.701,0.029,2.101,0.05,2.801c0.62,0.029,1.87,0.1,2.49,0.14
	c-0.04,0.681-0.13,2.05-0.17,2.729c0.72,0.061,2.149,0.17,2.868,0.221c-0.02,0.67-0.068,2.01-0.09,2.68
	c0.44,0.051,1.32,0.15,1.762,0.2c1.279,1.681,2.609,3.351,3.619,5.22c0.529,0.07,1.58,0.2,2.109,0.271
	c-0.07,0.659-0.189,1.979-0.25,2.631c0.69,0.021,2.061,0.062,2.75,0.08c0.021,0.64,0.07,1.92,0.1,2.55
	c0.512,0.17,1.531,0.5,2.052,0.66c0.562,1.38,1.54,2.449,2.819,3.199c0.011,0.341,0.011,1.021,0.021,1.351
	c1.642,1.438,3.25,2.92,4.979,4.261c0.039,0.461,0.119,1.369,0.16,1.819l0.021,0.278c-4.25,2.142-8.38,4.5-12.472,6.932l-0.398-0.13
	c-0.689-0.222-2.068-0.67-2.76-0.892c-1.182-1.789-2.5-3.479-3.762-5.209c-0.41-0.03-1.229-0.09-1.64-0.121c0-0.68,0-2.039,0-2.719
	c-0.46-0.051-1.38-0.16-1.84-0.211c-0.681-1.52-1.5-2.99-3.271-3.38c-0.011-0.55-0.039-1.63-0.061-2.17
	c-0.67-0.08-2.021-0.239-2.689-0.319c0.021-0.61,0.061-1.841,0.08-2.451c-0.479-0.049-1.431-0.148-1.91-0.198
	c-0.271-1.78-1.609-2.771-3.08-3.552c-0.01-0.31-0.029-0.93-0.039-1.238c-1.021-0.99-1.99-2-3-2.99
	c-0.291-0.229-0.87-0.699-1.17-0.931c0.028-0.431,0.09-1.279,0.119-1.71l-0.779-0.29c-0.67-0.22-2.01-0.671-2.68-0.89
	c0.049-0.61,0.159-1.83,0.219-2.439c-0.719-0.051-2.149-0.15-2.859-0.2c0.051-0.642,0.141-1.92,0.18-2.55
	c-0.59-0.061-1.779-0.172-2.369-0.229c0-0.441,0-1.32,0-1.771c-1.43-0.852-2.621-1.96-3.16-3.57
	c-0.461-0.029-1.369-0.102-1.819-0.13c-0.021-0.681-0.05-2.04-0.069-2.722c-0.66-0.059-1.979-0.198-2.641-0.26
	c0-0.699-0.01-2.1-0.021-2.789c-0.6-0.021-1.799-0.041-2.398-0.061c0-0.66,0.021-1.99,0.021-2.65
	c-0.69-0.068-2.091-0.209-2.781-0.289c0.041-0.439,0.121-1.34,0.16-1.779c-1.33-0.672-2.42-1.602-2.72-3.11
	c-0.729-0.38-1.45-0.75-2.159-1.14c-0.08-0.471-0.25-1.4-0.341-1.87L254.004,176.649z"/>
<path fill="#FDFEFD" d="M242.805,189.449c3.729-4.2,7.229-8.61,11.24-12.55c0.09,0.47,0.26,1.4,0.34,1.87
	c0.709,0.39,1.43,0.76,2.16,1.14c0.299,1.51,1.389,2.439,2.719,3.11c-0.039,0.44-0.119,1.34-0.16,1.78
	c0.691,0.08,2.091,0.22,2.781,0.289c0,0.66-0.021,1.989-0.021,2.649c0.602,0.021,1.8,0.04,2.398,0.062
	c0.012,0.688,0.021,2.09,0.021,2.789c0.66,0.061,1.979,0.201,2.641,0.26c0.021,0.681,0.051,2.041,0.069,2.721
	c0.45,0.029,1.358,0.1,1.82,0.13c0.538,1.61,1.729,2.72,3.159,3.57c0,0.45,0,1.329,0,1.771c0.591,0.059,1.779,0.17,2.369,0.229
	c-0.039,0.63-0.129,1.909-0.18,2.55c0.71,0.05,2.141,0.15,2.86,0.2c-0.06,0.61-0.171,1.829-0.22,2.44
	c0.67,0.219,2.01,0.67,2.68,0.889c0.17,0.5,0.5,1.5,0.66,2c0.3,0.229,0.88,0.701,1.17,0.931c1.01,0.99,1.979,2,3,2.99
	c0.01,0.31,0.029,0.93,0.039,1.239c1.471,0.781,2.811,1.771,3.08,3.551c0.479,0.05,1.431,0.15,1.91,0.199
	c-0.021,0.609-0.061,1.84-0.08,2.451c0.67,0.08,2.021,0.238,2.689,0.318c0.021,0.54,0.05,1.62,0.061,2.17
	c1.771,0.391,2.59,1.86,3.271,3.38c0.46,0.052,1.38,0.16,1.84,0.212c0,0.68,0,2.038,0,2.719c0.41,0.031,1.229,0.09,1.64,0.121
	c1.262,1.729,2.58,3.42,3.762,5.209c0.689,0.221,2.068,0.67,2.76,0.891c-4.91,3.76-11.42,4.54-16.38,8.119
	c-1.312,0.201-2.642,0.261-3.95,0.229c0.42-0.8,0.859-1.6,1.32-2.38c-1.54-0.689-2.58-1.87-2.94-3.5
	c-0.618-0.109-1.85-0.33-2.47-0.439c0.109-0.641,0.34-1.92,0.45-2.561c-0.521-0.01-1.57-0.021-2.091-0.029
	c-0.461-1.681-1.51-2.931-3.09-3.641c-0.011-0.45-0.021-1.352-0.031-1.8c-0.568-0.021-1.719-0.052-2.299-0.062
	c0.011-0.699,0.039-2.1,0.049-2.8c-0.709-0.05-2.118-0.159-2.828-0.21c0-0.68,0-2.04,0-2.72c-0.57-0.04-1.7-0.14-2.271-0.19
	c-0.15-0.709-0.449-2.13-0.6-2.84c-0.53,0.02-1.6,0.051-2.13,0.07c0.021-0.68,0.06-2.03,0.079-2.71
	c-0.689-0.06-2.079-0.171-2.771-0.229c0.011-0.471,0.052-1.421,0.062-1.891c-1.32-0.801-2.471-1.811-2.971-3.311
	c-0.511-0.08-1.521-0.229-2.029-0.311c-0.03-0.7-0.08-2.109-0.11-2.811c-0.54,0.029-1.64,0.08-2.181,0.101
	c-0.01-0.688-0.029-2.09-0.039-2.79c-0.711-0.102-2.12-0.3-2.82-0.398c0.051-0.632,0.15-1.9,0.2-2.541
	c-0.64-0.021-1.931-0.061-2.57-0.08c0-0.67,0-2.029,0-2.699c-0.659-0.08-1.96-0.24-2.61-0.312c0.021-0.59,0.08-1.77,0.11-2.358
	c-0.61-0.041-1.819-0.12-2.42-0.16c0.04-0.6,0.13-1.801,0.181-2.4c-0.689-0.22-2.07-0.65-2.761-0.859
	C243.195,191.959,243.004,190.699,242.805,189.449z"/>
<path fill="#E3001B" d="M240.764,192.379c0.859,0.279,1.729,0.561,2.609,0.84c0.689,0.209,2.07,0.641,2.762,0.859
	c-0.052,0.6-0.142,1.801-0.182,2.4c0.602,0.04,1.811,0.119,2.42,0.16c-0.029,0.59-0.09,1.77-0.109,2.359
	c0.649,0.069,1.951,0.229,2.609,0.311c0,0.67,0,2.029,0,2.699c0.641,0.021,1.932,0.061,2.57,0.08c-0.051,0.641-0.148,1.91-0.2,2.541
	c0.7,0.1,2.108,0.299,2.82,0.398c0.01,0.7,0.028,2.102,0.038,2.79c0.541-0.021,1.642-0.069,2.182-0.101
	c0.03,0.699,0.08,2.109,0.109,2.811c0.511,0.08,1.521,0.229,2.029,0.311c0.5,1.5,1.65,2.51,2.971,3.311
	c-0.01,0.47-0.051,1.42-0.061,1.891c0.69,0.059,2.08,0.17,2.77,0.229c-0.02,0.68-0.059,2.03-0.078,2.71
	c0.529-0.02,1.6-0.051,2.13-0.07c0.149,0.71,0.448,2.131,0.601,2.84c0.569,0.051,1.699,0.15,2.271,0.19c0,0.68,0,2.04,0,2.72
	c0.71,0.051,2.12,0.16,2.829,0.21c-0.01,0.7-0.039,2.101-0.049,2.8c0.58,0.01,1.729,0.041,2.299,0.062
	c0.011,0.448,0.021,1.351,0.031,1.8c1.58,0.71,2.629,1.96,3.09,3.641c0.52,0.01,1.57,0.021,2.09,0.029
	c-0.11,0.641-0.34,1.92-0.45,2.561c0.62,0.109,1.851,0.33,2.47,0.439c0.36,1.631,1.4,2.811,2.94,3.5c-0.46,0.78-0.9,1.58-1.32,2.381
	l-0.2,0.369c-18.24,6.631-37.459,10.182-56.67,12.66c-14.4,1.76-28.94,2.529-43.44,1.96c4.6-2.438,9.2-5.04,12.9-8.76
	c2.31-2.091,3.8-4.87,5.96-7.08c2.41-1.96,5.38-3.188,7.52-5.5c7.26-7.71,11.989-17.28,17.81-26.04
	C232.465,203.689,236.465,197.918,240.764,192.379z"/>
<g>
	<path fill="#3B3B3B" d="M112.688,18.613c11.455-0.622,23.097,0.349,33.833,2.212c0.53,0.108,1.125,0.166,1.571,0.347
		c1.652,0.744,3.838,1.124,5.702,1.725c-1.463,0.372-3.108,0.046-4.656,0.032c-0.659-0.023-1.314-0.042-1.963-0.048
		c-4.586-0.887-9.387-1.509-14.256-1.945c-2.142-0.184-4.285-0.425-6.471-0.388c-2.796,0.071-5.543-0.349-8.334-0.188
		c-1.543,0.087-3.08,0.209-4.642,0.191c-3.625,0.053-7.081,0.592-10.596,0.926c-2.266,0.083-4.552,0.266-6.575,0.767
		c-1.735,0.167-3.496,0.339-5.092,0.709c-2.816,0.721-6.049,1.022-8.697,1.897c-2.276,0.505-3.853,1.427-5.607,2.23
		c-0.516,0.213-0.67,0.533-0.898,0.822c-3.163,1.003-6.227,2.07-9.218,3.181c-0.134-0.384,0.556-0.664,0.883-0.983
		c0.58-0.416,0.649-0.916,0.774-1.392c-0.64-0.112-1.319-0.131-1.998-0.115C79.061,23.113,95.493,19.532,112.688,18.613z"/>
	<path fill="#090909" d="M98.687,20.407c11.692-1.812,24.445-1.994,36.455-0.77c2.762,0.372,5.578,0.703,8.196,1.266
		c0.585,0.145,1.394,0.244,1.512,0.597c-2.553,0.066-4.948-0.407-7.438-0.583c-6.823-0.693-13.81-1.208-20.816-1.01
		c-4.18,0.186-8.36,0.411-12.446,0.877c-4.12,0.335-8.067,1.084-12.273,1.194C93.842,21.211,96.37,20.876,98.687,20.407z"/>
	<path fill="#919191" d="M113.472,20.55c1.562,0.018,3.099-0.104,4.642-0.191c2.791-0.161,5.538,0.26,8.334,0.188
		c1.214,0.531,3.019,0.404,4.538,0.582c4.487,0.429,9.098,0.863,13.081,1.968c0.584,0.193,1.587,0.299,1.467,0.722
		c-8.052-1.245-16.482-2.005-24.976-2.102c-4.949-0.006-9.896,0.248-14.751,0.68c-0.397-0.05-1.19-0.149-1.587-0.197
		c1.606-0.606,3.753-0.629,5.628-0.948c2.355-0.402,4.899-0.251,7.324-0.482C115.937,20.685,114.707,20.604,113.472,20.55z"/>
	<path fill="#7E7E7E" d="M102.876,21.476c3.515-0.333,6.972-0.873,10.596-0.926c1.234,0.055,2.464,0.135,3.7,0.218
		c-2.425,0.231-4.969,0.08-7.324,0.482c-1.875,0.319-4.022,0.342-5.628,0.948c0.397,0.048,1.19,0.147,1.587,0.197
		c-3.922,0.405-7.845,0.83-11.643,1.445c0.009-0.089,0.024-0.271,0.034-0.36C96.707,22.47,100.219,22.343,102.876,21.476z"/>
	<path fill="#787878" d="M126.449,20.547c2.186-0.037,4.329,0.205,6.471,0.388c4.87,0.437,9.67,1.059,14.256,1.945
		c2.285,0.944,5.652,1.16,7.61,2.306c-0.267,0.039-0.797,0.115-1.061,0.151c-2.667-0.579-5.444-1.036-8.191-1.52
		c0.12-0.423-0.882-0.529-1.467-0.722c-3.982-1.104-8.593-1.539-13.081-1.968C129.468,20.952,127.663,21.078,126.449,20.547z"/>
	<path fill="#484848" d="M148.093,21.172c1.314,0.117,2.479,0.435,3.699,0.673c7.2,1.55,13.928,3.576,19.878,6.013
		c-0.471,0.085-0.942,0.167-1.403,0.25c0.372,0.152,0.75,0.304,1.125,0.457c-0.193,0.319-0.322,0.646-0.357,0.977
		c0.303,0.154,0.606,0.308,0.908,0.466c-0.194,0.101-0.571,0.303-0.759,0.407c-2.459-0.988-5.197-1.81-7.869-2.662
		c0.237-0.579-0.903-0.969-1.499-1.406c-1.16-0.797-3.224-1.1-4.834-1.646c-2.38-0.811-5.484-0.938-7.845-1.771
		c1.548,0.014,3.193,0.34,4.656-0.032C151.931,22.295,149.745,21.916,148.093,21.172z"/>
	<path fill="#6A6A6A" d="M96.301,22.243c2.023-0.501,4.31-0.685,6.575-0.767c-2.657,0.868-6.169,0.994-8.678,2.005
		c-0.009,0.089-0.024,0.271-0.034,0.36c-2.465,0.439-4.959,0.848-7.358,1.36c-1.121-0.666,1.16-0.825,2.037-1.121
		C91.179,23.338,93.851,22.89,96.301,22.243z"/>
	<path d="M105.807,22.396c4.854-0.432,9.802-0.686,14.751-0.68c8.494,0.097,16.923,0.857,24.976,2.102
		c2.747,0.484,5.525,0.941,8.191,1.52c3.258,0.749,6.541,1.486,9.591,2.414c2.672,0.852,5.409,1.674,7.869,2.662
		c1.726,0.696,3.456,1.387,5.092,2.131c1.577,0.815,3.293,1.569,4.87,2.387c-0.145,0.06-0.437,0.181-0.581,0.243
		c-1.909-1.049-3.971-2.037-6.145-2.97c-4.417-1.941-9.42-3.59-14.725-4.97c-2.212-0.561-4.458-1.096-6.769-1.56
		c-1.13-0.218-2.266-0.43-3.396-0.643c-0.917-0.17-1.845-0.329-2.792-0.457c-1.557-0.264-3.134-0.512-4.736-0.71
		c-8.915-1.185-18.272-1.734-27.534-1.406c-4.493,0.159-8.945,0.499-13.319,0.99c-2.815,0.326-5.603,0.7-8.334,1.15
		c-9.263,1.509-18.01,3.767-25.384,6.783c-0.157-0.076-0.485-0.225-0.644-0.301c2.991-1.111,6.055-2.178,9.218-3.181
		c3.427-1.043,7.101-1.888,10.801-2.701c2.399-0.512,4.894-0.921,7.358-1.36C97.962,23.226,101.885,22.801,105.807,22.396z"/>
	<path fill="#535353" d="M91.208,22.952c1.597-0.37,3.357-0.542,5.092-0.709c-2.45,0.647-5.122,1.095-7.458,1.837
		c-0.877,0.296-3.158,0.455-2.037,1.121c-3.7,0.813-7.374,1.658-10.801,2.701c0.229-0.29,0.382-0.609,0.898-0.822
		c1.755-0.804,3.332-1.725,5.607-2.23C85.159,23.974,88.392,23.673,91.208,22.952z"/>
	<path fill="#EEEEEE" d="M101.15,23.451c4.374-0.492,8.827-0.832,13.319-0.99c0.297,0.067,0.893,0.2,1.19,0.267
		c-0.273,0.119-0.541,0.237-0.812,0.356c0.267,0.062,0.802,0.186,1.071,0.248c0.803,0.965,0.913,2.003,0.913,3.025
		c-1.325-0.074-2.708-0.106-3.799,0.312c-3.377,0.289-6.803,0.464-10.165,0.794c-1.25-0.131-2.5-0.252-3.779-0.289
		c-0.471-0.68-0.838-1.376-1.061-2.081c0.302-0.128,0.6-0.257,0.902-0.384c-0.204-0.151-0.406-0.301-0.609-0.45
		c1.085-0.156,2.171-0.305,3.262-0.455C101.473,23.717,101.259,23.541,101.15,23.451z"/>
	<path fill="#FFFFFF" d="M114.469,22.46c9.262-0.329,18.62,0.221,27.534,1.406c-0.471,0.124-0.937,0.25-1.398,0.375
		c-0.263,1.201,0.188,2.563,2.023,3.473c-0.12,0.094-0.357,0.283-0.481,0.375c-6.927-0.818-14.047-1.516-21.232-1.438
		c0.962-0.124,1.919-0.278,2.757-0.537c-0.446-0.012-0.892-0.025-1.333-0.037c0.51-1.114-0.016-2.26-0.888-3.305
		c-1.929-0.087-3.863-0.041-5.792-0.043C115.362,22.661,114.767,22.527,114.469,22.46z"/>
	<path fill="#F6F6F6" d="M115.659,22.727c1.928,0.002,3.863-0.043,5.792,0.043c0.872,1.045,1.397,2.191,0.888,3.305
		c0.442,0.012,0.887,0.025,1.333,0.037c-0.838,0.259-1.795,0.413-2.757,0.537c-2.628,0.058-5.261-0.094-7.884,0.019
		c1.091-0.418,2.474-0.386,3.799-0.312c0-1.022-0.11-2.061-0.913-3.025c-0.269-0.062-0.804-0.186-1.071-0.248
		C115.119,22.964,115.386,22.846,115.659,22.727z"/>
	<path fill="#5F5F5F" d="M147.176,22.881c0.649,0.007,1.304,0.025,1.963,0.048c2.361,0.833,5.464,0.96,7.845,1.771
		c1.61,0.546,3.674,0.85,4.834,1.646c0.596,0.437,1.735,0.827,1.499,1.406c-3.05-0.928-6.333-1.665-9.591-2.414
		c0.264-0.037,0.794-0.112,1.061-0.151C152.828,24.041,149.461,23.825,147.176,22.881z"/>
	<path fill="#F6F6F6" d="M92.815,24.601c2.732-0.45,5.519-0.825,8.334-1.15c0.109,0.09,0.323,0.266,0.432,0.354
		c-1.091,0.149-2.177,0.299-3.262,0.455c0.203,0.149,0.406,0.299,0.609,0.45c-0.302,0.126-0.6,0.255-0.902,0.384
		c0.223,0.705,0.59,1.401,1.061,2.081c1.279,0.037,2.528,0.158,3.779,0.289c-3.045,0.34-6.06,0.733-9.025,1.197
		c-0.605-0.273-1.211-0.544-1.805-0.82c0.049-0.342,0.094-0.685,0.144-1.027c-0.565-0.037-1.125-0.087-1.686-0.133
		c0.148-0.207,0.297-0.413,0.451-0.62c-0.114-0.101-0.337-0.303-0.451-0.404c0.724-0.344,1.765-0.437,2.717-0.569
		C93.113,24.964,92.915,24.723,92.815,24.601z"/>
	<path fill="#F1F1F1" d="M142.003,23.866c1.602,0.198,3.179,0.446,4.736,0.71c-0.784,0.076-1.567,0.135-2.361,0.174
		c0.333,1.351,0.189,2.947,2.425,3.976c-1.563-0.117-3.183-0.68-4.746-0.35l-0.307,0.055l0.158-0.142l0.239-0.202
		c0.124-0.092,0.362-0.28,0.481-0.375c-1.835-0.909-2.286-2.271-2.023-3.473C141.066,24.117,141.533,23.99,142.003,23.866z"/>
	<path fill="#E4E4E4" d="M144.378,24.75c0.793-0.039,1.577-0.099,2.361-0.174c0.947,0.128,1.874,0.287,2.792,0.457
		c-0.461,0.11-0.923,0.22-1.384,0.333c0.223,1.256,1.349,2.42,1.577,3.687c-0.259,0.032-0.778,0.099-1.042,0.131
		c-0.615-0.163-1.245-0.312-1.879-0.457C144.568,27.697,144.711,26.101,144.378,24.75z"/>
	<path fill="#FFFFFF" d="M67.432,31.384c7.374-3.016,16.121-5.273,25.384-6.783c0.099,0.122,0.298,0.363,0.396,0.485
		c-0.952,0.133-1.993,0.225-2.717,0.569c0.114,0.102,0.337,0.304,0.451,0.404c-0.154,0.207-0.302,0.414-0.451,0.62
		c0.56,0.046,1.12,0.097,1.686,0.133c-0.05,0.342-0.095,0.685-0.144,1.027c0.594,0.275,1.2,0.546,1.805,0.82
		c-9.516,1.493-18.545,3.739-26.151,6.796c-0.576-0.949-0.709-1.929-1.027-2.898c-0.322-0.076-0.963-0.229-1.285-0.308
		C66.059,31.96,66.743,31.671,67.432,31.384z"/>
	<path fill="#D6D6D6" d="M149.531,25.033c1.13,0.213,2.267,0.425,3.396,0.643c-0.402,0.388-1.225,0.785-0.694,1.233
		c0.803,0.935,0.714,1.957,1.398,2.903c-1.012-0.083-2.032-0.138-3.059-0.168c-0.842-0.023-1.626-0.172-2.39-0.322l0.501-0.14
		c0.263-0.032,0.783-0.099,1.042-0.131c-0.228-1.266-1.354-2.43-1.577-3.687C148.608,25.253,149.07,25.144,149.531,25.033z"/>
	<path fill="#C5C5C5" d="M152.927,25.676c2.311,0.464,4.557,0.999,6.769,1.56c-0.868,1.309,1.496,2.641,0.297,3.969
		c0.7,0.094,1.398,0.193,2.103,0.29c-0.074,0.064-0.224,0.193-0.298,0.259c-0.6-0.009-1.194-0.021-1.791-0.032
		c-1.992-0.252-3.633-0.902-5.567-1.24c-1.255-0.312-2.717-0.438-3.868-0.836c1.027,0.03,2.047,0.085,3.059,0.168
		c-0.684-0.946-0.595-1.969-1.398-2.903C151.702,26.461,152.525,26.064,152.927,25.676z"/>
	<path fill="#CECECE" d="M102.867,27.463c3.361-0.331,6.788-0.505,10.165-0.794c2.623-0.113,5.256,0.039,7.884-0.019
		c7.185-0.078,14.306,0.62,21.232,1.438l-0.239,0.202c-4.268-0.434-8.508-0.981-12.872-1.181
		c-11.841-0.749-23.959,0.074-35.24,1.826c-10.438,1.605-20.077,4.251-28.219,7.674c-0.621-0.094-0.977-0.283-1.066-0.563
		c-0.392-0.914-0.486-1.879-1.533-2.706c0.471-0.223,0.938-0.446,1.418-0.664c0.362,0.161,0.863,0.301,0.898,0.561
		c0.426,0.843,0.46,1.713,0.743,2.565c0.614-0.034,1.17-0.165,1.651-0.347c7.605-3.057,16.635-5.304,26.151-6.796
		C96.807,28.196,99.821,27.803,102.867,27.463z"/>
	<path fill="#B9B9B9" d="M159.696,27.236c5.305,1.38,10.309,3.029,14.725,4.97c-0.054,0.891,0.641,1.757,0.605,2.655
		c1.151,0.806,0.382,1.844,1.701,2.611l-0.53,0.002c-4.531-2.049-9.52-3.891-15.019-5.352c-0.427-0.112-0.818-0.246-1.171-0.402
		c0.596,0.012,1.19,0.023,1.791,0.032c0.074-0.066,0.224-0.195,0.298-0.259c-0.704-0.097-1.403-0.195-2.103-0.29
		C161.192,29.877,158.828,28.545,159.696,27.236z"/>
	<path fill="#353535" d="M170.267,28.108c0.461-0.083,0.932-0.165,1.403-0.25c1.765,0.73,3.447,1.5,5.087,2.29
		c-0.6,0.781-0.763,1.585-0.481,2.398c-1.636-0.744-3.366-1.436-5.092-2.131c0.188-0.104,0.565-0.306,0.759-0.407
		c-0.302-0.158-0.604-0.312-0.908-0.466c0.035-0.331,0.164-0.657,0.357-0.977C171.017,28.412,170.639,28.26,170.267,28.108z"/>
	<path fill="#CDCDCD" d="M142.058,28.377c1.562-0.331,3.183,0.232,4.746,0.35c0.634,0.145,1.264,0.294,1.879,0.457
		C146.367,29.193,144.314,28.568,142.058,28.377z"/>
	<path fill="#282828" d="M66.446,28.593c0.679-0.016,1.358,0.002,1.998,0.115c-0.125,0.476-0.194,0.976-0.774,1.392
		c-0.327,0.319-1.017,0.6-0.883,0.983c0.159,0.076,0.487,0.225,0.644,0.301c-0.688,0.287-1.373,0.576-2.052,0.866
		c-0.332,0.14-0.659,0.283-0.981,0.427c-0.48,0.218-0.948,0.441-1.418,0.664c-0.397,0.19-0.797,0.379-1.19,0.572
		c-0.263-0.016-0.793-0.046-1.06-0.062c-0.666,0.264-1.333,0.528-2.004,0.79c-0.352-0.156-0.705-0.312-1.052-0.469
		c0.412-0.264,0.828-0.528,1.245-0.792c-0.348-0.06-1.042-0.177-1.389-0.234C60.193,31.505,63.282,30.024,66.446,28.593z"/>
	<path fill="#282828" d="M176.758,30.148c2.404,1.165,4.657,2.398,6.739,3.689c-0.551,0.344-0.917,0.742-1.209,1.142
		c0.466,0.165,0.907,0.344,1.344,0.53c-1.067,0.101-1.855-0.223-2.484-0.576c-1.577-0.818-3.293-1.571-4.87-2.387
		C175.995,31.733,176.158,30.929,176.758,30.148z"/>
	<path fill="#EAEAEA" d="M64.398,32.677c0.322-0.145,0.649-0.287,0.981-0.427c0.322,0.079,0.962,0.232,1.285,0.308
		c0.317,0.969,0.451,1.95,1.027,2.898c-0.481,0.182-1.037,0.312-1.651,0.347c-0.283-0.852-0.317-1.723-0.743-2.565
		C65.261,32.978,64.76,32.837,64.398,32.677z"/>
	<path fill="#CDCDCD" d="M175.027,34.861c0.035-0.898-0.659-1.764-0.605-2.655c2.173,0.933,4.235,1.92,6.145,2.97
		c2.504,1.383,4.855,2.83,6.882,4.373c-1.041,1.054,0.373,2.26,0.764,3.347c-0.139,0.503-0.352,1.003-0.273,1.516
		c-2.047-1.374-3.941-2.802-6.277-4.079c-1.632-1.032-3.773-1.854-5.464-2.857l0.53-0.002
		C175.409,36.706,176.178,35.667,175.027,34.861z"/>
	<path fill="#121212" d="M45.065,43.373c2.99-3.68,7.209-7.141,12.465-10.228c0.347,0.058,1.041,0.174,1.389,0.234
		c-0.417,0.264-0.833,0.528-1.245,0.792c0.347,0.156,0.7,0.312,1.052,0.469c0.67-0.262,1.338-0.526,2.004-0.79
		c0.267,0.016,0.797,0.046,1.06,0.062l-0.272,0.135c-0.694,0.345-1.358,0.706-2.023,1.063c-3.094,1.661-5.876,3.452-8.236,5.354
		c-0.7,0.549-1.374,1.109-1.934,1.693c-0.491,0.5-0.976,1.001-1.448,1.507c-0.05-0.175-0.153-0.519-0.204-0.694
		c-0.371,0.179-0.738,0.361-1.11,0.54C46.062,43.465,45.565,43.419,45.065,43.373z"/>
	<path fill="#B0B0B0" d="M61.79,33.913c0.393-0.193,0.793-0.381,1.19-0.572c1.047,0.827,1.141,1.792,1.533,2.706
		c0.089,0.28,0.445,0.469,1.066,0.563c-0.635,0.321-1.304,0.624-2.043,0.893c-1.071-1.107-0.595-2.414-2.018-3.455L61.79,33.913z"/>
	<path fill="#161616" d="M182.287,34.979c0.292-0.4,0.658-0.797,1.209-1.142c3.739,2.313,6.932,4.816,9.461,7.458
		c-0.763,0.322-1.522,0.648-2.267,0.977c-0.966-0.935-2.077-1.838-3.243-2.722c-2.027-1.543-4.378-2.99-6.882-4.373
		c0.144-0.062,0.436-0.184,0.581-0.243c0.629,0.354,1.417,0.677,2.484,0.576C183.194,35.323,182.753,35.144,182.287,34.979z"/>
	<path fill="#8D8D8D" d="M59.494,35.111c0.665-0.358,1.329-0.719,2.023-1.063c1.423,1.041,0.947,2.348,2.018,3.455
		c-0.764,0.368-1.513,0.744-2.306,1.1C60.718,37.434,60.758,36.184,59.494,35.111z"/>
	<path fill="#676767" d="M51.258,40.465c2.359-1.902,5.142-3.693,8.236-5.354c1.264,1.073,1.224,2.322,1.735,3.491
		c-3.059,1.534-5.811,3.2-8.255,4.954C51.471,42.668,51.888,41.487,51.258,40.465z"/>
	<path fill="#E3E3E3" d="M188.212,42.896c-0.392-1.086-1.805-2.292-0.764-3.347c1.166,0.884,2.277,1.787,3.243,2.722
		c3.09,3.165,5.049,6.566,5.951,10.012c-0.159,0.404-0.288,0.811-0.531,1.206l-0.55-0.17c-1.458-3.032-4.081-5.926-7.423-8.613
		c-0.049-0.073-0.148-0.22-0.199-0.294C187.86,43.899,188.073,43.398,188.212,42.896z"/>
	<path fill="#797979" d="M51.258,40.465c0.629,1.022,0.213,2.203,1.715,3.091c-0.655,0.529-1.338,1.05-2.039,1.567
		c-1.893-0.788-0.48-2.033-1.611-2.965C49.884,41.575,50.559,41.014,51.258,40.465z"/>
	<path fill="#030303" d="M190.691,42.271c0.745-0.329,1.503-0.655,2.267-0.977c6.421,6.767,8.855,14.316,7.314,21.659
		c0.44,0.177,0.668,0.397,0.693,0.661c0.318,1.208,0.675,2.43,1.622,3.572c0.521,0.689,1.15,1.408,0.933,2.154
		c-0.318,0.843-1.448,1.546-2.054,2.341c-0.481,0.627-0.416,1.302-0.366,1.955c1.933,0.193,3.267,0.928,4.135,1.707
		c-0.997,0.138-1.984,0.29-2.956,0.457c-0.511-0.618-1.136-1.22-2.043-1.732c-0.779-0.588-2.212-0.802-3.58-0.937
		c-1.017-1.089-2.479-2.125-2.837-3.321c-0.297-2.375,1.627-4.642,2.415-6.961c0.185-0.085,0.546-0.253,0.729-0.338
		c0.64-2.458,0.229-4.936,0.268-7.403c-0.044-0.948-0.392-1.883-0.589-2.825C195.74,48.837,193.781,45.436,190.691,42.271z"/>
	<path fill="#898989" d="M49.324,42.158c1.13,0.933-0.282,2.177,1.611,2.965l0.031,0.018c-0.685,0.579-1.369,1.158-1.954,1.757
		c-0.367-0.126-0.734-0.253-1.096-0.379c-0.233-0.496-0.481-1.004-1.155-1.417c0.326-0.487,0.708-0.965,1.115-1.438
		C48.348,43.16,48.833,42.659,49.324,42.158z"/>
	<path fill="#020202" d="M46.562,43.511c0.373-0.179,0.739-0.36,1.11-0.54c0.05,0.175,0.153,0.519,0.204,0.694
		c-0.407,0.473-0.789,0.951-1.115,1.438c-1.051,1.454-1.964,2.936-2.579,4.444c-0.853,2.32-1.76,4.667-1.586,7.031
		c-0.021,2-0.293,4.017,0.381,6.001c0.977,0.342,0.818,0.974,1.15,1.465c0.764,1.973,2.311,3.928,1.825,5.96
		c-0.486,1.027-1.542,1.979-2.638,2.894c-0.094,0.079-0.273,0.235-0.362,0.315c-1.899-0.005-3.268,0.636-4.141,1.353
		c-0.595,0.464-1.036,0.967-1.442,1.472c-0.288-0.076-0.858-0.223-1.146-0.296c-0.744,0.055-1.493,0.11-2.237,0.168
		c0.962-0.972,2.296-2.019,4.726-2.281c0.03-0.732,0.124-1.5-0.541-2.187c-0.699-0.758-1.735-1.47-1.943-2.308
		c0.05-0.728,0.585-1.417,1.125-2.09c0.977-1.201,1.185-2.494,1.661-3.746c0.485-0.232,0.64-0.508,0.466-0.829
		c-1.195-6.45,0.704-13.028,5.583-19.096C45.565,43.419,46.062,43.465,46.562,43.511z"/>
	<path fill="#9A9A9A" d="M46.761,45.103c0.673,0.414,0.921,0.921,1.155,1.417c0.361,0.126,0.729,0.252,1.096,0.379
		c-1.899,1.814-3.387,3.714-4.537,5.657c-0.689-0.709,0.407-1.401,0.416-2.11c-0.173-0.311-0.456-0.604-0.708-0.898
		C44.797,48.038,45.71,46.557,46.761,45.103z"/>
	<path fill="#BEBEBE" d="M42.596,56.578c-0.173-2.363,0.733-4.711,1.586-7.031c0.253,0.294,0.535,0.588,0.708,0.898
		c-0.009,0.709-1.105,1.401-0.416,2.11c-0.407,1.284-1.234,2.55-1.469,3.852L42.596,56.578z"/>
	<path fill="#343434" d="M197.063,63.698c1.051,0,2.103-0.004,3.159-0.016c0.03,0.691,0.03,1.38-0.055,2.07
		c-0.025-0.067-0.074-0.205-0.099-0.271c-0.104-0.292-0.198-0.583-0.292-0.875c-0.922,0.007-1.841,0.014-2.757,0.019
		c-0.208,0.209-0.407,0.418-0.596,0.632C196.403,64.72,196.647,64.194,197.063,63.698z"/>
	<path fill="#222222" d="M39.883,63.889c1.001,0.018,2.033-0.021,3.015,0.096c0.248,0.262,0.343,0.54,0.288,0.836
		c-1.126,0-2.252-0.004-3.377-0.009C39.715,64.502,39.739,64.194,39.883,63.889z"/>
	<path fill="#686868" d="M197.019,64.624c0.917-0.005,1.835-0.012,2.757-0.019c0.094,0.292,0.188,0.583,0.292,0.875
		c-1.166,0.271-2.449,0.337-3.734,0.28c0.021-0.126,0.065-0.379,0.089-0.505C196.611,65.042,196.811,64.833,197.019,64.624z"/>
	<path fill="#404040" d="M39.809,64.812c1.125,0.004,2.251,0.009,3.377,0.009c0.212,0.446,0.386,0.898,0.332,1.357
		c-0.104-0.096-0.317-0.289-0.427-0.386c-1.141,0.147-2.32,0.214-3.501,0.211C39.65,65.604,39.745,65.209,39.809,64.812z"/>
	<path fill="#A8A8A8" d="M196.333,65.76c1.285,0.057,2.569-0.009,3.734-0.28c0.025,0.067,0.074,0.205,0.099,0.271
		c0.298,0.875,1.29,1.656,1.626,2.526c-2.053-0.03-4.468-0.418-6.084,0.37C195.833,67.683,196.116,66.723,196.333,65.76z"/>
	<path fill="#6D6D6D" d="M39.59,66.004c1.181,0.002,2.36-0.064,3.501-0.211c0.109,0.097,0.322,0.29,0.427,0.386
		c0.445,1.029,0.565,2.079,0.609,3.126c-1.661-0.122-3.342-0.083-5.018-0.074c-0.584,0.028-1.016-0.174-1.463-0.312
		C38.054,67.915,38.971,66.98,39.59,66.004z"/>
	<path fill="#969696" d="M195.709,68.647c1.616-0.788,4.031-0.4,6.084-0.37l0.119,0.004c0.064,0.264,0.128,0.528,0.204,0.792
		c-2.098-0.007-4.751-0.588-6.367,0.285C195.74,69.183,195.72,68.827,195.709,68.647z"/>
	<path fill="#5D5D5D" d="M37.646,68.918c0.448,0.138,0.879,0.34,1.463,0.312c1.676-0.009,3.357-0.048,5.018,0.074
		c-0.054,0.315-0.129,0.629-0.213,0.944c-1.746-0.042-3.734-0.356-5.216,0.236C38.177,69.989,37.761,69.472,37.646,68.918z"/>
	<path fill="#838383" d="M195.749,69.359c1.616-0.873,4.269-0.292,6.367-0.285c-0.159,0.324-0.342,0.646-0.536,0.967
		c-1.815-0.478-3.917-0.379-5.885-0.259C195.709,69.676,195.735,69.465,195.749,69.359z"/>
	<path fill="#666666" d="M195.695,69.782c1.968-0.12,4.07-0.218,5.885,0.259c-0.222,0.214-0.441,0.427-0.659,0.641
		c-1.517-0.257-3.159-0.324-4.632,0.03C196.086,70.402,195.878,70.092,195.695,69.782z"/>
	<path fill="#4A4A4A" d="M38.699,70.485c1.481-0.593,3.47-0.278,5.216-0.236c-0.238,0.289-0.466,0.579-0.68,0.873
		c-1.204-0.069-2.424-0.078-3.629,0.009l-0.237,0.011C39.145,70.924,38.922,70.703,38.699,70.485z"/>
	<path fill="#515151" d="M196.289,70.712c1.473-0.354,3.115-0.287,4.632-0.03c-0.219,0.223-0.437,0.448-0.66,0.67h-0.248
		c-1.076-0.055-2.152-0.016-3.223,0C196.622,71.137,196.454,70.924,196.289,70.712z"/>
	<path fill="#323232" d="M39.605,71.13c1.205-0.087,2.425-0.078,3.629-0.009c-0.5,0.73-1.001,1.594-2.732,1.879
		C40.488,72.35,39.878,71.757,39.605,71.13z"/>
	<path fill="#323232" d="M196.791,71.353c1.071-0.016,2.147-0.055,3.223,0c-0.154,0.558-0.427,1.109-0.823,1.64
		C197.678,72.8,197.271,71.953,196.791,71.353z"/>
	<path fill="#B9B9B9" d="M42.953,73.213c0.089-0.08,0.268-0.236,0.362-0.315c0.178,0.051,0.535,0.149,0.713,0.198
		c1.805,0.163,3.625-0.089,5.419-0.181c1.339,0.06,1.399,0.808,2.386,1.111c-1.299,0.267-1.189,0.942-1.343,1.489
		c-0.08,0.259-0.154,0.521-0.218,0.783c-0.263-0.211-0.525-0.418-0.794-0.625c-3.833,0.448-7.848,0.432-11.717,0.806
		c0.59-0.616,1.146-1.238,1.651-1.867l-0.6-0.046C39.685,73.85,41.053,73.208,42.953,73.213z"/>
	<path fill="#525252" d="M44.028,73.096c2.579-0.009,5.117-0.308,7.696-0.241c0.083,0.034,0.244,0.107,0.328,0.142
		c-0.432,0.076-0.858,0.159-1.27,0.253c0.337,0.062,1.006,0.184,1.344,0.246c0.079,0.606-0.069,1.213-0.139,1.819
		c0.005,0.508,0.104,1.016,0.218,1.523c2.563-0.326,5.251-0.25,7.879-0.197c1.195,0.029,2.271,0.45,2.474,1.003
		c1.349,2.126,1.478,4.357,1.879,6.551c0.02,1.757,0.242,3.519-0.168,5.271c-2.395,0.117-4.8,0.016-7.2,0.06
		c-1.642,0.012-3.397,0.317-4.934-0.083c-0.035,0.822-0.134,1.645-0.104,2.469c-0.03-0.161-0.095-0.48-0.129-0.641
		c-0.114-0.84-0.317-1.72-1.438-2.414l-0.045-0.156c-0.099-0.66-0.114-1.318-0.079-1.976c0.257,0.246,0.524,0.494,0.802,0.74
		c0.025-0.117,0.08-0.352,0.104-0.469c3.6-0.843,7.859-0.042,11.668-0.461c0.699-0.138,0.579-0.579,0.704-0.864
		c0.075-1.334,0.223-2.685-0.362-4.001c-0.451-1.065-0.179-2.409-1.88-3.229c-3.292-0.062-6.614-0.081-9.907,0.045
		c0.203-0.519,0.169-1.047,0.153-1.571c0.011-0.177,0.041-0.528,0.05-0.703c0.09-0.728,0.258-1.456,0.159-2.187
		c-0.986-0.303-1.046-1.052-2.386-1.111C47.653,73.007,45.833,73.259,44.028,73.096z"/>
	<path fill="#0D0D0D" d="M53.589,73.115c3.684-0.128,7.357-0.324,11.052-0.427c-0.356,1.688,0.045,3.379,0.328,5.062
		c-0.085,0.275-0.208,0.551-0.332,0.824c-1.166-1.047-1.156-2.296-2.445-3.326c-1.74-0.526-3.927-0.468-5.896-0.329
		c-1.458,0.117-3.179-0.192-4.309,0.395c0.07-0.606,0.218-1.213,0.139-1.819c-0.338-0.062-1.007-0.184-1.344-0.246
		c0.412-0.094,0.838-0.177,1.27-0.253C52.433,73.027,53.202,73.085,53.589,73.115z"/>
	<path fill="#313131" d="M64.641,72.688l0.545-0.071c0.585,1.736-0.094,3.535,1.131,5.235c0.847-0.129,1.849-0.267,2.157-0.708
		c0.605-0.772-0.085-1.596,0.148-2.387c0.203-0.057,0.6-0.167,0.798-0.225c0.546,0.535,1.086,1.07,1.568,1.619
		c-0.168,0.099-0.501,0.294-0.67,0.391c0.159,0.434,0.427,0.871,0.348,1.316c-0.68,0.453-1.959,0.469-3.005,0.593
		c-0.119,0.786-0.044,1.573,0.044,2.359c-0.113,0.126-0.341,0.376-0.451,0.5c-1.92-0.987-0.451-2.526-2.286-3.56
		C64.686,76.066,64.284,74.375,64.641,72.688z"/>
	<path fill="#464646" d="M65.186,72.616c1.955,0.324,3.273,1.098,4.234,1.916c-0.198,0.057-0.595,0.167-0.798,0.225
		c-0.233,0.791,0.457,1.615-0.148,2.387c-0.308,0.441-1.31,0.579-2.157,0.708C65.092,76.151,65.771,74.353,65.186,72.616z"/>
	<path fill="#323232" d="M173.382,72.896c0.574-0.099,1.15-0.202,1.73-0.308c0.217,1.047,0.217,2.104-0.081,3.146
		c-0.753,2.304-1.056,4.66-2.647,6.886c-0.129-0.386-0.258-0.771-0.353-1.157c0.145-1.024,0.705-2.122-0.163-3.103
		c-0.179,0.089-0.541,0.266-0.724,0.355c-0.561-0.004-1.121-0.02-1.676-0.034c-0.343-0.561,0.04-1.362-1.324-1.642
		c0.917-1.199,1.914-2.423,3.644-3.429c0.322,1.107-0.739,2.205-0.168,3.307c0.149,0.361,0.853,0.552,1.462,0.735
		C174.493,76.179,174.69,74.408,173.382,72.896z"/>
	<path fill="#191919" d="M175.112,72.589l0.371,0.126c0.099,1.188-0.034,2.382,0.308,3.565c1.175-0.62,0.817-1.824,2.826-2.067
		c2.345-0.085,4.745-0.164,7.085-0.021c0.982,0.023,1.557,0.407,2.087,0.742l0.07,0.22c-3.193,0.151-6.417-0.124-9.605,0.06
		c-1.528,0.747-1.344,1.911-2.083,2.839c-0.332,0.241-0.675,0.479-1.021,0.716c-0.173-1.011-0.039-2.023-0.12-3.034
		C175.33,74.693,175.33,73.636,175.112,72.589z"/>
	<path fill="#090909" d="M175.483,72.715c3.996,0.051,7.988,0.386,11.97,0.397c0.307-0.034,0.917-0.103,1.225-0.138
		c0.154,0.326-0.144,0.569-0.893,0.73c-0.04,0.41-0.05,0.818,0.004,1.229c-0.53-0.335-1.105-0.719-2.087-0.742
		c-2.34-0.143-4.74-0.064-7.085,0.021c-2.008,0.243-1.651,1.447-2.826,2.067C175.449,75.097,175.583,73.902,175.483,72.715z"/>
	<path fill="#959595" d="M187.657,72.867c2.846,0.062,5.707,0.058,8.538,0.243c-2.375,0.129-4.759,0.053-7.115-0.099
		c-0.065,0.292-0.109,0.581-0.134,0.869c-0.214,0.048-0.645,0.146-0.862,0.195c-0.035,0.356-0.065,0.712-0.084,1.071l-0.139,0.009
		l-0.07-0.22c-0.054-0.412-0.044-0.82-0.004-1.229c0.749-0.161,1.046-0.404,0.893-0.73c-0.308,0.035-0.918,0.104-1.225,0.138
		L187.657,72.867z"/>
	<path fill="#484848" d="M171.78,73.546c0.511-0.227,1.031-0.45,1.602-0.65c1.309,1.511,1.111,3.282-0.298,4.757
		c-0.609-0.184-1.313-0.375-1.462-0.735c-0.571-1.102,0.49-2.2,0.168-3.307L171.78,73.546z"/>
	<path fill="#B5B5B5" d="M189.08,73.011c2.355,0.152,4.74,0.228,7.115,0.099l0.462,0.021c1.368,0.135,2.801,0.349,3.58,0.937
		c0.059,0.48,0.352,0.939,0.863,1.36c-3.209-0.195-6.422-0.365-9.645-0.501c-0.769-0.043-1.378,0.241-2.043,0.375
		c-0.088-0.314-0.183-0.625-0.288-0.935c-0.257-0.074-0.778-0.218-1.041-0.292c0.217-0.048,0.648-0.147,0.862-0.195
		C188.971,73.592,189.015,73.303,189.08,73.011z"/>
	<path fill="#F5F5F5" d="M50.49,75.515c0.154-0.547,0.044-1.222,1.343-1.489c0.099,0.73-0.069,1.458-0.159,2.187
		c-0.272,0.143-0.545,0.29-0.818,0.435C50.732,76.268,50.599,75.892,50.49,75.515z"/>
	<path fill="#F3F3F3" d="M188.083,74.075c0.263,0.074,0.783,0.218,1.041,0.292c0.04,0.866,0.12,1.741-0.263,2.595
		c-0.312-0.395-0.599-0.795-0.812-1.204c-0.015-0.154-0.039-0.461-0.049-0.613C188.019,74.787,188.048,74.431,188.083,74.075z"/>
	<path fill="#D3D3D3" d="M200.237,74.068c0.907,0.512,1.532,1.114,2.043,1.732c0.357,0.439,0.679,0.887,0.941,1.341l0.135,0.229
		c0.272,0.751,0.51,1.504,0.644,2.265c-3.897,0.069-7.675-0.452-11.548-0.512c-0.852-0.007-1.656-0.14-2.445-0.266
		c-0.005,0.269-0.005,0.54,0,0.811c-0.104,0.172-0.312,0.517-0.416,0.689c-0.06-0.189-0.174-0.563-0.229-0.751
		c0.373-0.664-0.673-1.245-1.081-1.851c-0.015-0.138-0.04-0.414-0.054-0.551c-0.065-0.482-0.129-0.964-0.179-1.445
		c0.213,0.409,0.501,0.809,0.812,1.204c0.383-0.854,0.303-1.729,0.263-2.595c0.104,0.31,0.199,0.62,0.288,0.935
		c0.074,0.273,0.14,0.549,0.2,0.827c1.214,0.246,2.567,0.039,3.827,0.207c2.807,0.342,5.807,0.046,8.539,0.549
		c-0.133-0.505-0.341-1.008-0.877-1.456C200.589,75.007,200.296,74.548,200.237,74.068z"/>
	<path fill="#DDDDDD" d="M38.812,74.566l0.6,0.046c-0.506,0.629-1.061,1.251-1.651,1.867c-0.303,0.352-0.495,0.709-0.635,1.073
		c4.007,0.071,7.968-0.29,11.935-0.496c0.948,0.018,1.269-0.384,1.21-0.758c0.064-0.262,0.139-0.524,0.218-0.783
		c0.109,0.376,0.243,0.753,0.367,1.132c0.272-0.145,0.545-0.292,0.818-0.435c-0.009,0.175-0.039,0.526-0.05,0.703
		c-1.408,0.783-1.715,1.845-1.239,2.82c-0.005,0.154-0.016,0.462-0.02,0.616c-0.293-0.092-0.585-0.182-0.877-0.271
		c-1.607,0.255-3.333,0.25-4.994,0.37c-2.4,0.124-4.795,0.36-7.219,0.319c-0.655,0.023-1.056-0.248-1.522-0.407
		c0.144-0.765,0.292-1.53,0.451-2.294c0.08-0.186,0.238-0.558,0.318-0.744c0.242-0.434,0.52-0.866,0.848-1.286
		C37.776,75.533,38.217,75.03,38.812,74.566z"/>
	<path fill="#282828" d="M51.987,75.315c1.13-0.587,2.851-0.278,4.309-0.395c1.968-0.14,4.156-0.197,5.896,0.329
		c1.289,1.029,1.279,2.278,2.445,3.326c0.124-0.273,0.247-0.549,0.332-0.824c1.834,1.033,0.366,2.572,2.286,3.56
		c0.109-0.124,0.337-0.374,0.451-0.5c1.021,5.535,2.951,11.025,3.779,16.569c0.421,2.053,0.515,4.127,1.394,6.158
		c-0.734,0.104-1.448,0.333-1.3,0.737c-0.04,1.764,0.501,3.564,1.949,5.207l-0.01,0.069c-0.546,0.113-1.086,0.223-1.626,0.335
		c-0.253-0.519-0.511-1.036-0.669-1.562c-1.181-5.28-1.765-10.586-3.129-15.86c0.243-1.506-0.515-2.99-0.589-4.492
		c-0.506-1.661-0.382-3.354-1.142-4.998c-0.282-0.579-0.153-1.266-1.179-1.697c-0.198,1.029-0.129,2.062-0.224,3.094l-0.52-0.174
		c-0.402-2.194-0.531-4.424-1.879-6.551c-0.203-0.554-1.279-0.974-2.474-1.003c-2.627-0.053-5.316-0.129-7.879,0.197
		C52.091,76.331,51.992,75.823,51.987,75.315z"/>
	<path fill="#C1C1C1" d="M189.412,75.301c0.666-0.133,1.275-0.418,2.043-0.375c3.223,0.136,6.436,0.306,9.645,0.501
		c0.536,0.448,0.744,0.951,0.877,1.456c-2.732-0.503-5.731-0.207-8.539-0.549c-1.26-0.168-2.613,0.039-3.827-0.207
		C189.551,75.85,189.486,75.575,189.412,75.301z"/>
	<path fill="#2F2F2F" d="M178.255,75.214c3.188-0.184,6.412,0.092,9.605-0.06l0.139-0.009c0.01,0.151,0.035,0.459,0.049,0.613
		c0.05,0.48,0.114,0.962,0.179,1.445c-0.838-0.896-3.029-0.618-4.696-0.641c-1.636,0.021-3.267-0.03-4.899,0.012
		c-0.817-0.042-1.016,0.395-1.244,0.664c-0.917,1.417-1.205,2.896-1.642,4.354c-0.571-1.183,0.213-2.361,0.427-3.539
		C176.912,77.125,176.728,75.96,178.255,75.214z"/>
	<path fill="#1A1A1A" d="M205.235,75.343l0.044-0.005c0.54,0.552,1.056,1.112,1.419,1.695c-1.191-0.089-2.51-0.416-3.477,0.108
		c-0.262-0.455-0.584-0.902-0.941-1.341C203.251,75.632,204.239,75.48,205.235,75.343z"/>
	<path fill="#C9C9C9" d="M37.761,76.479c3.869-0.374,7.884-0.358,11.717-0.806c0.269,0.207,0.531,0.414,0.794,0.625
		c0.058,0.374-0.263,0.776-1.21,0.758c-3.967,0.207-7.928,0.567-11.935,0.496C37.266,77.189,37.458,76.831,37.761,76.479z"/>
	<path fill="#212121" d="M33.987,75.91c0.744-0.058,1.493-0.113,2.237-0.168c0.287,0.074,0.858,0.22,1.146,0.296
		c-0.328,0.42-0.605,0.853-0.848,1.286c-1.125-0.099-2.217,0.03-3.229,0.257c-0.06-0.083-0.184-0.244-0.249-0.324
		C33.144,76.78,33.63,76.351,33.987,75.91z"/>
	<path fill="#262626" d="M172.385,82.621c1.591-2.226,1.894-4.582,2.647-6.886c0.081,1.011-0.054,2.023,0.12,3.034
		c0.347-0.237,0.689-0.476,1.021-0.716c-0.213,1.178-0.998,2.356-0.427,3.539c-0.144,0.894-0.392,1.783-0.476,2.678l-0.625,0.011
		c0.095-1.005,0.317-2.026-0.232-3.013c-1.259,1.387-1.141,2.933-1.592,4.403c-0.307,2.421-1.032,4.828-1.179,7.251
		c-0.224,0.988-0.556,1.971-0.556,2.965c-1.24,4.66-1.15,9.387-3.034,14.015c-0.893-0.117-1.647-0.356-2.276-0.662l0.083-0.053
		c2.555-1.5,2.48-3.581,2.147-5.388c-0.883,0.058-1.746,0.163-2.574,0.312c-0.56,1.156,0.05,2.449-1.244,3.51
		c-0.426-0.611-0.804-1.231-1.047-1.862c1.662-0.841-0.187-2.442,2.593-2.952c0.328,0.239,0.269,0.859,1.181,0.696
		c0.897-1.704,0.844-3.47,1.25-5.207c0.828-5.632,2.609-11.222,3.867-16.833C172.126,81.85,172.255,82.235,172.385,82.621z"/>
	<path fill="#1A1A1A" d="M70.318,76.542c0.169-0.096,0.502-0.292,0.67-0.391c2.048,2.593,3.391,5.297,4.344,8.019
		c-0.863,0.237-1.463,0.602-0.982,1.061c0.576,0.6,0.074,1.199-0.803,1.669c-0.62-1.913-1.667-3.792-2.9-5.636
		c-0.724-0.98-1.214-2.108-2.985-2.813c1.046-0.124,2.326-0.14,3.005-0.593C70.745,77.412,70.477,76.976,70.318,76.542z"/>
	<path fill="#4E4E4E" d="M177.388,77.238c0.228-0.269,0.427-0.706,1.244-0.664c1.632-0.042,3.263,0.009,4.899-0.012
		c1.667,0.023,3.858-0.254,4.696,0.641c0.015,0.138,0.039,0.414,0.054,0.551l-0.064,0.294c-2.172-0.599-4.766-0.319-7.155-0.379
		c-1.026,0.048-2.39-0.108-3.079,0.349c-0.793,0.399-0.778,0.969-0.972,1.47c-0.739,2.042-1.071,4.118-0.917,6.188
		c0.103,0.43,0.039,0.935,0.698,1.282c1.22,0.2,2.544,0.055,3.813,0.067c2.222,0,4.447,0.043,6.66-0.083
		c0.213,0.165,0.426,0.333,0.639,0.5c0.219-0.962,0.272-1.93,0.238-2.894c0.024-0.492,0.158-0.976,0.272-1.461
		c0.105,0.806,0.203,1.617,0.089,2.425c-0.119,0.715-0.064,1.432,0.149,2.141c0.272-0.114,0.545-0.231,0.817-0.347
		c-0.069,0.437-0.094,0.875-0.114,1.314c-0.332,0.781-1.279,1.479-1.477,2.278c-0.149-0.406-0.303-0.808-0.462-1.21
		c-3.58,0.106-7.175,0.122-10.755,0.042c-0.933-0.014-1.3-0.51-1.383-0.869c-0.149-0.939,0.009-1.885-0.333-2.818
		c0.125-0.59,0.248-1.181,0.322-1.773c0.084-0.896,0.333-1.785,0.476-2.678C176.183,80.134,176.47,78.655,177.388,77.238z"/>
	<path fill="#353535" d="M203.221,77.141c0.967-0.524,2.286-0.197,3.477-0.108l0.083,0.009c0.625,1.063,1.121,2.147,1.379,3.248
		c-1.007-0.641-1.429-1.564-3.238-1.828c-0.992-0.166-1.189-0.694-1.566-1.091L203.221,77.141z"/>
	<path fill="#A0A0A0" d="M50.386,79.736c-0.477-0.976-0.169-2.037,1.239-2.82c0.016,0.524,0.05,1.052-0.153,1.571
		c-0.367,0.317-0.902,0.611-1.001,0.979L50.386,79.736z"/>
	<path fill="#444444" d="M32.97,77.162l0.075,0.097c0.065,0.08,0.189,0.241,0.249,0.324c1.012-0.228,2.103-0.356,3.229-0.257
		c-0.081,0.186-0.238,0.558-0.318,0.744c-0.327,0.478-0.867,0.923-1.73,1.236c-2.053,0.735-2.187,2.044-2.301,3.146
		c-0.025,1.794,0.258,3.643,1.691,5.329c0.666-0.494,0.511-1.098,0.541-1.651c-0.06-1.094-0.099-2.191,0.199-3.278
		c0.779,0.298,0.551,0.785,0.629,1.199c0.055,0.997-0.009,1.994-0.015,2.993c-0.009,0.417-0.02,0.838-0.015,1.261
		c-0.144,1.026-0.06,2.053-0.005,3.082c-0.336-0.271-0.778-0.367-1.318-0.119c-2.416-1.704-2.107-3.866-2.281-5.818
		c-0.144,0.487-0.352,0.972-0.61,1.449c-0.015-0.147-0.05-0.439-0.064-0.585c-0.02-0.283-0.029-0.563-0.035-0.843
		c-0.004-0.546-0.134-1.088-0.158-1.633c0.5-0.517,0.333-1.095,0.461-1.642C31.499,80.501,31.95,78.799,32.97,77.162z"/>
	<path fill="#1A1A1A" d="M168.145,77.04c1.364,0.28,0.981,1.082,1.324,1.642c0.556,0.014,1.116,0.03,1.676,0.034
		c-1.949,2.35-3.5,4.775-4.528,7.247c-0.372-0.176-0.734-0.351-1.095-0.53c0.293-0.473,0.426-0.965,0.398-1.456
		c-0.323-0.064-0.963-0.193-1.281-0.257C165.506,81.461,166.608,79.22,168.145,77.04z"/>
	<path fill="#505050" d="M203.356,77.371c0.377,0.397,0.575,0.926,1.566,1.091c1.81,0.264,2.231,1.188,3.238,1.828
		c0.5,1.109,0.485,2.265,0.729,3.393c-0.839,1.398-0.61,2.88-1.493,4.276c-0.51,0.742-0.856,1.622-2.37,2.074
		c-0.362-1.041-0.392-2.123,0.322-3.135c0.972-0.962,1.145-2.037,1.493-3.075c0.417-1.372,0.089-2.816-1.434-4.031
		c-0.184,0.081-0.55,0.241-0.733,0.322c-0.224,0.395-0.322,0.804-0.378,1.212c-0.104-0.487-0.208-0.974-0.268-1.46l-0.03-0.23
		C203.866,78.875,203.628,78.122,203.356,77.371z"/>
	<path fill="#595959" d="M177.983,78.019c0.689-0.457,2.053-0.301,3.079-0.349c2.39,0.06,4.983-0.22,7.155,0.379
		c-0.045,0.172-0.134,0.521-0.174,0.694c-2.746-0.373-5.647-0.163-8.464-0.214c-1.339-0.108-1.895,0.563-2.568,0.96
		C177.205,78.987,177.189,78.418,177.983,78.019z"/>
	<path fill="#6F6F6F" d="M188.281,77.754c0.408,0.606,1.454,1.188,1.081,1.851c-0.361,0.218-0.61,0.462-0.58,0.744
		c-0.153,0.912-0.292,1.824-0.367,2.738c-0.114,0.485-0.248,0.969-0.272,1.461c-0.64-0.273-1.121-0.733-2.118-0.708
		c-2.474-0.112-4.958,0.071-7.432-0.007c-0.665-0.007-1.468-0.131-1.403-0.503c-0.189-0.992-0.109-2.001,0.243-2.984
		c0.218-0.314,0.228-0.847,1.19-0.859c3.085-0.149,6.199,0.016,9.298-0.069c0.029-0.17,0.089-0.507,0.124-0.677
		c0.04-0.172,0.129-0.522,0.174-0.694L188.281,77.754z"/>
	<path fill="#5F5F5F" d="M34.474,79.305c0.863-0.312,1.403-0.758,1.73-1.236c-0.159,0.765-0.307,1.53-0.451,2.294
		c-0.025,0.152-0.07,0.458-0.089,0.609c-0.258,1.022-0.357,2.049-0.432,3.078c-0.079-0.414,0.149-0.9-0.629-1.199
		c-0.297,1.086-0.258,2.184-0.199,3.278c-0.03,0.553,0.125,1.157-0.541,1.651c-1.433-1.686-1.716-3.535-1.691-5.329
		C32.287,81.349,32.42,80.04,34.474,79.305z"/>
	<path fill="#6D6D6D" d="M51.471,78.487c3.292-0.126,6.614-0.108,9.907-0.045c1.701,0.82,1.429,2.164,1.88,3.229
		c-0.407,0.933-0.228,1.883-0.337,2.827c0.089,0.358-0.883,0.377-1.409,0.43c-2.638,0.09-5.271-0.089-7.879-0.23
		c-1.13-0.082-1.607,0.476-2.281,0.779c-0.089-2.005,0.456-4.068-0.882-6.011C50.569,79.098,51.104,78.804,51.471,78.487z"/>
	<path d="M67.661,78.45c1.771,0.705,2.261,1.833,2.985,2.813c1.233,1.845,2.281,3.724,2.9,5.636c0.04,0.983,0.704,1.925,0.947,2.899
		c0.426,1.227,0.407,2.474,0.778,3.703c0.431,1.562-0.223,3.142,0.298,4.701c-0.496,1.764-0.729,3.562-2.023,5.253l-0.669,0.08
		c-0.878-2.03-0.972-4.104-1.394-6.158c-0.828-5.544-2.757-11.034-3.779-16.569C67.616,80.023,67.542,79.236,67.661,78.45z"/>
	<path d="M171.145,78.716c0.184-0.089,0.545-0.266,0.724-0.355c0.868,0.981,0.308,2.079,0.163,3.103
		c-1.258,5.611-3.039,11.201-3.867,16.833c-0.406,1.737-0.353,3.503-1.25,5.207c-0.912,0.163-0.853-0.457-1.181-0.696
		c-0.287-1.029-0.812-2.04-1.129-3.066c0.333-1.862-0.685-3.716-0.269-5.585c0.506-2.146,0.759-4.313,1.815-6.42
		c0.223-0.586,0.308-1.183,0.466-1.773C167.645,83.492,169.196,81.066,171.145,78.716z"/>
	<path fill="#636363" d="M177.011,79.488c0.673-0.397,1.229-1.068,2.568-0.96c2.817,0.051,5.718-0.159,8.464,0.214
		c-0.034,0.17-0.095,0.507-0.124,0.677c-3.099,0.085-6.213-0.08-9.298,0.069c-0.962,0.012-0.972,0.544-1.19,0.859
		c-0.352,0.983-0.432,1.992-0.243,2.984c-0.064,0.372,0.738,0.496,1.403,0.503c2.475,0.078,4.958-0.105,7.432,0.007
		c0.997-0.025,1.478,0.434,2.118,0.708c0.035,0.964-0.019,1.932-0.238,2.894c-0.213-0.168-0.426-0.335-0.639-0.5
		c-2.212,0.126-4.438,0.083-6.66,0.083c-1.27-0.012-2.594,0.133-3.813-0.067c-0.66-0.347-0.595-0.852-0.698-1.282
		C175.94,83.606,176.272,81.53,177.011,79.488z"/>
	<path fill="#E6E6E6" d="M190.007,78.857c0.789,0.126,1.593,0.259,2.445,0.266c3.873,0.06,7.65,0.582,11.548,0.512l0.03,0.23
		c-0.535,0.402-0.848,1.091-2.123,1.072c-3.648-0.184-7.283-0.478-10.967-0.491c-0.323-0.257-0.64-0.517-0.933-0.779
		C190.002,79.397,190.002,79.125,190.007,78.857z"/>
	<path fill="#010101" d="M50.386,79.736l0.084-0.271c1.338,1.943,0.793,4.006,0.882,6.011c-0.009,0.507-0.014,1.015-0.104,1.52
		c-0.024,0.117-0.079,0.352-0.104,0.469c-0.278-0.246-0.545-0.494-0.802-0.74c-0.1-2.125-0.254-4.251,0.024-6.374
		C50.37,80.198,50.38,79.891,50.386,79.736z"/>
	<path fill="#020202" d="M188.782,80.35c-0.03-0.282,0.219-0.526,0.58-0.744c0.055,0.188,0.169,0.562,0.229,0.751
		c0.109,1.718,0.035,3.436,0.024,5.154c-0.277,0-0.833,0.002-1.11,0.002c0.114-0.808,0.016-1.619-0.089-2.425
		C188.49,82.173,188.629,81.262,188.782,80.35z"/>
	<path fill="#FAFAFA" d="M190.007,79.667c0.293,0.262,0.61,0.521,0.933,0.779c3.685,0.014,7.319,0.308,10.967,0.491
		c1.275,0.019,1.588-0.67,2.123-1.072c0.06,0.487,0.164,0.974,0.268,1.46c0.433,2.353,0.358,4.715,0.304,7.074
		c-1.216-0.418-2.718-0.585-4.206-0.588c-3.659-0.004-7.204-0.445-10.838-0.54c0.04-0.588,0.055-1.176,0.058-1.762
		c0.011-1.718,0.085-3.436-0.024-5.154C189.694,80.185,189.903,79.84,190.007,79.667z"/>
	<path fill="#F3F3F3" d="M49.488,80.081c0.292,0.089,0.584,0.179,0.877,0.271c-0.278,2.123-0.124,4.249-0.024,6.374
		c-0.036,0.657-0.021,1.316,0.079,1.976c-0.392-0.356-0.833-0.698-1.264-1.043c-4.2,0.225-8.435,0.312-12.621,0.613
		c-0.302,0.218-0.589,0.438-0.877,0.664c-0.114-0.159-0.343-0.476-0.457-0.632c-0.005-0.423,0.005-0.843,0.015-1.261
		c0.972-0.76,2.936-0.616,4.546-0.71c3.304-0.124,6.581-0.572,9.907-0.335c0.209-1.406,0.1-2.816-0.054-4.222
		c-0.362,0.28-0.714,0.563-1.07,0.845c-4.071-0.037-8.044,0.535-12.105,0.461c-0.133-0.709-0.034-1.46-0.778-2.11
		c0.02-0.151,0.064-0.457,0.089-0.609c0.466,0.159,0.868,0.43,1.522,0.407c2.424,0.042,4.819-0.195,7.219-0.319
		C46.156,80.331,47.881,80.336,49.488,80.081z"/>
	<path fill="#656565" d="M204.675,80.113c0.183-0.081,0.55-0.241,0.733-0.322c1.522,1.215,1.85,2.66,1.434,4.031
		c-0.348,1.038-0.521,2.113-1.493,3.075c0.035-1.096,0.006-2.191,0.025-3.287C205.428,82.435,204.748,81.287,204.675,80.113z"/>
	<path fill="#323232" d="M204.297,81.326c0.056-0.409,0.154-0.817,0.378-1.212c0.073,1.173,0.753,2.322,0.699,3.498
		c-0.019,1.095,0.01,2.191-0.025,3.287c-0.714,1.013-0.684,2.095-0.322,3.135c1.513-0.453,1.86-1.332,2.37-2.074
		c0.883-1.396,0.654-2.878,1.493-4.276c0.273,1.217-0.154,2.437,0.035,3.656c-0.229,1.029-0.248,2.065-0.402,3.096
		c-0.074,0.386-0.164,0.77-0.232,1.158c-0.194-0.025-0.575-0.076-0.763-0.101c-0.26,0.956-0.909,1.888-2.282,2.627
		c-0.312-0.241-0.619-0.482-0.917-0.726c0.114-1.107,0.392-2.212,0.337-3.321c-0.04-0.559-0.069-1.117-0.064-1.672
		C204.655,86.041,204.729,83.678,204.297,81.326z"/>
	<path fill="#FEFEFE" d="M35.664,80.972c0.744,0.65,0.645,1.401,0.778,2.11c4.061,0.074,8.034-0.498,12.105-0.461
		c0.356-0.282,0.708-0.565,1.07-0.845c0.153,1.406,0.263,2.816,0.054,4.222c-3.326-0.237-6.604,0.211-9.907,0.335
		c-1.611,0.094-3.574-0.05-4.546,0.71c0.006-1,0.07-1.996,0.015-2.993C35.306,83.021,35.405,81.994,35.664,80.972z"/>
	<path fill="#181818" d="M65.182,81.275c1.026,0.432,0.897,1.118,1.179,1.697c0.759,1.645,0.636,3.337,1.142,4.998
		c0.074,1.502,0.833,2.986,0.589,4.492c-0.446,0.214-1.08,0.416-0.981,0.763c-0.095,1.199-0.011,2.426-0.917,3.572
		c-1.195,0.12-2.42,0.142-3.635,0.112c-2.697-0.055-5.409,0.09-8.086-0.112c-0.273-0.347-0.591-0.691-1.255-0.917
		c-0.456-0.388-0.332-0.9-0.426-1.339c0.138-0.067,0.406-0.2,0.54-0.265c2.579-0.039,5.157-0.176,7.741-0.089
		c1.448,0.046,2.906,0.007,4.343-0.094c0.868-1.16,0.689-2.407,0.64-3.613c-0.148-1.098,0.079-2.216-0.486-3.293
		c-0.297-0.935-0.401-1.879-0.61-2.818C65.052,83.338,64.983,82.304,65.182,81.275z"/>
	<path fill="#161616" d="M172.821,85.671c0.451-1.47,0.333-3.016,1.592-4.403c0.55,0.987,0.328,2.008,0.232,3.013
		c-0.732,3.172-1.284,6.376-0.769,9.566c0.283,0.809,2.381,0.735,3.714,0.732c2.579-0.08,5.26,0.189,7.76-0.216
		c0.312,0.06,0.634,0.12,0.952,0.182c0.114-0.478,0.233-0.956,0.357-1.433c0.174,0.025,0.525,0.071,0.705,0.097
		c-0.114,1.148-0.586,2.28-0.824,3.424l-0.1-0.004c-0.178-0.009-0.536-0.027-0.713-0.035c-0.298,0.207-0.571,0.423-0.844,0.639
		c-0.526,0.053-1.042,0.138-1.582,0.14c-3.153-0.565-6.599-0.064-9.868-0.347c-1.298-1.309,0-2.882-1.793-4.104
		C171.789,90.5,172.514,88.092,172.821,85.671z"/>
	<path fill="#606060" d="M63.258,81.67c0.585,1.316,0.437,2.667,0.362,4.001c-0.125,0.285-0.005,0.726-0.704,0.864
		c-3.809,0.42-8.068-0.381-11.668,0.461c0.089-0.505,0.094-1.013,0.104-1.52c0.674-0.303,1.151-0.861,2.281-0.779
		c2.608,0.141,5.241,0.32,7.879,0.23c0.525-0.053,1.498-0.071,1.409-0.43C63.03,83.554,62.851,82.603,63.258,81.67z"/>
	<path fill="#BBBBBB" d="M29.178,85.288c0.396-0.498,0.49-1.139,1.552-1.452c0.024,0.545,0.154,1.087,0.158,1.633
		C30.318,85.407,29.748,85.348,29.178,85.288z"/>
	<path fill="#0A0A0A" d="M162.189,102.53c-1.189-6.284,0.184-12.61,2.45-18.811c0.318,0.064,0.958,0.193,1.281,0.257
		c0.028,0.491-0.105,0.983-0.398,1.456c0.361,0.179,0.724,0.354,1.095,0.53c-0.158,0.59-0.243,1.188-0.466,1.773
		c-1.056,2.106-1.309,4.274-1.815,6.42c-0.416,1.87,0.601,3.723,0.269,5.585c-0.219-0.321-0.462-0.639-0.689-0.953
		c-0.471,1.167-0.659,2.356-1.096,3.523C162.661,102.367,162.349,102.478,162.189,102.53z"/>
	<path fill="#C5C5C5" d="M208.889,83.683c1.567,0.521,1.687,1.521,2.151,2.317c-0.55-0.06-1.101-0.131-1.646-0.198
		c-0.055,0.257-0.114,0.515-0.174,0.772c-0.1,0.255-0.198,0.51-0.297,0.765C208.735,86.12,209.163,84.899,208.889,83.683z"/>
	<path fill="#3D3D3D" d="M64.438,84.195l0.52,0.174c0.209,0.939,0.313,1.883,0.61,2.818c-0.471,1.261,0.074,2.547-0.401,3.806
		c-0.218,0.31-0.183,0.827-1.145,0.832c-3.714,0.14-7.478-0.074-11.182,0.142c-0.148,0.134-0.451,0.404-0.6,0.54l-0.154,0.11
		c-0.014-0.177-0.04-0.528-0.054-0.705c-0.03-0.825,0.069-1.647,0.104-2.469c1.537,0.4,3.292,0.094,4.934,0.083
		c2.399-0.043,4.805,0.058,7.2-0.06C64.68,87.713,64.458,85.952,64.438,84.195z"/>
	<path fill="#0A0A0A" d="M74.35,85.23c-0.48-0.459,0.119-0.824,0.982-1.061c1.918,5.393,3.277,10.884,2.562,16.351
		c-0.451,0.698-0.58,1.426-0.772,2.147c-0.422-1.493-0.684-3.006-1.552-4.465c-0.521-1.56,0.133-3.14-0.298-4.701
		c-0.371-1.229-0.352-2.476-0.778-3.703c-0.243-0.974-0.907-1.916-0.947-2.899C74.424,86.43,74.925,85.83,74.35,85.23z"/>
	<path fill="#2B2B2B" d="M174.645,84.282l0.625-0.011c-0.074,0.592-0.197,1.183-0.322,1.773c-0.561,1.47-0.376,2.97-0.332,4.456
		c0.114,0.422-0.006,0.939,0.685,1.272c2.216,0.281,4.517-0.004,6.773,0.095c1.166,0.025,2.35,0.17,3.521,0.068
		c1.235-0.041,1.543-0.686,2.287-1.036c-0.114,0.561-0.188,1.124-0.303,1.686c-0.04,0.158-0.114,0.476-0.154,0.634l-0.059-0.009
		c-0.18-0.025-0.531-0.072-0.705-0.097c-0.124,0.478-0.244,0.956-0.357,1.433c-0.317-0.062-0.64-0.122-0.952-0.182
		c-2.5,0.405-5.181,0.136-7.76,0.216c-1.333,0.002-3.432,0.076-3.714-0.732C173.361,90.658,173.913,87.454,174.645,84.282z"/>
	<path fill="#D2D2D2" d="M29.019,85.272l0.159,0.016c0.57,0.06,1.14,0.12,1.71,0.182c0.006,0.28,0.015,0.561,0.035,0.843
		c-0.58,0.14-1.156,0.287-1.731,0.436c-0.168,0.276-0.342,0.551-0.536,0.827c-0.133,0.018-0.396,0.053-0.524,0.071
		C28.305,86.845,28.637,86.055,29.019,85.272z"/>
	<path fill="#272727" d="M31.598,85.449c0.173,1.952-0.135,4.114,2.281,5.818c0.541-0.248,0.982-0.152,1.318,0.119
		c0.011,0.443,0.08,0.889,0.2,1.333c0.182,0.599,0.287,1.204,0.386,1.807c-0.293,0.311-0.571,0.625-0.838,0.939
		c-1.26-0.51-2.112-1.16-2.163-1.949c-0.223-0.074-0.673-0.224-0.897-0.299c-0.119-0.391-0.218-0.781-0.287-1.171l-0.035-0.221
		c-0.303-1.447-0.441-2.901-0.561-4.355c-0.004-0.142-0.009-0.429-0.014-0.572C31.246,86.42,31.454,85.936,31.598,85.449z"/>
	<path fill="#2F2F2F" d="M188.504,85.513c0.278,0,0.833-0.002,1.11-0.002c-0.003,0.585-0.019,1.174-0.058,1.762l-0.085,0.034
		c-0.272,0.115-0.545,0.232-0.817,0.347C188.44,86.944,188.385,86.228,188.504,85.513z"/>
	<path fill="#DEDEDE" d="M209.395,85.802c0.545,0.067,1.096,0.138,1.646,0.198l0.192,0.021c0.73,1.594,0.756,3.231,0.527,4.854
		c-0.293,0.498-0.357,1.084-1.002,1.509c-0.956,0.051-1.928,0.104-2.708,0.397c0.09-0.396,0.159-0.792,0.239-1.188
		c0.069-0.388,0.158-0.772,0.232-1.158c0.06,0.131,0.169,0.393,0.228,0.524c0.213-0.071,0.645-0.209,0.858-0.278
		c0.521,0.023,1.047,0.048,1.572,0.074c0.179-1.103,0.259-2.228-0.272-3.312c-0.154-0.423-1.062-0.618-1.687-0.868
		C209.281,86.317,209.34,86.06,209.395,85.802z"/>
	<path fill="#3D3D3D" d="M174.616,90.5c-0.044-1.486-0.229-2.986,0.332-4.456c0.342,0.933,0.184,1.879,0.333,2.818
		c0.083,0.359,0.451,0.855,1.383,0.869c3.58,0.081,7.175,0.064,10.755-0.042c0.159,0.402,0.313,0.804,0.462,1.21
		c-0.744,0.35-1.052,0.995-2.287,1.036c-1.17,0.102-2.355-0.043-3.521-0.068c-2.256-0.099-4.557,0.186-6.773-0.095
		C174.61,91.439,174.73,90.922,174.616,90.5z"/>
	<path fill="#E9E9E9" d="M29.192,86.749c0.575-0.149,1.151-0.296,1.731-0.436c0.015,0.146,0.049,0.438,0.064,0.585
		c0.005,0.143,0.01,0.43,0.014,0.572c-1.1,0.327-2.197,0.701-2.691,1.284l-0.323-0.172c-0.336-0.278-0.164-0.668,0.145-0.935
		c0.129-0.019,0.391-0.053,0.524-0.071C28.851,87.3,29.024,87.024,29.192,86.749z"/>
	<path fill="#FCFCFC" d="M209.221,86.574c0.625,0.25,1.532,0.445,1.687,0.868c0.531,1.084,0.451,2.209,0.272,3.312
		c-0.525-0.025-1.051-0.05-1.572-0.074c-0.213,0.069-0.645,0.207-0.858,0.278c-0.059-0.131-0.168-0.393-0.228-0.524
		c0.154-1.031,0.173-2.067,0.402-3.096C209.023,87.084,209.122,86.829,209.221,86.574z"/>
	<path fill="#2B2B2B" d="M65.568,87.188c0.565,1.077,0.338,2.196,0.486,3.293c0.05,1.206,0.228,2.453-0.64,3.613
		c-1.438,0.102-2.895,0.14-4.343,0.094c-2.583-0.087-5.162,0.05-7.741,0.089c-0.133,0.064-0.401,0.198-0.54,0.265l-0.075,0.039
		c-0.183-0.691-0.386-1.38-0.476-2.074c0.148-0.136,0.451-0.406,0.6-0.54c3.705-0.216,7.468-0.002,11.182-0.142
		c0.962-0.005,0.927-0.521,1.145-0.832C65.642,89.735,65.097,88.448,65.568,87.188z"/>
	<path fill="#DCDCDC" d="M189.471,87.307l0.085-0.034c3.634,0.094,7.179,0.535,10.838,0.54c1.488,0.002,2.989,0.17,4.206,0.588
		c-0.005,0.556,0.024,1.114,0.064,1.672c-0.674,0.23-1.463,0.365-2.296,0.257c-2.88-0.239-5.821-0.179-8.702-0.414
		c-1.334-0.108-2.668-0.205-4.022-0.225c-0.108-0.356-0.218-0.712-0.288-1.07C189.377,88.182,189.402,87.743,189.471,87.307z"/>
	<path fill="#FBFBFB" d="M28.311,88.754c0.495-0.583,1.591-0.958,2.691-1.284c0.12,1.454,0.258,2.908,0.561,4.355
		c-0.654-0.31-1.532-0.4-2.434-0.388C27.998,90.646,28.593,89.641,28.311,88.754z"/>
	<path fill="#DEDEDE" d="M36.536,88.271c4.186-0.301,8.42-0.388,12.621-0.613c0.431,0.345,0.872,0.687,1.264,1.043l0.045,0.156
		c-0.03,0.11-0.079,0.329-0.109,0.439c-2.351-0.324-4.771-0.012-7.14,0.08c-2.54,0.173-5.262,0.032-7.572,0.646
		c-0.004-0.363,0.01-0.726,0.015-1.086C35.947,88.71,36.233,88.49,36.536,88.271z"/>
	<path fill="#B7B7B7" d="M35.202,88.304c0.114,0.156,0.343,0.473,0.457,0.632c-0.005,0.36-0.02,0.723-0.015,1.086
		c0.015,0.423,0.064,0.848,0.104,1.271c1.844-0.455,3.977-0.244,5.965-0.384c2.791-0.177,5.603-0.273,8.385-0.487
		c0.079-0.376,0.164-0.75,0.258-1.125c0.03-0.11,0.079-0.329,0.109-0.439c1.121,0.694,1.323,1.574,1.438,2.414
		c-0.52,0.402-0.818,0.848-0.863,1.318c-0.154-0.202-0.312-0.404-0.475-0.602c-2.173,0.397-4.552,0.342-6.833,0.496
		c-2.554,0.064-5.074,0.478-7.632,0.262l-0.703-0.027c-0.12-0.443-0.189-0.889-0.2-1.333C35.143,90.357,35.059,89.33,35.202,88.304z
		"/>
	<path fill="#D5D5D5" d="M27.987,88.582l0.323,0.172c0.282,0.887-0.313,1.893,0.818,2.683c0.902-0.012,1.78,0.078,2.434,0.388
		l0.035,0.221c-0.035,0.135-0.104,0.404-0.135,0.54c-1.1-0.145-2.161-0.347-3.128-0.632c0,0.126,0,0.381,0,0.51
		c-0.015,0.202-0.045,0.606-0.06,0.809c-0.521-0.51-0.401-1.086-0.436-1.633C27.849,90.619,27.765,89.597,27.987,88.582z"/>
	<path fill="#BABABA" d="M187.88,90.899c0.197-0.799,1.145-1.497,1.477-2.278c0.07,0.358,0.18,0.714,0.288,1.07
		c1.354,0.021,2.688,0.117,4.022,0.225c2.88,0.234,5.821,0.175,8.702,0.414c0.833,0.108,1.622-0.027,2.296-0.257
		c0.055,1.109-0.224,2.214-0.337,3.321l-0.075,0.275c-0.188-0.016-0.569-0.05-0.758-0.066c-0.104-0.234-0.209-0.469-0.308-0.701
		c-3.551-0.101-7.096-0.262-10.616-0.487c-1.17-0.083-2.445,0.06-3.516-0.229c-0.139,0.36-0.283,0.721-0.397,1.082
		c0.026-0.485-0.014-0.972-0.108-1.454c-0.55,0.186-0.768,0.485-0.972,0.772C187.692,92.022,187.766,91.459,187.88,90.899z"/>
	<path fill="#CBCBCB" d="M43.216,89.376c2.37-0.092,4.789-0.404,7.14-0.08c-0.094,0.375-0.179,0.749-0.258,1.125
		c-2.782,0.214-5.594,0.311-8.385,0.487c-1.989,0.14-4.121-0.071-5.965,0.384c-0.04-0.423-0.089-0.848-0.104-1.271
		C37.954,89.408,40.676,89.549,43.216,89.376z"/>
	<path fill="#ABABAB" d="M210.758,92.383c0.645-0.425,0.709-1.011,1.002-1.509c0.174,1.353-0.233,2.694-0.451,4.04
		c-1.209-0.138-2.44-0.246-3.665-0.335c0.129-0.6,0.263-1.199,0.406-1.798C208.83,92.486,209.802,92.434,210.758,92.383z"/>
	<path fill="#E0E0E0" d="M51.04,92.589c0.045-0.471,0.343-0.917,0.863-1.318c0.035,0.161,0.1,0.48,0.129,0.641
		c0.014,0.177,0.04,0.528,0.054,0.705c-0.897,0.967-0.083,2.033-0.569,3.034c-1.101,0.105-2.207,0.225-3.337,0.231
		c-3.992,0.032-7.884,0.598-11.891,0.467c-0.148-0.611-0.376-1.215-0.505-1.824c-0.1-0.604-0.205-1.208-0.386-1.807l0.703,0.027
		c0.154,0.926,0.258,1.863,0.848,2.756c4.037-0.06,7.993-0.505,12.024-0.547c0.704-0.016,1.394-0.096,2.077-0.167
		C51.163,94.055,51.208,93.32,51.04,92.589z"/>
	<path fill="#141414" d="M207.526,91.492c0.188,0.025,0.569,0.076,0.763,0.101c-0.08,0.395-0.149,0.792-0.239,1.188
		c-0.143,0.599-0.277,1.199-0.406,1.798l-0.07,0.298c-0.219,0.861-0.561,1.716-0.818,2.577l-0.089-0.108
		c-0.099-0.11-0.303-0.333-0.401-0.446c-0.541,0.448-1.062,0.9-1.592,1.351c-0.467-0.402-0.938-0.806-1.355-1.217
		c0.293-1.123,0.625-2.244,0.933-3.365l0.075-0.275c0.298,0.243,0.605,0.484,0.917,0.726
		C206.618,93.379,207.267,92.447,207.526,91.492z"/>
	<path fill="#BBBBBB" d="M28.334,91.953c0.967,0.285,2.028,0.487,3.128,0.632c-0.054,0.158-0.153,0.476-0.208,0.634
		c-1.368,0.145-2.592-0.085-2.92-0.756C28.334,92.334,28.334,92.08,28.334,91.953z"/>
	<path fill="#A9A9A9" d="M43.731,92.484c2.281-0.154,4.66-0.099,6.833-0.496c0.163,0.198,0.321,0.4,0.475,0.602
		c0.169,0.73,0.124,1.465,0.01,2.198c-0.684,0.071-1.373,0.151-2.077,0.167c-4.032,0.042-7.988,0.487-12.024,0.547
		c-0.59-0.894-0.694-1.831-0.848-2.756C38.658,92.962,41.177,92.548,43.731,92.484z"/>
	<path fill="#E3E3E3" d="M187.578,92.585c0.204-0.287,0.421-0.586,0.972-0.772c0.094,0.482,0.134,0.969,0.108,1.454
		c-0.104,0.434-0.208,0.871-0.248,1.307c0.06,0.12,0.174,0.356,0.233,0.474c4.78,0.243,9.565,0.473,14.345,0.732
		c-0.055,0.159-0.164,0.471-0.214,0.629c-4.878-0.248-9.744-0.537-14.627-0.737c-0.263-0.818,0.551-1.762-0.724-2.453
		C187.464,93.061,187.538,92.743,187.578,92.585z"/>
	<path fill="#ACACAC" d="M31.598,92.045c0.069,0.39,0.168,0.781,0.287,1.171c0.119,0.581,0.213,1.162,0.487,1.734
		c-0.997,0-1.999,0.007-2.99,0.058l-0.699,0.039c-0.358-0.577-0.422-1.181-0.408-1.776c0.015-0.202,0.044-0.606,0.06-0.809
		c0.328,0.671,1.552,0.9,2.92,0.756c0.055-0.158,0.154-0.476,0.208-0.634C31.493,92.449,31.562,92.181,31.598,92.045z"/>
	<path fill="#A8A8A8" d="M189.055,92.186c1.07,0.289,2.346,0.146,3.516,0.229c3.52,0.225,7.065,0.386,10.616,0.487
		c0.099,0.232,0.203,0.466,0.308,0.701c0.089,0.441,0.044,0.884,0.034,1.327c-0.693,0.083-1.398,0.226-2.127,0.161
		c-3.411-0.216-6.837-0.356-10.25-0.554c-0.912-0.062-1.834-0.018-2.742,0.037c0.04-0.436,0.144-0.873,0.248-1.307
		C188.772,92.907,188.917,92.546,189.055,92.186z"/>
	<path fill="#080808" d="M67.11,93.226c-0.098-0.347,0.536-0.549,0.981-0.763c1.364,5.274,1.949,10.58,3.129,15.86
		c-0.521,0.076-1.042,0.151-1.562,0.229c-0.53-2.122-1.938-4.206-1.651-6.362c-0.08-0.965,0.556-2.154-1.229-2.876
		c-1.145-0.236-2.494-0.083-3.719-0.117c-2.618,0.076-5.261-0.126-7.869,0.053c-0.243-0.514-0.476-1.031-0.729-1.543
		c-0.178,0.039-0.54,0.115-0.719,0.151c-0.282-0.652-0.486-1.312-0.525-1.978c0.664,0.225,0.981,0.569,1.255,0.917
		c2.677,0.202,5.39,0.058,8.086,0.112c1.215,0.03,2.439,0.007,3.635-0.112C67.1,95.651,67.016,94.425,67.11,93.226z"/>
	<path fill="#090909" d="M171.642,92.922c1.793,1.222,0.495,2.795,1.793,4.104c3.269,0.283,6.715-0.218,9.868,0.347
		c0.541-0.002,1.056-0.087,1.582-0.14c0.272-0.216,0.545-0.432,0.844-0.639c0.177,0.007,0.535,0.026,0.713,0.035
		c-0.094,0.517-0.233,1.032-0.417,1.546l-0.114,0.018c-1.11,0.087-1.586,0.722-2.761,0.724c-3.605,0.104-7.24,0.115-10.85,0.019
		c-0.477-1.011-0.297-2.09-1.215-3.048C171.085,94.894,171.418,93.91,171.642,92.922z"/>
	<path fill="#121212" d="M31.885,93.217c0.224,0.075,0.675,0.225,0.897,0.299c0.05,0.79,0.903,1.439,2.163,1.949
		c0.267-0.314,0.545-0.629,0.838-0.939c0.128,0.609,0.357,1.213,0.505,1.824c-0.312,0.478-0.683,0.971-1.571,1.289
		c-1.418-0.765-0.922-1.916-2.345-2.688C32.098,94.379,32.004,93.798,31.885,93.217z"/>
	<path fill="#C0C0C0" d="M188.41,94.574c0.908-0.055,1.83-0.099,2.742-0.037c3.412,0.198,6.838,0.338,10.25,0.554
		c0.729,0.064,1.434-0.078,2.127-0.161c-0.209,0.281-0.392,0.563-0.54,0.85c-4.78-0.259-9.565-0.489-14.345-0.732
		C188.584,94.93,188.47,94.693,188.41,94.574z"/>
	<path fill="#CACACA" d="M207.645,94.579c1.225,0.089,2.456,0.198,3.665,0.335c-0.58,1.192-0.68,2.478-1.815,3.585
		c-0.897,0.416-1.77,1.009-3.223,0.91c0.006-0.229,0.01-0.684,0.015-0.912c0.144-0.383,0.297-0.765,0.382-1.15l0.089,0.108
		c-0.02,0.402-0.035,0.804-0.044,1.208c0.857-0.019,1.958-0.08,2.241-0.533c0.789-0.939,1.334-1.943,1.299-2.956
		c-0.896-0.097-1.789-0.198-2.678-0.297L207.645,94.579z"/>
	<path fill="#FFFFFF" d="M29.381,95.008c0.991-0.051,1.994-0.058,2.99-0.058c0.178,1.119,0.625,2.223,1.05,3.328
		c-0.069,0.17-0.213,0.51-0.282,0.68c-0.789-0.197-1.88-0.278-2.202-0.719C30,97.22,29.55,96.111,29.381,95.008z"/>
	<path fill="#FEFEFE" d="M207.575,94.877c0.889,0.099,1.781,0.2,2.678,0.297c0.035,1.013-0.51,2.016-1.299,2.956
		c-0.283,0.453-1.384,0.514-2.241,0.533c0.01-0.404,0.024-0.806,0.044-1.208C207.014,96.593,207.356,95.738,207.575,94.877z"/>
	<path fill="#C1C1C1" d="M28.683,95.047l0.699-0.039c0.169,1.103,0.619,2.212,1.557,3.231c0.322,0.441,1.413,0.522,2.202,0.719
		c0.069-0.17,0.213-0.51,0.282-0.68c0.219,0.501,0.437,1.001,0.68,1.502c-0.467,0.014-0.932,0.018-1.398,0.009
		c-0.918-0.198-1.166-0.776-2.143-0.921l-0.143-0.027C29.569,97.605,29.069,96.329,28.683,95.047z"/>
	<path fill="#010101" d="M32.372,94.951c1.423,0.772,0.927,1.922,2.345,2.688c0.888-0.317,1.259-0.811,1.571-1.289
		c0.709,2.312,1.598,4.619,2.941,6.874c0.337,0.57,0.72,1.132,1.101,1.697c1.384,1.939,3.431,3.786,6.174,5.389
		c-0.224,0.071-0.665,0.218-0.888,0.292c-5.028-1.885-7.622-4.756-9.645-7.522c-0.179-0.269-0.788-0.393-1.19-0.579
		c0.467-0.721,0.135-1.463-0.361-2.159c-0.109-0.188-0.213-0.375-0.317-0.561c-0.243-0.5-0.461-1.001-0.68-1.502
		C32.996,97.174,32.549,96.069,32.372,94.951z"/>
	<path d="M171.085,95.888c0.917,0.958,0.738,2.037,1.215,3.048c3.609,0.097,7.245,0.085,10.85-0.019
		c1.175-0.002,1.651-0.636,2.761-0.724c-1.149,4.192-3.788,8.265-6.976,12.21l-0.03,0.768l-0.674-0.613
		c-3.397-0.209-6.788-0.443-10.18-0.655C169.935,105.274,169.845,100.548,171.085,95.888z"/>
	<path fill="#010101" d="M204.675,98.251c0.53-0.45,1.051-0.902,1.592-1.351c0.099,0.113,0.302,0.335,0.401,0.446
		c-0.085,0.386-0.239,0.767-0.382,1.15c-0.238,0.529-0.481,1.059-0.703,1.59c-0.472,0.714-0.923,1.502-0.07,2.2
		c-0.709,0.311-1.642,0.57-1.855,1.047c-2.107,2.94-5.152,5.954-10.83,7.763l-0.094-0.104c-0.079-0.089-0.243-0.266-0.328-0.354
		c4.091-1.874,6.272-4.449,7.919-6.955c1.349-2.18,2.276-4.41,2.994-6.652C203.737,97.445,204.208,97.849,204.675,98.251z"/>
	<path d="M53.742,97.858c0.179-0.037,0.542-0.112,0.719-0.151c0.253,0.512,0.486,1.029,0.729,1.543
		c2.607-0.179,5.251,0.023,7.869-0.053c1.225,0.035,2.574-0.119,3.719,0.117c1.785,0.722,1.15,1.911,1.229,2.876
		c-0.288,2.156,1.121,4.24,1.651,6.362c0.521-0.078,1.042-0.154,1.562-0.229c0.158,0.526,0.416,1.043,0.669,1.562
		c-3.714,0.271-7.458,0.446-11.147,0.776c0.288-0.436-0.297-0.82-0.536-1.219C57.044,105.72,55.011,101.809,53.742,97.858z"/>
	<path fill="#1A1A1A" d="M75.57,98.203c0.868,1.459,1.13,2.972,1.552,4.465c0.192-0.721,0.322-1.449,0.772-2.147
		c-0.134,2.384-0.665,4.81-2.29,7.085c-0.997-1.348,0.08-2.958-2.058-4.15C74.841,101.765,75.074,99.967,75.57,98.203z"/>
	<path fill="#9B9B9B" d="M205.583,100.086c0.222-0.531,0.465-1.061,0.703-1.59c-0.005,0.228-0.009,0.683-0.015,0.912
		c1.453,0.099,2.326-0.494,3.223-0.91c-0.392,0.802-1.011,1.578-1.844,2.302l0.029-0.131l0.075-0.269
		c-0.724,0.043-1.448,0.078-2.167,0.101C205.583,100.398,205.583,100.19,205.583,100.086z"/>
	<path fill="#868686" d="M30.561,98.869c0.977,0.145,1.225,0.723,2.143,0.921c0.466,0.009,0.931,0.004,1.398-0.009
		c0.104,0.186,0.208,0.372,0.317,0.561c-0.05,0.108-0.144,0.326-0.188,0.434c-0.456-0.032-1.369-0.099-1.825-0.131l0.12,0.372
		C31.533,100.375,31.112,99.602,30.561,98.869z"/>
	<path fill="#171717" d="M162.819,102.312c0.437-1.167,0.625-2.356,1.096-3.523c0.228,0.314,0.47,0.632,0.689,0.953
		c0.317,1.027,0.843,2.038,1.129,3.066c-2.78,0.51-0.931,2.111-2.593,2.952c-0.441-1.066-0.808-2.148-0.953-3.229
		C162.349,102.478,162.661,102.367,162.819,102.312z"/>
	<path fill="#474747" d="M205.583,100.086c0,0.104,0,0.312,0.005,0.416c0.718-0.023,1.442-0.058,2.167-0.101l-0.075,0.269
		c-0.56,0.581-1.274,1.134-2.166,1.617C204.66,101.588,205.111,100.801,205.583,100.086z"/>
	<path fill="#3C3C3C" d="M34.419,100.341c0.496,0.696,0.828,1.438,0.361,2.159c-0.942-0.425-1.655-0.944-2.255-1.484l-0.12-0.372
		c0.457,0.032,1.369,0.099,1.825,0.131C34.275,100.667,34.369,100.449,34.419,100.341z"/>
	<path fill="#EFEFEF" d="M39.962,102.229c4.651-0.092,9.257-0.427,13.889-0.613c0.099,0.156,0.288,0.466,0.387,0.622
		c-3.362,0.485-6.922,0.384-10.349,0.703c-1.135,0.112-2.395-0.032-3.446,0.236c-0.342,0.322,0.029,0.664,0.178,0.985
		c0.213,0.29,0.114,0.542-0.292,0.758c-0.381-0.565-0.764-1.127-1.101-1.697C39.497,102.896,39.735,102.562,39.962,102.229z"/>
	<path fill="#DDDDDD" d="M186.174,102.062c4.487,0.156,8.965,0.425,13.449,0.643c0.212,0.329,0.44,0.657,0.703,0.981
		c-1.647,2.506-3.828,5.081-7.919,6.955c0.084,0.087,0.249,0.264,0.328,0.354c-0.164,0.032-0.491,0.097-0.65,0.129
		c0.144-0.172,0.114-0.36,0.268-0.528c0.67-0.432,1.374-0.857,1.964-1.316c0.317-0.237,0.63-0.478,0.947-0.712
		c0.387-0.301,0.734-0.611,1.091-0.917c0.432-0.397,0.833-0.802,1.205-1.213c0.332-0.386,0.659-0.771,0.972-1.16
		c0.268-0.331,0.351-0.683,0.327-1.034c-3.258-0.29-6.581-0.315-9.852-0.535c-1.354-0.101-2.951,0.136-4.061-0.34
		C185.103,102.909,185.306,102.346,186.174,102.062z"/>
	<path fill="#DADADA" d="M43.889,102.941c3.427-0.319,6.987-0.218,10.349-0.703c0.257,0.368,0.382,0.749,0.525,1.13
		c-4.65,0.435-9.416,0.588-14.142,0.795c-0.149-0.321-0.52-0.664-0.178-0.985C41.494,102.909,42.754,103.054,43.889,102.941z"/>
	<path fill="#BEBEBE" d="M40.622,104.163c4.726-0.207,9.492-0.36,14.142-0.795c0.353,0.414,0.63,0.841,0.863,1.275
		c-4.78-0.17-9.476,0.583-14.261,0.455c0.328,0.494,0.66,0.987,1.096,1.463c0.308,0.324,0.625,0.646,0.962,0.965
		c0.308,0.278,0.625,0.558,0.962,0.833c0.64,0.538,1.373,1.05,2.107,1.562c0.004,0.097,0.004,0.29,0.011,0.388
		c-2.743-1.603-4.79-3.45-6.174-5.389C40.736,104.706,40.834,104.453,40.622,104.163z"/>
	<path fill="#BCBCBC" d="M184.945,103.368c1.11,0.476,2.708,0.239,4.061,0.34c3.271,0.22,6.594,0.246,9.852,0.535
		c0.024,0.351-0.06,0.703-0.327,1.034c-2.207,0.039-4.354-0.264-6.55-0.306c-2.534-0.17-5.123-0.149-7.606-0.466
		C184.563,104.126,184.781,103.75,184.945,103.368z"/>
	<path fill="#313131" d="M71.578,104.273c-0.148-0.404,0.565-0.634,1.3-0.737l0.669-0.08c2.138,1.192,1.061,2.802,2.058,4.15
		l0.044,0.06c-0.535,0.641-1.1,1.298-2.122,1.814C72.079,107.838,71.538,106.037,71.578,104.273z"/>
	<path fill="#323232" d="M165.433,104.112c0.828-0.149,1.69-0.254,2.574-0.312c0.333,1.808,0.407,3.889-2.147,5.388
		c-0.823-0.455-1.284-1.013-1.67-1.566C165.483,106.561,164.873,105.268,165.433,104.112z"/>
	<path fill="#9A9A9A" d="M41.365,105.098c4.786,0.128,9.481-0.625,14.261-0.455c0.183,0.34,0.381,0.68,0.576,1.022
		c-4.493,0.553-9.218,0.42-13.741,0.896C42.025,106.085,41.693,105.592,41.365,105.098z"/>
	<path fill="#9A9A9A" d="M184.374,104.505c2.484,0.317,5.073,0.296,7.606,0.466c2.197,0.042,4.344,0.345,6.55,0.306
		c-0.312,0.388-0.64,0.774-0.972,1.16c-2.356-0.11-4.696-0.246-7.041-0.393c-2.187-0.14-4.487-0.025-6.561-0.437l-0.337-0.094
		C183.883,105.178,184.141,104.845,184.374,104.505z"/>
	<path fill="#757575" d="M42.461,106.561c4.522-0.476,9.248-0.342,13.741-0.896c0.188,0.292,0.376,0.583,0.575,0.877
		c-0.957,0.452-2.371,0.427-3.63,0.5c-3.248,0.133-6.48,0.324-9.724,0.482C43.087,107.207,42.769,106.885,42.461,106.561z"/>
	<path fill="#767676" d="M183.725,105.566l0.233,0.042c2.073,0.411,4.374,0.296,6.561,0.437c2.345,0.147,4.685,0.282,7.041,0.393
		c-0.372,0.411-0.773,0.815-1.205,1.213c-4.398-0.54-9.01-0.515-13.483-0.861C183.14,106.377,183.427,105.971,183.725,105.566z"/>
	<path fill="#565656" d="M53.147,107.043c1.259-0.074,2.673-0.048,3.63-0.5c0.145,0.211,0.293,0.422,0.441,0.633
		c-0.407,0.313-0.55,0.843-1.582,0.809c-3.749,0.151-7.482,0.386-11.25,0.374c-0.337-0.275-0.654-0.556-0.962-0.833
		C46.667,107.367,49.899,107.176,53.147,107.043z"/>
	<path fill="#575757" d="M182.396,107.464c0.158-0.228,0.318-0.453,0.475-0.675c4.473,0.347,9.084,0.321,13.483,0.861
		c-0.357,0.305-0.704,0.616-1.091,0.917c-1.755-0.455-3.833-0.301-5.742-0.464C187.142,107.905,184.538,108.072,182.396,107.464z"/>
	<path fill="#323232" d="M55.636,107.985c1.032,0.034,1.175-0.496,1.582-0.809c0.406,0.644,1.006,1.252,1.472,1.886
		c-1.849,0.521-4.075,0.484-6.153,0.615c-2.003,0.122-4.017,0.234-6.044,0.244c-0.734-0.512-1.467-1.024-2.107-1.562
		C48.154,108.371,51.888,108.137,55.636,107.985z"/>
	<path fill="#3C3C3C" d="M182.396,107.464c2.142,0.608,4.746,0.441,7.125,0.639c1.909,0.163,3.987,0.009,5.742,0.464
		c-0.316,0.234-0.629,0.475-0.947,0.712c-3.892-0.055-7.745-0.35-11.613-0.547c-0.263-0.211-0.526-0.422-0.783-0.631
		C182.078,107.886,182.237,107.675,182.396,107.464z"/>
	<path fill="#1E1E1E" d="M181.92,108.1c0.257,0.209,0.52,0.42,0.783,0.631c3.868,0.197,7.721,0.492,11.613,0.547
		c-0.59,0.459-1.294,0.884-1.964,1.316c-3.213-0.004-6.381-0.264-9.589-0.296c-0.908-0.012-1.593-0.331-2.292-0.556
		C181.007,109.205,181.518,108.663,181.92,108.1z"/>
	<path fill="#0A0A0A" d="M52.537,109.678c2.078-0.131,4.304-0.094,6.153-0.615c0.303,0.443,0.952,0.813,1.215,1.268h0.481
		c-0.258,0.305,0.56,0.402,0.655,0.666c-3.713,0.411-7.557,0.659-11.379,0.602c-1.313-0.365-2.792-0.587-4.046-0.997
		c0.223-0.073,0.665-0.22,0.888-0.292c-0.006-0.099-0.006-0.292-0.011-0.388C48.52,109.912,50.534,109.799,52.537,109.678z"/>
	<path fill="#040404" d="M180.472,109.742c0.699,0.225,1.383,0.544,2.292,0.556c3.208,0.033,6.376,0.292,9.589,0.296
		c-0.153,0.168-0.124,0.356-0.268,0.528c-0.778,0.014-1.239,0.156-1.388,0.429c-3.863,0.161-7.755-0.14-11.529-0.512
		c0.04-0.244,0.084-0.489,0.134-0.73l0.535,0.103C179.936,110.167,180.15,109.942,180.472,109.742z"/>
	<path fill="#555555" d="M47.312,110.523C47.598,110.661,47.598,110.661,47.312,110.523z"/>
</g>
<path fill="#613626" d="M279.485,205.348l0.779,0.291c-0.029,0.43-0.09,1.279-0.119,1.709
	C279.985,206.848,279.655,205.848,279.485,205.348z"/>
<rect x="138.318" y="127.8" fill="none" width="52.708" height="36.725"/>
</svg>
